<svg xmlns="http://www.w3.org/2000/svg" xmlns:xlink="http://www.w3.org/1999/xlink" contentStyleType="text/css" data-diagram-type="STATE" height="1152px" preserveAspectRatio="none" style="width:926px;height:1152px;background:#FFFFFF;" version="1.1" viewBox="0 0 926 1152" width="926px" zoomAndPan="magnify"><title>Editar Solicitud de Dispensa</title><defs/><g><g class="title" data-source-line="1"><text fill="#000000" font-family="sans-serif" font-size="14" font-weight="bold" lengthAdjust="spacing" textLength="222.6602" x="341.4978" y="32.9951">Editar Solicitud de Dispensa</text></g><g id="SOLICITUD_DISPENSA_ABIERTA_INICIAL"><rect fill="#F1F1F1" height="76.2969" rx="12.5" ry="12.5" style="stroke:#181818;stroke-width:0.5;" width="259.3516" x="470.67" y="183.2969"/><line style="stroke:#181818;stroke-width:0.5;" x1="470.67" x2="730.0216" y1="229.5938" y2="229.5938"/><text fill="#000000" font-family="sans-serif" font-size="14" lengthAdjust="spacing" textLength="219.3516" x="490.67" y="211.292">SOLICITUD_DISPENSA_ABIERTA</text></g><g id="SOLICITUD_DISPENSA_ABIERTA_FINAL"><rect fill="#F1F1F1" height="76.2969" rx="12.5" ry="12.5" style="stroke:#181818;stroke-width:0.5;" width="259.3516" x="470.67" y="948.2969"/><line style="stroke:#181818;stroke-width:0.5;" x1="470.67" x2="730.0216" y1="994.5938" y2="994.5938"/><text fill="#000000" font-family="sans-serif" font-size="14" lengthAdjust="spacing" textLength="219.3516" x="490.67" y="976.292">SOLICITUD_DISPENSA_ABIERTA</text></g><path d="M300.17,359.2969 L900.1558,359.2969 A12.5,12.5 0 0 1 912.6558,371.7969 L912.6558,405.5938 L287.67,405.5938 L287.67,371.7969 A12.5,12.5 0 0 1 300.17,359.2969" fill="#F1F1F1"/><rect fill="none" height="287.2969" rx="12.5" ry="12.5" style="stroke:#181818;stroke-width:0.5;" width="624.9858" x="287.67" y="359.2969"/><line style="stroke:#181818;stroke-width:0.5;" x1="287.67" x2="912.6558" y1="405.5938" y2="405.5938"/><text fill="#000000" font-family="sans-serif" font-size="14" lengthAdjust="spacing" textLength="210.9502" x="494.6878" y="387.292">EDITAR_SOLICITUD_DISPENSA</text><g id="EDITAR_SOLICITUD_DISPENSA.ModificarEstadoYDatos"><rect fill="#F1F1F1" height="76.2969" rx="12.5" ry="12.5" style="stroke:#181818;stroke-width:0.5;" width="259.4951" x="299.67" y="487.5938"/><line style="stroke:#181818;stroke-width:0.5;" x1="299.67" x2="559.1651" y1="533.8906" y2="533.8906"/><text fill="#000000" font-family="sans-serif" font-size="14" lengthAdjust="spacing" textLength="219.4951" x="319.67" y="515.5889">Modificación de Estado y Datos</text></g><ellipse cx="429.17" cy="426.5938" fill="#222222" rx="10" ry="10" style="stroke:#222222;stroke-width:1;"/><ellipse cx="429.17" cy="625.5938" fill="none" rx="11" ry="11" style="stroke:#222222;stroke-width:1;"/><ellipse cx="429.17" cy="625.5938" fill="#222222" rx="6" ry="6" style="stroke:#222222;stroke-width:1;"/><g class="entity" data-entity="GMN2" data-source-line="24" data-uid="ent0003" id="entity_GMN2"><path d="M577.17,472.5938 L577.17,521.5938 L558.81,525.5938 L577.17,529.5938 L577.17,578.2578 A0,0 0 0 0 577.17,578.2578 L903.6558,578.2578 A0,0 0 0 0 903.6558,578.2578 L903.6558,482.5938 L893.6558,472.5938 L577.17,472.5938 A0,0 0 0 0 577.17,472.5938" fill="#FEFFDD" style="stroke:#181818;stroke-width:0.5;"/><path d="M893.6558,472.5938 L893.6558,482.5938 L903.6558,482.5938 L893.6558,472.5938" fill="#FEFFDD" style="stroke:#181818;stroke-width:0.5;"/><text fill="#000000" font-family="sans-serif" font-size="13" font-weight="bold" lengthAdjust="spacing" textLength="124.1855" x="593.17" y="499.6606">Sistema muestra</text><text fill="#000000" font-family="sans-serif" font-size="13" lengthAdjust="spacing" textLength="157.168" x="721.4879" y="499.6606">los datos de la solicitud.</text><text fill="#000000" font-family="sans-serif" font-size="13" font-weight="bold" lengthAdjust="spacing" textLength="211.0786" x="593.17" y="514.7935">Director de Grado introduce:</text><text fill="#000000" font-family="sans-serif" font-size="13" lengthAdjust="spacing" textLength="191.3691" x="593.17" y="529.9263">• Estado (Aprobar/Rechazar).</text><text fill="#000000" font-family="sans-serif" font-size="13" lengthAdjust="spacing" textLength="173.1069" x="593.17" y="545.0591">• Observaciones o motivo.</text><text fill="#000000" font-family="sans-serif" font-size="13" lengthAdjust="spacing" textLength="169.9141" x="593.17" y="560.1919">• Otros campos editables.</text></g><!--link *start*EDITAR_SOLICITUD_DISPENSA to ModificarEstadoYDatos--><g class="link" data-entity-1=".start.EDITAR_SOLICITUD_DISPENSA" data-entity-2="ModificarEstadoYDatos" data-source-line="21" data-uid="lnk6" id="link_.start.EDITAR_SOLICITUD_DISPENSA_ModificarEstadoYDatos"><path d="M429.17,436.8138 C429.17,448.7738 429.17,463.2537 429.17,481.5438" fill="none" id="*start*EDITAR_SOLICITUD_DISPENSA-to-ModificarEstadoYDatos" style="stroke:#008000;stroke-width:1;"/><polygon fill="#008000" points="429.17,487.5438,433.17,478.5438,429.17,482.5438,425.17,478.5438,429.17,487.5438" style="stroke:#008000;stroke-width:1;"/></g><!--link ModificarEstadoYDatos to *end*EDITAR_SOLICITUD_DISPENSA--><g class="link" data-entity-1="ModificarEstadoYDatos" data-entity-2=".end.EDITAR_SOLICITUD_DISPENSA" data-source-line="31" data-uid="lnk8" id="link_ModificarEstadoYDatos_.end.EDITAR_SOLICITUD_DISPENSA"><path d="M429.17,563.6838 C429.17,581.7938 429.17,596.1038 429.17,608.3638" fill="none" id="ModificarEstadoYDatos-to-*end*EDITAR_SOLICITUD_DISPENSA" style="stroke:#008000;stroke-width:1;"/><polygon fill="#008000" points="429.17,614.3638,433.17,605.3638,429.17,609.3638,425.17,605.3638,429.17,614.3638" style="stroke:#008000;stroke-width:1;"/></g><ellipse cx="600.17" cy="73.2969" fill="#222222" rx="10" ry="10" style="stroke:#222222;stroke-width:1;"/><ellipse cx="600.17" cy="1135.2969" fill="none" rx="11" ry="11" style="stroke:#222222;stroke-width:1;"/><ellipse cx="600.17" cy="1135.2969" fill="#222222" rx="6" ry="6" style="stroke:#222222;stroke-width:1;"/><!--link *start* to SOLICITUD_DISPENSA_ABIERTA_INICIAL--><g class="link" data-entity-1=".start." data-entity-2="SOLICITUD_DISPENSA_ABIERTA_INICIAL" data-source-line="10" data-uid="lnk3" id="link_.start._SOLICITUD_DISPENSA_ABIERTA_INICIAL"><path d="M600.17,83.4669 C600.17,103.6469 600.17,143.6769 600.17,176.9969" fill="none" id="*start*-to-SOLICITUD_DISPENSA_ABIERTA_INICIAL" style="stroke:#008000;stroke-width:1;"/><polygon fill="#008000" points="600.17,182.9969,604.17,173.9969,600.17,177.9969,596.17,173.9969,600.17,182.9969" style="stroke:#008000;stroke-width:1;"/></g><!--link SOLICITUD_DISPENSA_ABIERTA_INICIAL to EDITAR_SOLICITUD_DISPENSA--><g class="link" data-entity-1="SOLICITUD_DISPENSA_ABIERTA_INICIAL" data-entity-2="EDITAR_SOLICITUD_DISPENSA" data-source-line="12" data-uid="lnk4" id="link_SOLICITUD_DISPENSA_ABIERTA_INICIAL_EDITAR_SOLICITUD_DISPENSA"><path d="M600.17,259.5569 C600.17,285.7869 600.17,316.3969 600.17,353.2569" fill="none" id="SOLICITUD_DISPENSA_ABIERTA_INICIAL-to-EDITAR_SOLICITUD_DISPENSA" style="stroke:#008000;stroke-width:1;"/><polygon fill="#008000" points="600.17,359.2569,604.17,350.2569,600.17,354.2569,596.17,350.2569,600.17,359.2569" style="stroke:#008000;stroke-width:1;"/><path d="M60.17,244.4069 L60.17,304.4069 L409.17,304.4069 L409.17,254.4069 L399.17,244.4069 L60.17,244.4069" fill="#FEFFDD" style="stroke:#181818;stroke-width:0.5;"/><path d="M399.17,244.4069 L399.17,254.4069 L409.17,254.4069 L399.17,244.4069" fill="#FEFFDD" style="stroke:#181818;stroke-width:0.5;"/><text fill="#000000" font-family="sans-serif" font-size="13" font-weight="bold" lengthAdjust="spacing" textLength="188.2588" x="76.17" y="271.4738">Director de Grado solicita</text><text fill="#000000" font-family="sans-serif" font-size="13" lengthAdjust="spacing" textLength="116.543" x="268.5611" y="271.4738">editar la solicitud.</text><text fill="#000000" font-family="sans-serif" font-size="13" font-weight="bold" lengthAdjust="spacing" textLength="128.7622" x="76.17" y="286.6066">Sistema presenta</text><text fill="#000000" font-family="sans-serif" font-size="13" lengthAdjust="spacing" textLength="157.168" x="209.0645" y="286.6066">los datos de la solicitud.</text><text fill="#000000" font-family="sans-serif" font-size="13" lengthAdjust="spacing" textLength="163.814" x="426.1041" y="279.0402">editarSolicitudDispensa()</text></g><!--link EDITAR_SOLICITUD_DISPENSA to SOLICITUD_DISPENSA_ABIERTA_FINAL--><g class="link" data-entity-1="EDITAR_SOLICITUD_DISPENSA" data-entity-2="SOLICITUD_DISPENSA_ABIERTA_FINAL" data-source-line="34" data-uid="lnk9" id="link_EDITAR_SOLICITUD_DISPENSA_SOLICITUD_DISPENSA_ABIERTA_FINAL"><path d="M557,646.5569 C557,750.6669 557,877.9569 557,942.2469" fill="none" id="EDITAR_SOLICITUD_DISPENSA-to-SOLICITUD_DISPENSA_ABIERTA_FINAL" style="stroke:#008000;stroke-width:1;"/><polygon fill="#008000" points="557,948.2469,561,939.2469,557,943.2469,553,939.2469,557,948.2469" style="stroke:#008000;stroke-width:1;"/><path d="M6,717.3969 L6,792.3969 L353,792.3969 L353,727.3969 L343,717.3969 L6,717.3969" fill="#FEFFDD" style="stroke:#181818;stroke-width:0.5;"/><path d="M343,717.3969 L343,727.3969 L353,727.3969 L343,717.3969" fill="#FEFFDD" style="stroke:#181818;stroke-width:0.5;"/><text fill="#000000" font-family="sans-serif" font-size="13" font-weight="bold" lengthAdjust="spacing" textLength="77.3589" x="22" y="744.4638">GUARDAR:</text><text fill="#000000" font-family="sans-serif" font-size="13" font-weight="bold" lengthAdjust="spacing" textLength="188.2588" x="22" y="759.5966">Director de Grado solicita</text><text fill="#000000" font-family="sans-serif" font-size="13" lengthAdjust="spacing" textLength="113.9976" x="214.3911" y="759.5966">guardar cambios.</text><text fill="#000000" font-family="sans-serif" font-size="13" font-weight="bold" lengthAdjust="spacing" textLength="121.5576" x="22" y="774.7294">Sistema registra</text><text fill="#000000" font-family="sans-serif" font-size="13" lengthAdjust="spacing" textLength="175.4937" x="147.6899" y="774.7294">los cambios de la solicitud.</text><text fill="#000000" font-family="sans-serif" font-size="13" lengthAdjust="spacing" textLength="176.9092" x="369.3887" y="759.5966">guardarSolicitudDispensa()</text></g><!--link EDITAR_SOLICITUD_DISPENSA to SOLICITUD_DISPENSA_ABIERTA_FINAL--><g class="link" data-entity-1="EDITAR_SOLICITUD_DISPENSA" data-entity-2="SOLICITUD_DISPENSA_ABIERTA_FINAL" data-source-line="41" data-uid="lnk10" id="link_EDITAR_SOLICITUD_DISPENSA_SOLICITUD_DISPENSA_ABIERTA_FINAL"><path d="M643.33,646.5569 C643.33,750.6669 643.33,877.9569 643.33,942.2469" fill="none" id="EDITAR_SOLICITUD_DISPENSA-to-SOLICITUD_DISPENSA_ABIERTA_FINAL-1" style="stroke:#FF0000;stroke-width:1;"/><polygon fill="#FF0000" points="643.33,948.2469,647.33,939.2469,643.33,943.2469,639.33,939.2469,643.33,948.2469" style="stroke:#FF0000;stroke-width:1;"/><text fill="#000000" font-family="sans-serif" font-size="13" lengthAdjust="spacing" textLength="164.6899" x="120.33" y="844.5966">cerrarSolicitudDispensa()</text><path d="M301.0199,802.3969 L301.0199,877.3969 L638.0199,877.3969 L638.0199,812.3969 L628.0199,802.3969 L301.0199,802.3969" fill="#FEFFDD" style="stroke:#181818;stroke-width:0.5;"/><path d="M628.0199,802.3969 L628.0199,812.3969 L638.0199,812.3969 L628.0199,802.3969" fill="#FEFFDD" style="stroke:#181818;stroke-width:0.5;"/><text fill="#000000" font-family="sans-serif" font-size="13" font-weight="bold" lengthAdjust="spacing" textLength="63.7114" x="317.0199" y="829.4638">CERRAR:</text><text fill="#000000" font-family="sans-serif" font-size="13" font-weight="bold" lengthAdjust="spacing" textLength="188.2588" x="317.0199" y="844.5966">Director de Grado solicita</text><text fill="#000000" font-family="sans-serif" font-size="13" lengthAdjust="spacing" textLength="31.4399" x="509.4111" y="844.5966">salir.</text><text fill="#000000" font-family="sans-serif" font-size="13" font-weight="bold" lengthAdjust="spacing" textLength="127.1689" x="317.0199" y="859.7294">Sistema descarta</text><text fill="#000000" font-family="sans-serif" font-size="13" lengthAdjust="spacing" textLength="165.5786" x="448.3212" y="859.7294">los cambios introducidos.</text></g><!--link SOLICITUD_DISPENSA_ABIERTA_FINAL to *end*--><g class="link" data-entity-1="SOLICITUD_DISPENSA_ABIERTA_FINAL" data-entity-2=".end." data-source-line="48" data-uid="lnk12" id="link_SOLICITUD_DISPENSA_ABIERTA_FINAL_.end."><path d="M600.17,1024.6669 C600.17,1057.7769 600.17,1097.4569 600.17,1118.2169" fill="none" id="SOLICITUD_DISPENSA_ABIERTA_FINAL-to-*end*" style="stroke:#0000FF;stroke-width:1;"/><polygon fill="#0000FF" points="600.17,1124.2169,604.17,1115.2169,600.17,1119.2169,596.17,1115.2169,600.17,1124.2169" style="stroke:#0000FF;stroke-width:1;"/></g><!--SRC=[bLJTQjim6BttKtnqD-qWRNSRIi2hlMBeqkAa5wEK85jV4X57Cf_aGZS6UvQzmXvXRx8dcUIVnecREFM5ZQJp7UcSyyb6c0mXvC8mWedAH2fCmO4Z14BdA3Npz4h8d15RWrGSDURmwVAoDKjChhgpcP1eNd84HMQfMWltZ7CX5nRkUTemWp2vkuske-b3C0kYoNqudlWp_tCKnbD_5etjYdyBJCF9VjX9Fz6NQ6nfe9V8U_pu18F73mj2b4-3qH67yxmZ1BGfmo2Q-l6iMmL3m3A9ro2Q44xFFAcimWpd1fHqxguyAmUkab4W25EZo8LsGumhq5Kvkxf8HZKZPAoPBlXvKpeHsk2QGKusLraNP4e3PyQzSQSC9GTtZYQv_Kf-b5jKgA-AYxb86OLspDMte2HtIJGhgVZxHxhjAWIyG8cnSJYMtKZUvAkWfKaa5alhqdmF4EgdfNzTe3RKAxzLsJLTI4EA5oaE7Sqhzj-ltusgKpydbJ2wY35Tik-CpiwtO7U9HdgsPYY96XIibH7FQWTZDz6GidLkFsMqIOQwmcpISQEtNM_xQ7trVdhU_X0tuC7Xcr3ThY4i2aRydUrxy-37WHzlNEjlwNeRPqCYbEwqC-52RELP0myrz44N2FdH7gH8TC22kZctFRWEu_Xz5cYM2Ue8jxzd6xZf2c-QKt1drqPrhnuhFiaAhDlbFm00]--></g></svg>