<svg xmlns="http://www.w3.org/2000/svg" xmlns:xlink="http://www.w3.org/1999/xlink" contentStyleType="text/css" data-diagram-type="STATE" height="1122px" preserveAspectRatio="none" style="width:914px;height:1122px;background:#FFFFFF;" version="1.1" viewBox="0 0 914 1122" width="914px" zoomAndPan="magnify"><title>Consultar solicitud de dispensa</title><defs/><g><g class="title" data-source-line="1"><text fill="#000000" font-family="sans-serif" font-size="14" font-weight="bold" lengthAdjust="spacing" textLength="247.8848" x="323.2649" y="32.9951">Consultar solicitud de dispensa</text></g><g id="DISPENSAS_ABIERTO_INICIAL"><rect fill="#F1F1F1" height="76.2969" rx="12.5" ry="12.5" style="stroke:#181818;stroke-width:0.5;" width="187.3623" x="489.67" y="183.2969"/><line style="stroke:#181818;stroke-width:0.5;" x1="489.67" x2="677.0323" y1="229.5938" y2="229.5938"/><text fill="#000000" font-family="sans-serif" font-size="14" lengthAdjust="spacing" textLength="147.3623" x="509.67" y="211.292">DISPENSAS_ABIERTO</text></g><path d="M277.67,359.2969 L888.9146,359.2969 A12.5,12.5 0 0 1 901.4146,371.7969 L901.4146,405.5938 L265.17,405.5938 L265.17,371.7969 A12.5,12.5 0 0 1 277.67,359.2969" fill="#F1F1F1"/><rect fill="none" height="257.2969" rx="12.5" ry="12.5" style="stroke:#181818;stroke-width:0.5;" width="636.2446" x="265.17" y="359.2969"/><line style="stroke:#181818;stroke-width:0.5;" x1="265.17" x2="901.4146" y1="405.5938" y2="405.5938"/><text fill="#000000" font-family="sans-serif" font-size="14" lengthAdjust="spacing" textLength="219.3516" x="473.6165" y="387.292">SOLICITUD_DISPENSA_ABIERTA</text><g id="SOLICITUD_DISPENSA_ABIERTA.SolicitarEditarSolicitud"><rect fill="#F1F1F1" height="76.2969" rx="12.5" ry="12.5" style="stroke:#181818;stroke-width:0.5;" width="198.7783" x="277.17" y="472.5938"/><line style="stroke:#181818;stroke-width:0.5;" x1="277.17" x2="475.9483" y1="518.8906" y2="518.8906"/><text fill="#000000" font-family="sans-serif" font-size="14" lengthAdjust="spacing" textLength="158.7783" x="297.17" y="500.5889">Visualización y Edición</text></g><ellipse cx="376.67" cy="426.5938" fill="#222222" rx="10" ry="10" style="stroke:#222222;stroke-width:1;"/><ellipse cx="376.67" cy="595.5938" fill="none" rx="11" ry="11" style="stroke:#222222;stroke-width:1;"/><ellipse cx="376.67" cy="595.5938" fill="#222222" rx="6" ry="6" style="stroke:#222222;stroke-width:1;"/><g class="entity" data-entity="GMN2" data-source-line="19" data-uid="ent0003" id="entity_GMN2"><path d="M494.67,480.5938 L494.67,506.5938 L476.54,510.5938 L494.67,514.5938 L494.67,540.8594 A0,0 0 0 0 494.67,540.8594 L892.4146,540.8594 A0,0 0 0 0 892.4146,540.8594 L892.4146,490.5938 L882.4146,480.5938 L494.67,480.5938 A0,0 0 0 0 494.67,480.5938" fill="#FEFFDD" style="stroke:#181818;stroke-width:0.5;"/><path d="M882.4146,480.5938 L882.4146,490.5938 L892.4146,490.5938 L882.4146,480.5938" fill="#FEFFDD" style="stroke:#181818;stroke-width:0.5;"/><text fill="#000000" font-family="sans-serif" font-size="13" font-weight="bold" lengthAdjust="spacing" textLength="124.1855" x="510.67" y="507.6606">Sistema muestra</text><text fill="#000000" font-family="sans-serif" font-size="13" lengthAdjust="spacing" textLength="157.168" x="638.9879" y="507.6606">los datos de la solicitud.</text><text fill="#000000" font-family="sans-serif" font-size="13" font-weight="bold" lengthAdjust="spacing" textLength="184.666" x="510.67" y="522.7935">Sistema permite solicitar</text><text fill="#000000" font-family="sans-serif" font-size="13" lengthAdjust="spacing" textLength="167.9463" x="699.4683" y="522.7935">editarSolicitudDispensa().</text></g><!--link *start*SOLICITUD_DISPENSA_ABIERTA to SolicitarEditarSolicitud--><g class="link" data-entity-1=".start.SOLICITUD_DISPENSA_ABIERTA" data-entity-2="SolicitarEditarSolicitud" data-source-line="17" data-uid="lnk6" id="link_.start.SOLICITUD_DISPENSA_ABIERTA_SolicitarEditarSolicitud"><path d="M376.67,436.8938 C376.67,445.8338 376.67,453.3438 376.67,466.3738" fill="none" id="*start*SOLICITUD_DISPENSA_ABIERTA-to-SolicitarEditarSolicitud" style="stroke:#008000;stroke-width:1;"/><polygon fill="#008000" points="376.67,472.3738,380.67,463.3738,376.67,467.3738,372.67,463.3738,376.67,472.3738" style="stroke:#008000;stroke-width:1;"/></g><!--link SolicitarEditarSolicitud to *end*SOLICITUD_DISPENSA_ABIERTA--><g class="link" data-entity-1="SolicitarEditarSolicitud" data-entity-2=".end.SOLICITUD_DISPENSA_ABIERTA" data-source-line="22" data-uid="lnk8" id="link_SolicitarEditarSolicitud_.end.SOLICITUD_DISPENSA_ABIERTA"><path d="M376.67,548.6138 C376.67,561.7038 376.67,569.3538 376.67,578.5538" fill="none" id="SolicitarEditarSolicitud-to-*end*SOLICITUD_DISPENSA_ABIERTA" style="stroke:#008000;stroke-width:1;"/><polygon fill="#008000" points="376.67,584.5538,380.67,575.5538,376.67,579.5538,372.67,575.5538,376.67,584.5538" style="stroke:#008000;stroke-width:1;"/></g><g id="DISPENSAS_ABIERTO_FINAL"><rect fill="#F1F1F1" height="76.2969" rx="12.5" ry="12.5" style="stroke:#181818;stroke-width:0.5;" width="187.3623" x="489.67" y="918.2969"/><line style="stroke:#181818;stroke-width:0.5;" x1="489.67" x2="677.0323" y1="964.5938" y2="964.5938"/><text fill="#000000" font-family="sans-serif" font-size="14" lengthAdjust="spacing" textLength="147.3623" x="509.67" y="946.292">DISPENSAS_ABIERTO</text></g><ellipse cx="583.17" cy="73.2969" fill="#222222" rx="10" ry="10" style="stroke:#222222;stroke-width:1;"/><ellipse cx="583.17" cy="1105.2969" fill="none" rx="11" ry="11" style="stroke:#222222;stroke-width:1;"/><ellipse cx="583.17" cy="1105.2969" fill="#222222" rx="6" ry="6" style="stroke:#222222;stroke-width:1;"/><!--link *start* to DISPENSAS_ABIERTO_INICIAL--><g class="link" data-entity-1=".start." data-entity-2="DISPENSAS_ABIERTO_INICIAL" data-source-line="9" data-uid="lnk3" id="link_.start._DISPENSAS_ABIERTO_INICIAL"><path d="M583.17,83.4669 C583.17,103.6469 583.17,143.6769 583.17,176.9969" fill="none" id="*start*-to-DISPENSAS_ABIERTO_INICIAL" style="stroke:#008000;stroke-width:1;"/><polygon fill="#008000" points="583.17,182.9969,587.17,173.9969,583.17,177.9969,579.17,173.9969,583.17,182.9969" style="stroke:#008000;stroke-width:1;"/></g><!--link DISPENSAS_ABIERTO_INICIAL to SOLICITUD_DISPENSA_ABIERTA--><g class="link" data-entity-1="DISPENSAS_ABIERTO_INICIAL" data-entity-2="SOLICITUD_DISPENSA_ABIERTA" data-source-line="10" data-uid="lnk4" id="link_DISPENSAS_ABIERTO_INICIAL_SOLICITUD_DISPENSA_ABIERTA"><path d="M583.17,259.4769 C583.17,285.8869 583.17,316.6969 583.17,353.0569" fill="none" id="DISPENSAS_ABIERTO_INICIAL-to-SOLICITUD_DISPENSA_ABIERTA" style="stroke:#008000;stroke-width:1;"/><polygon fill="#008000" points="583.17,359.0569,587.17,350.0569,583.17,354.0569,579.17,350.0569,583.17,359.0569" style="stroke:#008000;stroke-width:1;"/><path d="M38.17,244.2669 L38.17,304.2669 L370.17,304.2669 L370.17,254.2669 L360.17,244.2669 L38.17,244.2669" fill="#FEFFDD" style="stroke:#181818;stroke-width:0.5;"/><path d="M360.17,244.2669 L360.17,254.2669 L370.17,254.2669 L360.17,244.2669" fill="#FEFFDD" style="stroke:#181818;stroke-width:0.5;"/><text fill="#000000" font-family="sans-serif" font-size="13" font-weight="bold" lengthAdjust="spacing" textLength="112.7598" x="54.17" y="271.3338">Alumno solicita</text><text fill="#000000" font-family="sans-serif" font-size="13" lengthAdjust="spacing" textLength="164.9312" x="171.0621" y="271.3338">seleccionar una solicitud.</text><text fill="#000000" font-family="sans-serif" font-size="13" font-weight="bold" lengthAdjust="spacing" textLength="128.7622" x="54.17" y="286.4666">Sistema presenta</text><text fill="#000000" font-family="sans-serif" font-size="13" lengthAdjust="spacing" textLength="158.9326" x="187.0645" y="286.4666">el detalle de la solicitud.</text><text fill="#000000" font-family="sans-serif" font-size="13" lengthAdjust="spacing" textLength="185.9165" x="386.9971" y="278.9002">consultarSolicitudDispensa()</text></g><!--link SOLICITUD_DISPENSA_ABIERTA to DISPENSAS_ABIERTO_FINAL--><g class="link" data-entity-1="SOLICITUD_DISPENSA_ABIERTA" data-entity-2="DISPENSAS_ABIERTO_FINAL" data-source-line="24" data-uid="lnk9" id="link_SOLICITUD_DISPENSA_ABIERTA_DISPENSAS_ABIERTO_FINAL"><path d="M552,616.4369 C552,718.0169 552,847.1169 552,912.1369" fill="none" id="SOLICITUD_DISPENSA_ABIERTA-to-DISPENSAS_ABIERTO_FINAL" style="stroke:#008000;stroke-width:1;"/><polygon fill="#008000" points="552,918.1369,556,909.1369,552,913.1369,548,909.1369,552,918.1369" style="stroke:#008000;stroke-width:1;"/><path d="M6,687.2869 L6,762.2869 L348,762.2869 L348,697.2869 L338,687.2869 L6,687.2869" fill="#FEFFDD" style="stroke:#181818;stroke-width:0.5;"/><path d="M338,687.2869 L338,697.2869 L348,697.2869 L338,687.2869" fill="#FEFFDD" style="stroke:#181818;stroke-width:0.5;"/><text fill="#000000" font-family="sans-serif" font-size="13" font-weight="bold" lengthAdjust="spacing" textLength="77.3589" x="22" y="714.3538">GUARDAR:</text><text fill="#000000" font-family="sans-serif" font-size="13" font-weight="bold" lengthAdjust="spacing" textLength="112.7598" x="22" y="729.4866">Alumno solicita</text><text fill="#000000" font-family="sans-serif" font-size="13" lengthAdjust="spacing" textLength="118.3647" x="138.8921" y="729.4866">registrar cambios.</text><text fill="#000000" font-family="sans-serif" font-size="13" font-weight="bold" lengthAdjust="spacing" textLength="121.5576" x="22" y="744.6194">Sistema registra</text><text fill="#000000" font-family="sans-serif" font-size="13" lengthAdjust="spacing" textLength="175.4937" x="147.6899" y="744.6194">los cambios de la solicitud.</text><text fill="#000000" font-family="sans-serif" font-size="13" lengthAdjust="spacing" textLength="176.9092" x="364.1836" y="729.4866">guardarSolicitudDispensa()</text></g><!--link SOLICITUD_DISPENSA_ABIERTA to DISPENSAS_ABIERTO_FINAL--><g class="link" data-entity-1="SOLICITUD_DISPENSA_ABIERTA" data-entity-2="DISPENSAS_ABIERTO_FINAL" data-source-line="30" data-uid="lnk10" id="link_SOLICITUD_DISPENSA_ABIERTA_DISPENSAS_ABIERTO_FINAL"><path d="M614.33,616.4369 C614.33,718.0169 614.33,847.1169 614.33,912.1369" fill="none" id="SOLICITUD_DISPENSA_ABIERTA-to-DISPENSAS_ABIERTO_FINAL-1" style="stroke:#FF0000;stroke-width:1;"/><polygon fill="#FF0000" points="614.33,918.1369,618.33,909.1369,614.33,913.1369,610.33,909.1369,614.33,918.1369" style="stroke:#FF0000;stroke-width:1;"/><text fill="#000000" font-family="sans-serif" font-size="13" lengthAdjust="spacing" textLength="164.6899" x="91.33" y="814.4866">cerrarSolicitudDispensa()</text><path d="M272.0199,772.2869 L272.0199,847.2869 L609.0199,847.2869 L609.0199,782.2869 L599.0199,772.2869 L272.0199,772.2869" fill="#FEFFDD" style="stroke:#181818;stroke-width:0.5;"/><path d="M599.0199,772.2869 L599.0199,782.2869 L609.0199,782.2869 L599.0199,772.2869" fill="#FEFFDD" style="stroke:#181818;stroke-width:0.5;"/><text fill="#000000" font-family="sans-serif" font-size="13" font-weight="bold" lengthAdjust="spacing" textLength="63.7114" x="288.0199" y="799.3538">CERRAR:</text><text fill="#000000" font-family="sans-serif" font-size="13" font-weight="bold" lengthAdjust="spacing" textLength="112.7598" x="288.0199" y="814.4866">Alumno solicita</text><text fill="#000000" font-family="sans-serif" font-size="13" lengthAdjust="spacing" textLength="104.1016" x="404.912" y="814.4866">salir del detalle.</text><text fill="#000000" font-family="sans-serif" font-size="13" font-weight="bold" lengthAdjust="spacing" textLength="127.1689" x="288.0199" y="829.6194">Sistema descarta</text><text fill="#000000" font-family="sans-serif" font-size="13" lengthAdjust="spacing" textLength="165.5786" x="419.3212" y="829.6194">los cambios introducidos.</text></g><!--link DISPENSAS_ABIERTO_FINAL to *end*--><g class="link" data-entity-1="DISPENSAS_ABIERTO_FINAL" data-entity-2=".end." data-source-line="36" data-uid="lnk12" id="link_DISPENSAS_ABIERTO_FINAL_.end."><path d="M583.17,994.6669 C583.17,1027.7769 583.17,1067.4569 583.17,1088.2169" fill="none" id="DISPENSAS_ABIERTO_FINAL-to-*end*" style="stroke:#0000FF;stroke-width:1;"/><polygon fill="#0000FF" points="583.17,1094.2169,587.17,1085.2169,583.17,1089.2169,579.17,1085.2169,583.17,1094.2169" style="stroke:#0000FF;stroke-width:1;"/></g><!--SRC=[bPJHRfim58RlUOgZx6QRbAsxZQf8BCacf2gjeErDLKMEVKgj61iTcujksbFj4VPYCyGGaXIwvG85yn_xVF_vmKcd41P6sqevHc2DabowIe104DAMg2sBx4xgaX4hG1k15aluSd41lMLYUXUMUwjAQdGl9O8Xzsnw3swO45BdNXvPnnp2CibkLkiipZRnrsILtbvladMoIE8hw7xCmkHCDWdrsVMLbz_UBJUj92ZYjdHOCHdiuLkoxdSmsCF3nqUOFhpB2L4_JkV3DD4mPxz-X6O6l9rLrevg6SRq_aEaZGTH-EJ0wDh-NLItVRcTnwegj6d7oou_R-TWKI7dqcW_zqgpm-m_jLMPj0uB1YNveUjGXifdmp7bS-CpeexgK0keUtXxB3-RCu8iT4Kh8VjWZT_tqbPCoH-Cop-_DRo05pL_9yqEfzuFxTM86tj8vi_UdwTnwOa3HONMqTu0PIm8vkhhAVyhbILI8VsnhVMqD_7uoCC8ztjqFjOtW_RqkRqFqQzenF23UFfgHFTXdq5UCHB_cQxlTt6wZDDPZJQMEC9SrZOIS5PifR5dIMiLdT51E1ArSMP2yHOnHw8Hu92NO-B5Aat_0TZwv9BllNjbpe3zvvGpSkV0KZioek9Ir3Prj4CO7dMhAWnH-0i0]--></g><script xmlns=""/></svg>