<svg xmlns="http://www.w3.org/2000/svg" xmlns:xlink="http://www.w3.org/1999/xlink" contentStyleType="text/css" data-diagram-type="STATE" height="1137px" preserveAspectRatio="none" style="width:937px;height:1137px;background:#FFFFFF;" version="1.1" viewBox="0 0 937 1137" width="937px" zoomAndPan="magnify"><title>Crear solicitud de dispensa</title><defs/><g><g class="title" data-source-line="1"><text fill="#000000" font-family="sans-serif" font-size="14" font-weight="bold" lengthAdjust="spacing" textLength="214.9082" x="351.1682" y="32.9951">Crear solicitud de dispensa</text></g><g id="DISPENSAS_ABIERTO_INICIAL"><rect fill="#F1F1F1" height="76.2969" rx="12.5" ry="12.5" style="stroke:#181818;stroke-width:0.5;" width="187.3623" x="521.5" y="183.2969"/><line style="stroke:#181818;stroke-width:0.5;" x1="521.5" x2="708.8623" y1="229.5938" y2="229.5938"/><text fill="#000000" font-family="sans-serif" font-size="14" lengthAdjust="spacing" textLength="147.3623" x="541.5" y="211.292">DISPENSAS_ABIERTO</text></g><path d="M318.5,359.2969 L911.7446,359.2969 A12.5,12.5 0 0 1 924.2446,371.7969 L924.2446,405.5938 L306,405.5938 L306,371.7969 A12.5,12.5 0 0 1 318.5,359.2969" fill="#F1F1F1"/><rect fill="none" height="272.2969" rx="12.5" ry="12.5" style="stroke:#181818;stroke-width:0.5;" width="618.2446" x="306" y="359.2969"/><line style="stroke:#181818;stroke-width:0.5;" x1="306" x2="924.2446" y1="405.5938" y2="405.5938"/><text fill="#000000" font-family="sans-serif" font-size="14" lengthAdjust="spacing" textLength="219.3516" x="505.4465" y="387.292">SOLICITUD_DISPENSA_ABIERTA</text><g id="SOLICITUD_DISPENSA_ABIERTA.FormularioEdicion"><rect fill="#F1F1F1" height="76.2969" rx="12.5" ry="12.5" style="stroke:#181818;stroke-width:0.5;" width="181.2578" x="318" y="480.0938"/><line style="stroke:#181818;stroke-width:0.5;" x1="318" x2="499.2578" y1="526.3906" y2="526.3906"/><text fill="#000000" font-family="sans-serif" font-size="14" lengthAdjust="spacing" textLength="141.2578" x="338" y="508.0889">Edición de Dispensa</text></g><ellipse cx="408.5" cy="426.5938" fill="#222222" rx="10" ry="10" style="stroke:#222222;stroke-width:1;"/><ellipse cx="408.5" cy="610.5938" fill="none" rx="11" ry="11" style="stroke:#222222;stroke-width:1;"/><ellipse cx="408.5" cy="610.5938" fill="#222222" rx="6" ry="6" style="stroke:#222222;stroke-width:1;"/><g class="entity" data-entity="GMN2" data-source-line="19" data-uid="ent0003" id="entity_GMN2"><path d="M517.5,472.5938 L517.5,514.5938 L499.24,518.5938 L517.5,522.5938 L517.5,563.125 A0,0 0 0 0 517.5,563.125 L915.2446,563.125 A0,0 0 0 0 915.2446,563.125 L915.2446,482.5938 L905.2446,472.5938 L517.5,472.5938 A0,0 0 0 0 517.5,472.5938" fill="#FEFFDD" style="stroke:#181818;stroke-width:0.5;"/><path d="M905.2446,472.5938 L905.2446,482.5938 L915.2446,482.5938 L905.2446,472.5938" fill="#FEFFDD" style="stroke:#181818;stroke-width:0.5;"/><text fill="#000000" font-family="sans-serif" font-size="13" font-weight="bold" lengthAdjust="spacing" textLength="135.5796" x="533.5" y="499.6606">Alumno introduce:</text><text fill="#000000" font-family="sans-serif" font-size="13" lengthAdjust="spacing" textLength="157.5488" x="533.5" y="514.7935">• Motivo de la dispensa.</text><text fill="#000000" font-family="sans-serif" font-size="13" lengthAdjust="spacing" textLength="192.0864" x="533.5" y="529.9263">• Documentación de soporte.</text><text fill="#000000" font-family="sans-serif" font-size="13" font-weight="bold" lengthAdjust="spacing" textLength="184.666" x="533.5" y="545.0591">Sistema permite solicitar</text><text fill="#000000" font-family="sans-serif" font-size="13" lengthAdjust="spacing" textLength="167.9463" x="722.2983" y="545.0591">editarSolicitudDispensa().</text></g><!--link *start*SOLICITUD_DISPENSA_ABIERTA to FormularioEdicion--><g class="link" data-entity-1=".start.SOLICITUD_DISPENSA_ABIERTA" data-entity-2="FormularioEdicion" data-source-line="17" data-uid="lnk6" id="link_.start.SOLICITUD_DISPENSA_ABIERTA_FormularioEdicion"><path d="M408.5,436.7338 C408.5,447.1538 408.5,458.0338 408.5,473.7238" fill="none" id="*start*SOLICITUD_DISPENSA_ABIERTA-to-FormularioEdicion" style="stroke:#008000;stroke-width:1;"/><polygon fill="#008000" points="408.5,479.7238,412.5,470.7238,408.5,474.7238,404.5,470.7238,408.5,479.7238" style="stroke:#008000;stroke-width:1;"/></g><!--link FormularioEdicion to *end*SOLICITUD_DISPENSA_ABIERTA--><g class="link" data-entity-1="FormularioEdicion" data-entity-2=".end.SOLICITUD_DISPENSA_ABIERTA" data-source-line="24" data-uid="lnk8" id="link_FormularioEdicion_.end.SOLICITUD_DISPENSA_ABIERTA"><path d="M408.5,556.2538 C408.5,571.7738 408.5,582.5638 408.5,593.3038" fill="none" id="FormularioEdicion-to-*end*SOLICITUD_DISPENSA_ABIERTA" style="stroke:#008000;stroke-width:1;"/><polygon fill="#008000" points="408.5,599.3038,412.5,590.3038,408.5,594.3038,404.5,590.3038,408.5,599.3038" style="stroke:#008000;stroke-width:1;"/></g><g id="DISPENSAS_ABIERTO_FINAL"><rect fill="#F1F1F1" height="76.2969" rx="12.5" ry="12.5" style="stroke:#181818;stroke-width:0.5;" width="187.3623" x="521.5" y="933.2969"/><line style="stroke:#181818;stroke-width:0.5;" x1="521.5" x2="708.8623" y1="979.5938" y2="979.5938"/><text fill="#000000" font-family="sans-serif" font-size="14" lengthAdjust="spacing" textLength="147.3623" x="541.5" y="961.292">DISPENSAS_ABIERTO</text></g><ellipse cx="615" cy="73.2969" fill="#222222" rx="10" ry="10" style="stroke:#222222;stroke-width:1;"/><ellipse cx="615" cy="1120.2969" fill="none" rx="11" ry="11" style="stroke:#222222;stroke-width:1;"/><ellipse cx="615" cy="1120.2969" fill="#222222" rx="6" ry="6" style="stroke:#222222;stroke-width:1;"/><!--link *start* to DISPENSAS_ABIERTO_INICIAL--><g class="link" data-entity-1=".start." data-entity-2="DISPENSAS_ABIERTO_INICIAL" data-source-line="9" data-uid="lnk3" id="link_.start._DISPENSAS_ABIERTO_INICIAL"><path d="M615,83.4669 C615,103.6469 615,143.6769 615,176.9969" fill="none" id="*start*-to-DISPENSAS_ABIERTO_INICIAL" style="stroke:#008000;stroke-width:1;"/><polygon fill="#008000" points="615,182.9969,619,173.9969,615,177.9969,611,173.9969,615,182.9969" style="stroke:#008000;stroke-width:1;"/></g><!--link DISPENSAS_ABIERTO_INICIAL to SOLICITUD_DISPENSA_ABIERTA--><g class="link" data-entity-1="DISPENSAS_ABIERTO_INICIAL" data-entity-2="SOLICITUD_DISPENSA_ABIERTA" data-source-line="10" data-uid="lnk4" id="link_DISPENSAS_ABIERTO_INICIAL_SOLICITUD_DISPENSA_ABIERTA"><path d="M615,259.3969 C615,285.7169 615,316.4669 615,353.1369" fill="none" id="DISPENSAS_ABIERTO_INICIAL-to-SOLICITUD_DISPENSA_ABIERTA" style="stroke:#008000;stroke-width:1;"/><polygon fill="#008000" points="615,359.1369,619,350.1369,615,354.1369,611,350.1369,615,359.1369" style="stroke:#008000;stroke-width:1;"/><path d="M6,244.2669 L6,304.2669 L429,304.2669 L429,254.2669 L419,244.2669 L6,244.2669" fill="#FEFFDD" style="stroke:#181818;stroke-width:0.5;"/><path d="M419,244.2669 L419,254.2669 L429,254.2669 L419,244.2669" fill="#FEFFDD" style="stroke:#181818;stroke-width:0.5;"/><text fill="#000000" font-family="sans-serif" font-size="13" font-weight="bold" lengthAdjust="spacing" textLength="112.7598" x="22" y="271.3338">Alumno solicita</text><text fill="#000000" font-family="sans-serif" font-size="13" lengthAdjust="spacing" textLength="128.5083" x="138.8921" y="271.3338">crear una dispensa.</text><text fill="#000000" font-family="sans-serif" font-size="13" font-weight="bold" lengthAdjust="spacing" textLength="128.7622" x="22" y="286.4666">Sistema presenta</text><text fill="#000000" font-family="sans-serif" font-size="13" lengthAdjust="spacing" textLength="249.4438" x="154.8945" y="286.4666">el formulario de creación de dispensa.</text><text fill="#000000" font-family="sans-serif" font-size="13" lengthAdjust="spacing" textLength="159.3452" x="445.3384" y="278.9002">crearSolicitudDispensa()</text></g><!--link SOLICITUD_DISPENSA_ABIERTA to DISPENSAS_ABIERTO_FINAL--><g class="link" data-entity-1="SOLICITUD_DISPENSA_ABIERTA" data-entity-2="DISPENSAS_ABIERTO_FINAL" data-source-line="26" data-uid="lnk9" id="link_SOLICITUD_DISPENSA_ABIERTA_DISPENSAS_ABIERTO_FINAL"><path d="M583.83,631.3769 C583.83,734.2769 583.83,862.5069 583.83,927.1769" fill="none" id="SOLICITUD_DISPENSA_ABIERTA-to-DISPENSAS_ABIERTO_FINAL" style="stroke:#008000;stroke-width:1;"/><polygon fill="#008000" points="583.83,933.1769,587.83,924.1769,583.83,928.1769,579.83,924.1769,583.83,933.1769" style="stroke:#008000;stroke-width:1;"/><path d="M94.83,702.2769 L94.83,777.2769 L379.83,777.2769 L379.83,712.2769 L369.83,702.2769 L94.83,702.2769" fill="#FEFFDD" style="stroke:#181818;stroke-width:0.5;"/><path d="M369.83,702.2769 L369.83,712.2769 L379.83,712.2769 L369.83,702.2769" fill="#FEFFDD" style="stroke:#181818;stroke-width:0.5;"/><text fill="#000000" font-family="sans-serif" font-size="13" font-weight="bold" lengthAdjust="spacing" textLength="77.3589" x="110.83" y="729.3438">GUARDAR:</text><text fill="#000000" font-family="sans-serif" font-size="13" font-weight="bold" lengthAdjust="spacing" textLength="112.7598" x="110.83" y="744.4766">Alumno solicita</text><text fill="#000000" font-family="sans-serif" font-size="13" lengthAdjust="spacing" textLength="118.3647" x="227.7221" y="744.4766">registrar cambios.</text><text fill="#000000" font-family="sans-serif" font-size="13" font-weight="bold" lengthAdjust="spacing" textLength="121.5576" x="110.83" y="759.6094">Sistema registra</text><text fill="#000000" font-family="sans-serif" font-size="13" lengthAdjust="spacing" textLength="118.4092" x="236.5199" y="759.6094">la nueva solicitud.</text><text fill="#000000" font-family="sans-serif" font-size="13" lengthAdjust="spacing" textLength="176.9092" x="395.9291" y="744.4766">guardarSolicitudDispensa()</text></g><!--link SOLICITUD_DISPENSA_ABIERTA to DISPENSAS_ABIERTO_FINAL--><g class="link" data-entity-1="SOLICITUD_DISPENSA_ABIERTA" data-entity-2="DISPENSAS_ABIERTO_FINAL" data-source-line="32" data-uid="lnk10" id="link_SOLICITUD_DISPENSA_ABIERTA_DISPENSAS_ABIERTO_FINAL"><path d="M646.17,631.3769 C646.17,734.2769 646.17,862.5069 646.17,927.1769" fill="none" id="SOLICITUD_DISPENSA_ABIERTA-to-DISPENSAS_ABIERTO_FINAL-1" style="stroke:#FF0000;stroke-width:1;"/><polygon fill="#FF0000" points="646.17,933.1769,650.17,924.1769,646.17,928.1769,642.17,924.1769,646.17,933.1769" style="stroke:#FF0000;stroke-width:1;"/><text fill="#000000" font-family="sans-serif" font-size="13" lengthAdjust="spacing" textLength="164.6899" x="141.17" y="829.4766">cerrarSolicitudDispensa()</text><path d="M321.8599,787.2769 L321.8599,862.2769 L640.8599,862.2769 L640.8599,797.2769 L630.8599,787.2769 L321.8599,787.2769" fill="#FEFFDD" style="stroke:#181818;stroke-width:0.5;"/><path d="M630.8599,787.2769 L630.8599,797.2769 L640.8599,797.2769 L630.8599,787.2769" fill="#FEFFDD" style="stroke:#181818;stroke-width:0.5;"/><text fill="#000000" font-family="sans-serif" font-size="13" font-weight="bold" lengthAdjust="spacing" textLength="63.7114" x="337.8599" y="814.3438">CERRAR:</text><text fill="#000000" font-family="sans-serif" font-size="13" font-weight="bold" lengthAdjust="spacing" textLength="112.7598" x="337.8599" y="829.4766">Alumno solicita</text><text fill="#000000" font-family="sans-serif" font-size="13" lengthAdjust="spacing" textLength="126.8325" x="454.752" y="829.4766">salir del formulario.</text><text fill="#000000" font-family="sans-serif" font-size="13" font-weight="bold" lengthAdjust="spacing" textLength="127.1689" x="337.8599" y="844.6094">Sistema descarta</text><text fill="#000000" font-family="sans-serif" font-size="13" lengthAdjust="spacing" textLength="147.2529" x="469.1612" y="844.6094">los datos introducidos.</text></g><!--link DISPENSAS_ABIERTO_FINAL to *end*--><g class="link" data-entity-1="DISPENSAS_ABIERTO_FINAL" data-entity-2=".end." data-source-line="38" data-uid="lnk12" id="link_DISPENSAS_ABIERTO_FINAL_.end."><path d="M615,1009.6669 C615,1042.7769 615,1082.4569 615,1103.2169" fill="none" id="DISPENSAS_ABIERTO_FINAL-to-*end*" style="stroke:#0000FF;stroke-width:1;"/><polygon fill="#0000FF" points="615,1109.2169,619,1100.2169,615,1104.2169,611,1100.2169,615,1109.2169" style="stroke:#0000FF;stroke-width:1;"/></g><!--SRC=[bPJHQjim58Rl_HI7z6OR9EjkGmbuIJeCNLhYzggKe5WdheWicIEvCCPWpx9Ns2FiJVOabHBRqUeuxNnXZFmVwVpV-Mqhh4IO4Z82ewN8XAquS0GkJ8dAiCXiXIePiGAKvcYmX4_dvn0i4rFRUZbObKAX_LOYQBAFEdXnmpWNAdVoo5Xc4MP9UZDVf76wYZydy-NjzIfP9DCaleBsOWO67TcWha-lhvpyzcwsQYIr8cvA-nM3tXukaqNOGMyFznyUO7X_bXEYUXXE-jr4_Jx3-XDknf3vEQNDc6RrYDwzZvHs9YHkB6ZbqMyZt_B5UXBBgb2w6Isx-BYUx7U1Ih5soAD6dWfZiM1GafkqglKeOQEfg2GZeNqs_0QP-FDRXK4PHQWu-4PUdylttNbxsMMxzPox7bt_dlJkkJwXyJdOLRq4tgdVmo2HFpeQcoFlcuaUy0XbIVCgmx4tt0h-_lm5NxKLJplNyYMlHZBJMLLuMct7HfSkzZWAZshH8XN2OZiIsZFc_l78Q0EiVgCkhP25OnFzY4w0FuY7HxEwJ_qOyeeH_y-eVRcBbxDuUK3O4p_2tA4W5y6C5MkXJITzZM8dTzXLXK_iy7iAa9osIiXVCveXqGcVTOh-DJgTBvTly6cO5EJI47uz7QlkZvengYkaDi2PTVSca89xFAtTFX_EwrfMM4VW6G00]--></g><script xmlns=""/></svg>