<svg xmlns="http://www.w3.org/2000/svg" xmlns:xlink="http://www.w3.org/1999/xlink" contentStyleType="text/css" data-diagram-type="STATE" height="1122px" preserveAspectRatio="none" style="width:1136px;height:1122px;background:#FFFFFF;" version="1.1" viewBox="0 0 1136 1122" width="1136px" zoomAndPan="magnify"><title>Editar solicitud de dispensa</title><defs/><g><g class="title" data-source-line="1"><text fill="#000000" font-family="sans-serif" font-size="14" font-weight="bold" lengthAdjust="spacing" textLength="219.3105" x="448.467" y="32.9951">Editar solicitud de dispensa</text></g><g id="DISPENSAS_ABIERTO_INICIAL"><rect fill="#F1F1F1" height="76.2969" rx="12.5" ry="12.5" style="stroke:#181818;stroke-width:0.5;" width="187.3623" x="720.5" y="183.2969"/><line style="stroke:#181818;stroke-width:0.5;" x1="720.5" x2="907.8623" y1="229.5938" y2="229.5938"/><text fill="#000000" font-family="sans-serif" font-size="14" lengthAdjust="spacing" textLength="147.3623" x="740.5" y="211.292">DISPENSAS_ABIERTO</text></g><path d="M517.5,359.2969 L1110.7446,359.2969 A12.5,12.5 0 0 1 1123.2446,371.7969 L1123.2446,405.5938 L505,405.5938 L505,371.7969 A12.5,12.5 0 0 1 517.5,359.2969" fill="#F1F1F1"/><rect fill="none" height="257.2969" rx="12.5" ry="12.5" style="stroke:#181818;stroke-width:0.5;" width="618.2446" x="505" y="359.2969"/><line style="stroke:#181818;stroke-width:0.5;" x1="505" x2="1123.2446" y1="405.5938" y2="405.5938"/><text fill="#000000" font-family="sans-serif" font-size="14" lengthAdjust="spacing" textLength="219.3516" x="704.4465" y="387.292">SOLICITUD_DISPENSA_ABIERTA</text><g id="SOLICITUD_DISPENSA_ABIERTA.FormularioEdicion"><rect fill="#F1F1F1" height="76.2969" rx="12.5" ry="12.5" style="stroke:#181818;stroke-width:0.5;" width="181.2578" x="517" y="472.5938"/><line style="stroke:#181818;stroke-width:0.5;" x1="517" x2="698.2578" y1="518.8906" y2="518.8906"/><text fill="#000000" font-family="sans-serif" font-size="14" lengthAdjust="spacing" textLength="141.2578" x="537" y="500.5889">Edición de Dispensa</text></g><ellipse cx="607.5" cy="426.5938" fill="#222222" rx="10" ry="10" style="stroke:#222222;stroke-width:1;"/><ellipse cx="607.5" cy="595.5938" fill="none" rx="11" ry="11" style="stroke:#222222;stroke-width:1;"/><ellipse cx="607.5" cy="595.5938" fill="#222222" rx="6" ry="6" style="stroke:#222222;stroke-width:1;"/><g class="entity" data-entity="GMN2" data-source-line="19" data-uid="ent0003" id="entity_GMN2"><path d="M716.5,473.0938 L716.5,506.5938 L698.24,510.5938 L716.5,514.5938 L716.5,548.4922 A0,0 0 0 0 716.5,548.4922 L1114.2446,548.4922 A0,0 0 0 0 1114.2446,548.4922 L1114.2446,483.0938 L1104.2446,473.0938 L716.5,473.0938 A0,0 0 0 0 716.5,473.0938" fill="#FEFFDD" style="stroke:#181818;stroke-width:0.5;"/><path d="M1104.2446,473.0938 L1104.2446,483.0938 L1114.2446,483.0938 L1104.2446,473.0938" fill="#FEFFDD" style="stroke:#181818;stroke-width:0.5;"/><text fill="#000000" font-family="sans-serif" font-size="13" font-weight="bold" lengthAdjust="spacing" textLength="249.8374" x="732.5" y="500.1606">Alumno introduce modificaciones:</text><text fill="#000000" font-family="sans-serif" font-size="13" lengthAdjust="spacing" textLength="182.6982" x="732.5" y="515.2935">• Motivos y documentación.</text><text fill="#000000" font-family="sans-serif" font-size="13" font-weight="bold" lengthAdjust="spacing" textLength="184.666" x="732.5" y="530.4263">Sistema permite solicitar</text><text fill="#000000" font-family="sans-serif" font-size="13" lengthAdjust="spacing" textLength="167.9463" x="921.2983" y="530.4263">editarSolicitudDispensa().</text></g><!--link *start*SOLICITUD_DISPENSA_ABIERTA to FormularioEdicion--><g class="link" data-entity-1=".start.SOLICITUD_DISPENSA_ABIERTA" data-entity-2="FormularioEdicion" data-source-line="17" data-uid="lnk6" id="link_.start.SOLICITUD_DISPENSA_ABIERTA_FormularioEdicion"><path d="M607.5,436.8938 C607.5,445.8338 607.5,453.3438 607.5,466.3738" fill="none" id="*start*SOLICITUD_DISPENSA_ABIERTA-to-FormularioEdicion" style="stroke:#008000;stroke-width:1;"/><polygon fill="#008000" points="607.5,472.3738,611.5,463.3738,607.5,467.3738,603.5,463.3738,607.5,472.3738" style="stroke:#008000;stroke-width:1;"/></g><!--link FormularioEdicion to *end*SOLICITUD_DISPENSA_ABIERTA--><g class="link" data-entity-1="FormularioEdicion" data-entity-2=".end.SOLICITUD_DISPENSA_ABIERTA" data-source-line="23" data-uid="lnk8" id="link_FormularioEdicion_.end.SOLICITUD_DISPENSA_ABIERTA"><path d="M607.5,548.6138 C607.5,561.7038 607.5,569.3538 607.5,578.5538" fill="none" id="FormularioEdicion-to-*end*SOLICITUD_DISPENSA_ABIERTA" style="stroke:#008000;stroke-width:1;"/><polygon fill="#008000" points="607.5,584.5538,611.5,575.5538,607.5,579.5538,603.5,575.5538,607.5,584.5538" style="stroke:#008000;stroke-width:1;"/></g><g id="DISPENSAS_ABIERTO_FINAL"><rect fill="#F1F1F1" height="76.2969" rx="12.5" ry="12.5" style="stroke:#181818;stroke-width:0.5;" width="187.3623" x="720.5" y="918.2969"/><line style="stroke:#181818;stroke-width:0.5;" x1="720.5" x2="907.8623" y1="964.5938" y2="964.5938"/><text fill="#000000" font-family="sans-serif" font-size="14" lengthAdjust="spacing" textLength="147.3623" x="740.5" y="946.292">DISPENSAS_ABIERTO</text></g><ellipse cx="814" cy="73.2969" fill="#222222" rx="10" ry="10" style="stroke:#222222;stroke-width:1;"/><ellipse cx="814" cy="1105.2969" fill="none" rx="11" ry="11" style="stroke:#222222;stroke-width:1;"/><ellipse cx="814" cy="1105.2969" fill="#222222" rx="6" ry="6" style="stroke:#222222;stroke-width:1;"/><!--link *start* to DISPENSAS_ABIERTO_INICIAL--><g class="link" data-entity-1=".start." data-entity-2="DISPENSAS_ABIERTO_INICIAL" data-source-line="9" data-uid="lnk3" id="link_.start._DISPENSAS_ABIERTO_INICIAL"><path d="M814,83.4669 C814,103.6469 814,143.6769 814,176.9969" fill="none" id="*start*-to-DISPENSAS_ABIERTO_INICIAL" style="stroke:#008000;stroke-width:1;"/><polygon fill="#008000" points="814,182.9969,818,173.9969,814,177.9969,810,173.9969,814,182.9969" style="stroke:#008000;stroke-width:1;"/></g><!--link DISPENSAS_ABIERTO_INICIAL to SOLICITUD_DISPENSA_ABIERTA--><g class="link" data-entity-1="DISPENSAS_ABIERTO_INICIAL" data-entity-2="SOLICITUD_DISPENSA_ABIERTA" data-source-line="10" data-uid="lnk4" id="link_DISPENSAS_ABIERTO_INICIAL_SOLICITUD_DISPENSA_ABIERTA"><path d="M814,259.4769 C814,285.8869 814,316.6969 814,353.0569" fill="none" id="DISPENSAS_ABIERTO_INICIAL-to-SOLICITUD_DISPENSA_ABIERTA" style="stroke:#008000;stroke-width:1;"/><polygon fill="#008000" points="814,359.0569,818,350.0569,814,354.0569,810,350.0569,814,359.0569" style="stroke:#008000;stroke-width:1;"/><path d="M6,244.2669 L6,304.2669 L429,304.2669 L429,254.2669 L419,244.2669 L6,244.2669" fill="#FEFFDD" style="stroke:#181818;stroke-width:0.5;"/><path d="M419,244.2669 L419,254.2669 L429,254.2669 L419,244.2669" fill="#FEFFDD" style="stroke:#181818;stroke-width:0.5;"/><text fill="#000000" font-family="sans-serif" font-size="13" font-weight="bold" lengthAdjust="spacing" textLength="112.7598" x="22" y="271.3338">Alumno solicita</text><text fill="#000000" font-family="sans-serif" font-size="13" lengthAdjust="spacing" textLength="155.9429" x="138.8921" y="271.3338">gestionar una dispensa.</text><text fill="#000000" font-family="sans-serif" font-size="13" font-weight="bold" lengthAdjust="spacing" textLength="128.7622" x="22" y="286.4666">Sistema presenta</text><text fill="#000000" font-family="sans-serif" font-size="13" lengthAdjust="spacing" textLength="250.0723" x="154.8945" y="286.4666">el formulario detallado de la dispensa.</text><text fill="#000000" font-family="sans-serif" font-size="13" lengthAdjust="spacing" textLength="357.9063" x="445.9668" y="278.9002">crearSolicitudDispensa() / consultarSolicitudDispensa()</text></g><!--link SOLICITUD_DISPENSA_ABIERTA to DISPENSAS_ABIERTO_FINAL--><g class="link" data-entity-1="SOLICITUD_DISPENSA_ABIERTA" data-entity-2="DISPENSAS_ABIERTO_FINAL" data-source-line="25" data-uid="lnk9" id="link_SOLICITUD_DISPENSA_ABIERTA_DISPENSAS_ABIERTO_FINAL"><path d="M782.83,616.4369 C782.83,718.0169 782.83,847.1169 782.83,912.1369" fill="none" id="SOLICITUD_DISPENSA_ABIERTA-to-DISPENSAS_ABIERTO_FINAL" style="stroke:#008000;stroke-width:1;"/><polygon fill="#008000" points="782.83,918.1369,786.83,909.1369,782.83,913.1369,778.83,909.1369,782.83,918.1369" style="stroke:#008000;stroke-width:1;"/><path d="M236.83,687.2869 L236.83,762.2869 L578.83,762.2869 L578.83,697.2869 L568.83,687.2869 L236.83,687.2869" fill="#FEFFDD" style="stroke:#181818;stroke-width:0.5;"/><path d="M568.83,687.2869 L568.83,697.2869 L578.83,697.2869 L568.83,687.2869" fill="#FEFFDD" style="stroke:#181818;stroke-width:0.5;"/><text fill="#000000" font-family="sans-serif" font-size="13" font-weight="bold" lengthAdjust="spacing" textLength="77.3589" x="252.83" y="714.3538">GUARDAR:</text><text fill="#000000" font-family="sans-serif" font-size="13" font-weight="bold" lengthAdjust="spacing" textLength="112.7598" x="252.83" y="729.4866">Alumno solicita</text><text fill="#000000" font-family="sans-serif" font-size="13" lengthAdjust="spacing" textLength="101.9878" x="369.7221" y="729.4866">salvar cambios.</text><text fill="#000000" font-family="sans-serif" font-size="13" font-weight="bold" lengthAdjust="spacing" textLength="121.5576" x="252.83" y="744.6194">Sistema registra</text><text fill="#000000" font-family="sans-serif" font-size="13" lengthAdjust="spacing" textLength="175.4937" x="378.5199" y="744.6194">los cambios de la solicitud.</text><text fill="#000000" font-family="sans-serif" font-size="13" lengthAdjust="spacing" textLength="176.9092" x="595.0136" y="729.4866">guardarSolicitudDispensa()</text></g><!--link SOLICITUD_DISPENSA_ABIERTA to DISPENSAS_ABIERTO_FINAL--><g class="link" data-entity-1="SOLICITUD_DISPENSA_ABIERTA" data-entity-2="DISPENSAS_ABIERTO_FINAL" data-source-line="31" data-uid="lnk10" id="link_SOLICITUD_DISPENSA_ABIERTA_DISPENSAS_ABIERTO_FINAL"><path d="M845.17,616.4369 C845.17,718.0169 845.17,847.1169 845.17,912.1369" fill="none" id="SOLICITUD_DISPENSA_ABIERTA-to-DISPENSAS_ABIERTO_FINAL-1" style="stroke:#FF0000;stroke-width:1;"/><polygon fill="#FF0000" points="845.17,918.1369,849.17,909.1369,845.17,913.1369,841.17,909.1369,845.17,918.1369" style="stroke:#FF0000;stroke-width:1;"/><text fill="#000000" font-family="sans-serif" font-size="13" lengthAdjust="spacing" textLength="164.6899" x="322.17" y="814.4866">cerrarSolicitudDispensa()</text><path d="M502.8599,772.2869 L502.8599,847.2869 L839.8599,847.2869 L839.8599,782.2869 L829.8599,772.2869 L502.8599,772.2869" fill="#FEFFDD" style="stroke:#181818;stroke-width:0.5;"/><path d="M829.8599,772.2869 L829.8599,782.2869 L839.8599,782.2869 L829.8599,772.2869" fill="#FEFFDD" style="stroke:#181818;stroke-width:0.5;"/><text fill="#000000" font-family="sans-serif" font-size="13" font-weight="bold" lengthAdjust="spacing" textLength="63.7114" x="518.8599" y="799.3538">CERRAR:</text><text fill="#000000" font-family="sans-serif" font-size="13" font-weight="bold" lengthAdjust="spacing" textLength="112.7598" x="518.8599" y="814.4866">Alumno solicita</text><text fill="#000000" font-family="sans-serif" font-size="13" lengthAdjust="spacing" textLength="31.4399" x="635.752" y="814.4866">salir.</text><text fill="#000000" font-family="sans-serif" font-size="13" font-weight="bold" lengthAdjust="spacing" textLength="127.1689" x="518.8599" y="829.6194">Sistema descarta</text><text fill="#000000" font-family="sans-serif" font-size="13" lengthAdjust="spacing" textLength="165.5786" x="650.1612" y="829.6194">los cambios introducidos.</text></g><!--link DISPENSAS_ABIERTO_FINAL to *end*--><g class="link" data-entity-1="DISPENSAS_ABIERTO_FINAL" data-entity-2=".end." data-source-line="37" data-uid="lnk12" id="link_DISPENSAS_ABIERTO_FINAL_.end."><path d="M814,994.6669 C814,1027.7769 814,1067.4569 814,1088.2169" fill="none" id="DISPENSAS_ABIERTO_FINAL-to-*end*" style="stroke:#0000FF;stroke-width:1;"/><polygon fill="#0000FF" points="814,1094.2169,818,1085.2169,814,1089.2169,810,1085.2169,814,1094.2169" style="stroke:#0000FF;stroke-width:1;"/></g><!--SRC=[bLJTQjim5BxtKnpIcssGjhiD9U0rwJ1qQR7RgrA2Ofsu8h9aZkH26OCzorvXZx0tsPDCyb-yEKuxNmdfEqVd-v6ji19XoOLb14PBaGfRSk08N9W2bM4Gc9rG1IEMWz8S3HRmyVoylqrCxPhjtguK2krBWQ39FkdUmItZNAZCmGDZcKLOHCdjSfM4oJhy52tZkvjrj8eke_0QkeyPc0nWawO-kRbsyBlxnRg5D8YmBHr7J4Pdk8fM_Gb6PtZuy0ZJXvEC4DNZT3xE9XZdsQy_mcO6AI6ZfFLfqNZqxZsSGQgLAQKzU1mexJXAt5hGoZkp2poZYyqyb6MkT6izkpZRp253OuLMBX6bObqGJjkIH1YBEOE2N1XKKuCIjfhoKZ8IskN7CYaPzokG_HweEFXXNhVkQtLV3RlgMhkefcwsoeng_UkdyfUqN2TLrR-U3EfhGKXaJqwHxO7prlIzH49PqhnC4NBDnLQap0FHp3p_3l_x-m_uegrurWPUWEkqpBr6rPod_QwTYaYvSBEq3b0jP_KY3pZPKz0t6WhJf-ra2Bu5HpJUWwS7ark_WHba9IF-dydwV1_6Yp3UopEIDiFaiujQolADq6QGCiBChQZ6IgTg0soIrVspUi8S9qp8NwER8j4Hjari_gPxkOpZjx4LD23fVgif8piasOPES2zDnt1iT4Tl8qjilFy3]--></g><script xmlns=""/></svg>