<svg xmlns="http://www.w3.org/2000/svg" xmlns:xlink="http://www.w3.org/1999/xlink" contentStyleType="text/css" data-diagram-type="DESCRIPTION" height="423px" preserveAspectRatio="none" style="width:1279px;height:423px;background:#FFFFFF;" version="1.1" viewBox="0 0 1279 423" width="1279px" zoomAndPan="magnify"><defs/><g><!--cluster editarUsuario--><g class="cluster" data-entity="editarUsuario" data-source-line="8" data-uid="ent0004" id="cluster_editarUsuario"><path d="M183,6 L304.5928,6 A3.75,3.75 0 0 1 307.0928,8.5 L314.0928,28.2969 L965,28.2969 A2.5,2.5 0 0 1 967.5,30.7969 L967.5,413.5 A2.5,2.5 0 0 1 965,416 L183,416 A2.5,2.5 0 0 1 180.5,413.5 L180.5,8.5 A2.5,2.5 0 0 1 183,6" fill="none" style="stroke:#000000;stroke-width:1.5;"/><line style="stroke:#000000;stroke-width:1.5;" x1="180.5" x2="314.0928" y1="28.2969" y2="28.2969"/><text fill="#000000" font-family="sans-serif" font-size="14" font-weight="bold" lengthAdjust="spacing" textLength="120.5928" x="184.5" y="20.9951">editarUsuario()</text></g><!--entity EditarUsuarioView--><g class="entity" data-entity="EditarUsuarioView" data-source-line="9" data-uid="ent0005" id="entity_EditarUsuarioView"><rect fill="#629EF9" height="36.2969" rx="2.5" ry="2.5" style="stroke:#181818;stroke-width:0.5;" width="148.1807" x="440.5" y="41"/><text fill="#000000" font-family="sans-serif" font-size="14" lengthAdjust="spacing" textLength="128.1807" x="450.5" y="63.9951">EditarUsuarioView</text></g><!--entity UsuarioController--><g class="entity" data-entity="UsuarioController" data-source-line="10" data-uid="ent0006" id="entity_UsuarioController"><rect fill="#B5BD68" height="36.2969" rx="2.5" ry="2.5" style="stroke:#181818;stroke-width:0.5;" width="142.377" x="323.5" y="154"/><text fill="#000000" font-family="sans-serif" font-size="14" lengthAdjust="spacing" textLength="122.377" x="333.5" y="176.9951">UsuarioController</text></g><!--entity UsuarioRepository--><g class="entity" data-entity="UsuarioRepository" data-source-line="11" data-uid="ent0007" id="entity_UsuarioRepository"><rect fill="#F2AC4E" height="36.2969" rx="2.5" ry="2.5" style="stroke:#181818;stroke-width:0.5;" width="148.2764" x="331.5" y="267"/><text fill="#000000" font-family="sans-serif" font-size="14" lengthAdjust="spacing" textLength="128.2764" x="341.5" y="289.9951">UsuarioRepository</text></g><!--entity Usuario--><g class="entity" data-entity="Usuario" data-source-line="12" data-uid="ent0008" id="entity_Usuario"><rect fill="#F2AC4E" height="36.2969" rx="2.5" ry="2.5" style="stroke:#181818;stroke-width:0.5;" width="73.2041" x="369" y="364"/><text fill="#000000" font-family="sans-serif" font-size="14" lengthAdjust="spacing" textLength="53.2041" x="379" y="386.9951">Usuario</text></g><!--entity UsuarioAbierto--><g class="entity" data-entity="UsuarioAbierto" data-source-line="4" data-uid="ent0002" id="entity_UsuarioAbierto"><rect fill="#CDEBA5" height="36.2969" rx="2.5" ry="2.5" style="stroke:#181818;stroke-width:0.5;" width="157.0059" x="7" y="41"/><text fill="#000000" font-family="sans-serif" font-size="14" lengthAdjust="spacing" textLength="137.0059" x="17" y="63.9951">:USUARIO_ABIERTO</text></g><!--entity ConsultarUsuarioColab--><g class="entity" data-entity="ConsultarUsuarioColab" data-source-line="5" data-uid="ent0003" id="entity_ConsultarUsuarioColab"><rect fill="#CDEBA5" height="36.2969" rx="2.5" ry="2.5" style="stroke:#181818;stroke-width:0.5;" width="242.7695" x="984" y="154"/><text fill="#000000" font-family="sans-serif" font-size="14" lengthAdjust="spacing" textLength="222.7695" x="994" y="176.9951">:Collaboration ConsultarUsuario</text></g><!--link UsuarioAbierto to EditarUsuarioView--><g class="link" data-entity-1="UsuarioAbierto" data-entity-2="EditarUsuarioView" data-source-line="16" data-uid="lnk9" id="link_UsuarioAbierto_EditarUsuarioView"><path d="M164.19,59 C242.92,59 357.13,59 434.26,59" fill="none" id="UsuarioAbierto-to-EditarUsuarioView" style="stroke:#181818;stroke-width:1;"/><polygon fill="#181818" points="440.26,59,431.26,55,435.26,59,431.26,63,440.26,59" style="stroke:#181818;stroke-width:1;"/><text fill="#000000" font-family="sans-serif" font-size="13" lengthAdjust="spacing" textLength="145.9453" x="229.75" y="52.0669">editarUsuario(usuario)</text></g><!--link EditarUsuarioView to UsuarioController--><g class="link" data-entity-1="EditarUsuarioView" data-entity-2="UsuarioController" data-source-line="18" data-uid="lnk10" id="link_EditarUsuarioView_UsuarioController"><path d="M440.48,72.16 C355.74,86.09 228.5,107 228.5,107 C228.5,107 228.5,124 228.5,124 C228.5,124 280.867,138.8252 328.327,152.2652" fill="none" id="EditarUsuarioView-to-UsuarioController" style="stroke:#181818;stroke-width:1;"/><polygon fill="#181818" points="334.1,153.9,326.5304,147.5991,329.2892,152.5376,324.3506,155.2964,334.1,153.9" style="stroke:#181818;stroke-width:1;"/><text fill="#000000" font-family="sans-serif" font-size="13" lengthAdjust="spacing" textLength="336.1147" x="229.5" y="120.0669">validarCambios(username, password, rol) : boolean</text></g><!--link EditarUsuarioView to UsuarioController--><g class="link" data-entity-1="EditarUsuarioView" data-entity-2="UsuarioController" data-source-line="22" data-uid="lnk12" id="link_EditarUsuarioView_UsuarioController"><path d="M535.03,77.23 C551.02,90.65 570.5,107 570.5,107 C570.5,107 570.5,124 570.5,124 C570.5,124 514.6568,138.9117 464.3368,152.3517" fill="none" id="EditarUsuarioView-to-UsuarioController-1" style="stroke:#181818;stroke-width:1;"/><polygon fill="#181818" points="458.54,153.9,468.2674,155.4421,463.3707,152.6098,466.203,147.7131,458.54,153.9" style="stroke:#181818;stroke-width:1;"/><text fill="#000000" font-family="sans-serif" font-size="13" lengthAdjust="spacing" textLength="340.4629" x="571.5" y="120.0669">guardarCambios(username, password, rol) : Usuario</text></g><!--link UsuarioController to UsuarioRepository--><g class="link" data-entity-1="UsuarioController" data-entity-2="UsuarioRepository" data-source-line="20" data-uid="lnk11" id="link_UsuarioController_UsuarioRepository"><path d="M341.01,190.1 C298.98,203.54 247.5,220 247.5,220 C247.5,220 247.5,237 247.5,237 C247.5,237 297.0892,251.7489 342.2592,265.1889" fill="none" id="UsuarioController-to-UsuarioRepository" style="stroke:#181818;stroke-width:1;"/><polygon fill="#181818" points="348.01,266.9,340.5245,260.4994,343.2176,265.4741,338.243,268.1672,348.01,266.9" style="stroke:#181818;stroke-width:1;"/><text fill="#000000" font-family="sans-serif" font-size="13" lengthAdjust="spacing" textLength="249.8755" x="248.5" y="233.0669">verificarUnicidad(username) : boolean</text></g><!--link UsuarioController to UsuarioRepository--><g class="link" data-entity-1="UsuarioController" data-entity-2="UsuarioRepository" data-source-line="24" data-uid="lnk13" id="link_UsuarioController_UsuarioRepository"><path d="M433.8,190.1 C464.68,203.54 502.5,220 502.5,220 C502.5,220 502.5,237 502.5,237 C502.5,237 473.9296,250.8439 446.1896,264.2839" fill="none" id="UsuarioController-to-UsuarioRepository-1" style="stroke:#181818;stroke-width:1;"/><polygon fill="#181818" points="440.79,266.9,450.6335,266.5756,445.2897,264.7199,447.1454,259.3761,440.79,266.9" style="stroke:#181818;stroke-width:1;"/><text fill="#000000" font-family="sans-serif" font-size="13" lengthAdjust="spacing" textLength="184.0947" x="503.5" y="233.0669">actualizar(usuario) : Usuario</text></g><!--link UsuarioRepository to Usuario--><g class="link" data-entity-1="UsuarioRepository" data-entity-2="Usuario" data-source-line="25" data-uid="lnk14" id="link_UsuarioRepository_Usuario"><path d="M405.5,303.42 C405.5,320.57 405.5,346.58 405.5,363.69" fill="none" id="UsuarioRepository-Usuario" style="stroke:#181818;stroke-width:1;"/></g><!--link EditarUsuarioView to ConsultarUsuarioColab--><g class="link" data-entity-1="EditarUsuarioView" data-entity-2="ConsultarUsuarioColab" data-source-line="27" data-uid="lnk15" id="link_EditarUsuarioView_ConsultarUsuarioColab"><path d="M588.97,68.62 C706.18,82.19 920.5,107 920.5,107 C920.5,107 995.4498,132.9282 1050.2498,151.8882" fill="none" id="EditarUsuarioView-to-ConsultarUsuarioColab" style="stroke:#181818;stroke-width:1;stroke-dasharray:7,7;"/><polygon fill="#181818" points="1055.92,153.85,1048.7226,147.1271,1051.1948,152.2152,1046.1068,154.6874,1055.92,153.85" style="stroke:#181818;stroke-width:1;"/><text fill="#000000" font-family="sans-serif" font-size="13" lengthAdjust="spacing" textLength="305.7285" x="965.5" y="120.0669">«include» consultarUsuario(usuarioModificado)</text></g><!--SRC=[ZP9FJyCm3CNl-HJMEC2aROS94AlGfAvq4WS46emhSXipXMLnIL9W8BuxwM1_En2zfB6UV-_PYfigKw356MXboCyBWeBrlBe8SGW96qzldeMbtAEPQ8A3v28Tn2VGYCQtutXqUVqG3oxJqTrr0z31s9Le5SUP8ljBMy9QOyOMlM9JERXIUxG_dGlARZ6qO5RbkS7daZo190q9EWu_mP95WVaK9mGarRgh8ZMsAaVD1dm82Dz6iDDkBnts8DqKtYjwtTLb9vayFODL9EDjc8JihcxOZPFZTAaRKS5EURRpltNYivflgCid5jjBXBPjz-lnekrXZyhliob4JGfj6GYru16ye5OIROApJB4B2B86PzI20frxPIjR4AHDY21ZreH6Y1e5sclsUjZ09giULHw269K75xd2R_7sXDsVTH8g_ykwtEZ_isBkox2ATxIhDMvmQWq1ipQf3z3fzFU_u0ZEpvN9TIcftuTyHxAqlcAvM9pavXS0]--></g></svg>