<svg xmlns="http://www.w3.org/2000/svg" xmlns:xlink="http://www.w3.org/1999/xlink" contentStyleType="text/css" data-diagram-type="DESCRIPTION" height="423px" preserveAspectRatio="none" style="width:876px;height:423px;background:#FFFFFF;" version="1.1" viewBox="0 0 876 423" width="876px" zoomAndPan="magnify"><defs/><g><!--cluster consultarUsuario--><g class="cluster" data-entity="consultarUsuario" data-source-line="9" data-uid="ent0005" id="cluster_consultarUsuario"><path d="M280.5,6 L428.7598,6 A3.75,3.75 0 0 1 431.2598,8.5 L438.2598,28.2969 L574.5,28.2969 A2.5,2.5 0 0 1 577,30.7969 L577,413.5 A2.5,2.5 0 0 1 574.5,416 L280.5,416 A2.5,2.5 0 0 1 278,413.5 L278,8.5 A2.5,2.5 0 0 1 280.5,6" fill="none" style="stroke:#000000;stroke-width:1.5;"/><line style="stroke:#000000;stroke-width:1.5;" x1="278" x2="438.2598" y1="28.2969" y2="28.2969"/><text fill="#000000" font-family="sans-serif" font-size="14" font-weight="bold" lengthAdjust="spacing" textLength="147.2598" x="282" y="20.9951">consultarUsuario()</text></g><!--entity ConsultarUsuarioView--><g class="entity" data-entity="ConsultarUsuarioView" data-source-line="10" data-uid="ent0006" id="entity_ConsultarUsuarioView"><rect fill="#629EF9" height="36.2969" rx="2.5" ry="2.5" style="stroke:#181818;stroke-width:0.5;" width="173.8291" x="341" y="41"/><text fill="#000000" font-family="sans-serif" font-size="14" lengthAdjust="spacing" textLength="153.8291" x="351" y="63.9951">ConsultarUsuarioView</text></g><!--entity UsuarioController--><g class="entity" data-entity="UsuarioController" data-source-line="11" data-uid="ent0007" id="entity_UsuarioController"><rect fill="#B5BD68" height="36.2969" rx="2.5" ry="2.5" style="stroke:#181818;stroke-width:0.5;" width="142.377" x="295" y="154"/><text fill="#000000" font-family="sans-serif" font-size="14" lengthAdjust="spacing" textLength="122.377" x="305" y="176.9951">UsuarioController</text></g><!--entity UsuarioRepository--><g class="entity" data-entity="UsuarioRepository" data-source-line="12" data-uid="ent0008" id="entity_UsuarioRepository"><rect fill="#F2AC4E" height="36.2969" rx="2.5" ry="2.5" style="stroke:#181818;stroke-width:0.5;" width="148.2764" x="294" y="267"/><text fill="#000000" font-family="sans-serif" font-size="14" lengthAdjust="spacing" textLength="128.2764" x="304" y="289.9951">UsuarioRepository</text></g><!--entity Usuario--><g class="entity" data-entity="Usuario" data-source-line="13" data-uid="ent0009" id="entity_Usuario"><rect fill="#F2AC4E" height="36.2969" rx="2.5" ry="2.5" style="stroke:#181818;stroke-width:0.5;" width="73.2041" x="331.5" y="364"/><text fill="#000000" font-family="sans-serif" font-size="14" lengthAdjust="spacing" textLength="53.2041" x="341.5" y="386.9951">Usuario</text></g><!--entity UsuariosAbierto--><g class="entity" data-entity="UsuariosAbierto" data-source-line="4" data-uid="ent0002" id="entity_UsuariosAbierto"><rect fill="#CDEBA5" height="36.2969" rx="2.5" ry="2.5" style="stroke:#181818;stroke-width:0.5;" width="165.8926" x="7" y="41"/><text fill="#000000" font-family="sans-serif" font-size="14" lengthAdjust="spacing" textLength="145.8926" x="17" y="63.9951">:USUARIOS_ABIERTO</text></g><!--entity UsuarioAbierto--><g class="entity" data-entity="UsuarioAbierto" data-source-line="5" data-uid="ent0003" id="entity_UsuarioAbierto"><rect fill="#CDEBA5" height="36.2969" rx="2.5" ry="2.5" style="stroke:#181818;stroke-width:0.5;" width="157.0059" x="706.5" y="41"/><text fill="#000000" font-family="sans-serif" font-size="14" lengthAdjust="spacing" textLength="137.0059" x="716.5" y="63.9951">:USUARIO_ABIERTO</text></g><!--entity EditarUsuarioColab--><g class="entity" data-entity="EditarUsuarioColab" data-source-line="6" data-uid="ent0004" id="entity_EditarUsuarioColab"><rect fill="#CDEBA5" height="36.2969" rx="2.5" ry="2.5" style="stroke:#181818;stroke-width:0.5;" width="217.1211" x="593.5" y="154"/><text fill="#000000" font-family="sans-serif" font-size="14" lengthAdjust="spacing" textLength="197.1211" x="603.5" y="176.9951">:Collaboration EditarUsuario</text></g><!--link UsuariosAbierto to ConsultarUsuarioView--><g class="link" data-entity-1="UsuariosAbierto" data-entity-2="ConsultarUsuarioView" data-source-line="17" data-uid="lnk10" id="link_UsuariosAbierto_ConsultarUsuarioView"><path d="M173.12,59 C224.04,59 283.12,59 334.78,59" fill="none" id="UsuariosAbierto-to-ConsultarUsuarioView" style="stroke:#181818;stroke-width:1;"/><polygon fill="#181818" points="340.78,59,331.78,55,335.78,59,331.78,63,340.78,59" style="stroke:#181818;stroke-width:1;"/><text fill="#000000" font-family="sans-serif" font-size="13" lengthAdjust="spacing" textLength="131.7837" x="191.5" y="52.0669">consultarUsuario(id)</text></g><!--link ConsultarUsuarioView to UsuarioController--><g class="link" data-entity-1="ConsultarUsuarioView" data-entity-2="UsuarioController" data-source-line="19" data-uid="lnk11" id="link_ConsultarUsuarioView_UsuarioController"><path d="M418.31,77.34 C406.66,98.2 390.1663,127.742 378.5463,148.542" fill="none" id="ConsultarUsuarioView-to-UsuarioController" style="stroke:#181818;stroke-width:1;"/><polygon fill="#181818" points="375.62,153.78,383.5014,147.8738,378.0585,149.415,376.5174,143.9721,375.62,153.78" style="stroke:#181818;stroke-width:1;"/><text fill="#000000" font-family="sans-serif" font-size="13" lengthAdjust="spacing" textLength="230.6357" x="401" y="120.0669">obtenerDetalleUsuario(id) : Usuario</text></g><!--link UsuarioController to UsuarioRepository--><g class="link" data-entity-1="UsuarioController" data-entity-2="UsuarioRepository" data-source-line="21" data-uid="lnk12" id="link_UsuarioController_UsuarioRepository"><path d="M366.31,190.34 C366.69,211.2 367.2004,239.981 367.5804,260.781" fill="none" id="UsuarioController-to-UsuarioRepository" style="stroke:#181818;stroke-width:1;"/><polygon fill="#181818" points="367.69,266.78,371.5249,257.7084,367.5987,261.7808,363.5263,257.8546,367.69,266.78" style="stroke:#181818;stroke-width:1;"/><text fill="#000000" font-family="sans-serif" font-size="13" lengthAdjust="spacing" textLength="161.002" x="368" y="233.0669">buscarPorId(id) : Usuario</text></g><!--link UsuarioRepository to Usuario--><g class="link" data-entity-1="UsuarioRepository" data-entity-2="Usuario" data-source-line="22" data-uid="lnk13" id="link_UsuarioRepository_Usuario"><path d="M368,303.42 C368,320.57 368,346.58 368,363.69" fill="none" id="UsuarioRepository-Usuario" style="stroke:#181818;stroke-width:1;"/></g><!--link ConsultarUsuarioView to UsuarioAbierto--><g class="link" data-entity-1="ConsultarUsuarioView" data-entity-2="UsuarioAbierto" data-source-line="24" data-uid="lnk14" id="link_ConsultarUsuarioView_UsuarioAbierto"><path d="M515.33,59 C573.75,59 643.98,59 700.48,59" fill="none" id="ConsultarUsuarioView-to-UsuarioAbierto" style="stroke:#181818;stroke-width:1;"/><polygon fill="#181818" points="706.48,59,697.48,55,701.48,59,697.48,63,706.48,59" style="stroke:#181818;stroke-width:1;"/><text fill="#000000" font-family="sans-serif" font-size="13" lengthAdjust="spacing" textLength="155.708" x="533.25" y="52.0669">mostrarDetalle(usuario)</text></g><!--link ConsultarUsuarioView to EditarUsuarioColab--><g class="link" data-entity-1="ConsultarUsuarioView" data-entity-2="EditarUsuarioColab" data-source-line="26" data-uid="lnk15" id="link_ConsultarUsuarioView_EditarUsuarioColab"><path d="M504.84,77.03 C565.51,90.49 640,107 640,107 C640,107 662.8449,130.5808 681.2149,149.5408" fill="none" id="ConsultarUsuarioView-to-EditarUsuarioColab" style="stroke:#181818;stroke-width:1;stroke-dasharray:7,7;"/><polygon fill="#181818" points="685.39,153.85,682.0002,144.6029,681.9108,150.259,676.2546,150.1696,685.39,153.85" style="stroke:#181818;stroke-width:1;"/><text fill="#000000" font-family="sans-serif" font-size="13" lengthAdjust="spacing" textLength="213.0845" x="655" y="120.0669">«include» editarUsuario(usuario)</text></g><!--SRC=[VL91Ri8m4Bpx5IjwA1p20HNKHYXI247Y18BIQ-KaA-HYlAdjg4LL_rwd1G99Ya_sxipipCfc9rJEDT-350hj8KV8IHxA1sFt496o-6c9QKmjLrk9S1TDuqauX8w_MM_2rNonVWqdytZrlEW0Dx0n1TU2J9W8rBU9RRnRj8Yav0bfRWKfY3DXkJxIVYMkAWxCapB2ahyNQ14ob11nG-xYXX7BURhZMuIKb2baHIoLElLYjzU1BmRkN1WR3PxYsLEveoliYy2FEZGP9jde4SxUbDKk3EewRZO8euVuX5jXJaPOqeVREFPT1ft9uerORV_WQIzejUWtadT5rcEi3GjUvbGQxdsWnA92FKNBNU521_opETRWWLUfLHbzI0gJShqaFSzg6WsmawW6j5lMrP3ZCdpOax6Qd_nsYx_sVwdx_Q3bK_am7WkLoYB3802yx9y5Vm00]--></g></svg>