<svg xmlns="http://www.w3.org/2000/svg" xmlns:xlink="http://www.w3.org/1999/xlink" contentStyleType="text/css" data-diagram-type="STATE" height="1122px" preserveAspectRatio="none" style="width:968px;height:1122px;background:#FFFFFF;" version="1.1" viewBox="0 0 968 1122" width="968px" zoomAndPan="magnify"><title>Consultar Solicitud Dispensa</title><defs/><g><g class="title" data-source-line="1"><text fill="#000000" font-family="sans-serif" font-size="14" font-weight="bold" lengthAdjust="spacing" textLength="226.8438" x="360.7004" y="32.9951">Consultar Solicitud Dispensa</text></g><g id="DISPENSAS_ABIERTO_INICIAL"><rect fill="#F1F1F1" height="76.2969" rx="12.5" ry="12.5" style="stroke:#181818;stroke-width:0.5;" width="187.3623" x="539.5" y="183.2969"/><line style="stroke:#181818;stroke-width:0.5;" x1="539.5" x2="726.8623" y1="229.5938" y2="229.5938"/><text fill="#000000" font-family="sans-serif" font-size="14" lengthAdjust="spacing" textLength="147.3623" x="559.5" y="211.292">DISPENSAS_ABIERTO</text></g><path d="M323.5,359.2969 L942.7446,359.2969 A12.5,12.5 0 0 1 955.2446,371.7969 L955.2446,405.5938 L311,405.5938 L311,371.7969 A12.5,12.5 0 0 1 323.5,359.2969" fill="#F1F1F1"/><rect fill="none" height="257.2969" rx="12.5" ry="12.5" style="stroke:#181818;stroke-width:0.5;" width="644.2446" x="311" y="359.2969"/><line style="stroke:#181818;stroke-width:0.5;" x1="311" x2="955.2446" y1="405.5938" y2="405.5938"/><text fill="#000000" font-family="sans-serif" font-size="14" lengthAdjust="spacing" textLength="219.3516" x="523.4465" y="387.292">SOLICITUD_DISPENSA_ABIERTA</text><g id="SOLICITUD_DISPENSA_ABIERTA_COMP.VisualizacionDetalle"><rect fill="#F1F1F1" height="76.2969" rx="12.5" ry="12.5" style="stroke:#181818;stroke-width:0.5;" width="207.2002" x="323" y="472.5938"/><line style="stroke:#181818;stroke-width:0.5;" x1="323" x2="530.2002" y1="518.8906" y2="518.8906"/><text fill="#000000" font-family="sans-serif" font-size="14" lengthAdjust="spacing" textLength="167.2002" x="343" y="500.5889">Visualización de Detalle</text></g><ellipse cx="426.5" cy="426.5938" fill="#222222" rx="10" ry="10" style="stroke:#222222;stroke-width:1;"/><ellipse cx="426.5" cy="595.5938" fill="none" rx="11" ry="11" style="stroke:#222222;stroke-width:1;"/><ellipse cx="426.5" cy="595.5938" fill="#222222" rx="6" ry="6" style="stroke:#222222;stroke-width:1;"/><g class="entity" data-entity="GMN2" data-source-line="23" data-uid="ent0003" id="entity_GMN2"><path d="M548.5,480.5938 L548.5,506.5938 L530.28,510.5938 L548.5,514.5938 L548.5,540.8594 A0,0 0 0 0 548.5,540.8594 L946.2446,540.8594 A0,0 0 0 0 946.2446,540.8594 L946.2446,490.5938 L936.2446,480.5938 L548.5,480.5938 A0,0 0 0 0 548.5,480.5938" fill="#FEFFDD" style="stroke:#181818;stroke-width:0.5;"/><path d="M936.2446,480.5938 L936.2446,490.5938 L946.2446,490.5938 L936.2446,480.5938" fill="#FEFFDD" style="stroke:#181818;stroke-width:0.5;"/><text fill="#000000" font-family="sans-serif" font-size="13" font-weight="bold" lengthAdjust="spacing" textLength="124.1855" x="564.5" y="507.6606">Sistema muestra</text><text fill="#000000" font-family="sans-serif" font-size="13" lengthAdjust="spacing" textLength="157.168" x="692.8179" y="507.6606">los datos de la solicitud.</text><text fill="#000000" font-family="sans-serif" font-size="13" font-weight="bold" lengthAdjust="spacing" textLength="184.666" x="564.5" y="522.7935">Sistema permite solicitar</text><text fill="#000000" font-family="sans-serif" font-size="13" lengthAdjust="spacing" textLength="167.9463" x="753.2983" y="522.7935">editarSolicitudDispensa().</text></g><!--link *start*SOLICITUD_DISPENSA_ABIERTA_COMP to VisualizacionDetalle--><g class="link" data-entity-1=".start.SOLICITUD_DISPENSA_ABIERTA_COMP" data-entity-2="VisualizacionDetalle" data-source-line="21" data-uid="lnk6" id="link_.start.SOLICITUD_DISPENSA_ABIERTA_COMP_VisualizacionDetalle"><path d="M426.5,436.8938 C426.5,445.8338 426.5,453.3438 426.5,466.3738" fill="none" id="*start*SOLICITUD_DISPENSA_ABIERTA_COMP-to-VisualizacionDetalle" style="stroke:#008000;stroke-width:1;"/><polygon fill="#008000" points="426.5,472.3738,430.5,463.3738,426.5,467.3738,422.5,463.3738,426.5,472.3738" style="stroke:#008000;stroke-width:1;"/></g><!--link VisualizacionDetalle to *end*SOLICITUD_DISPENSA_ABIERTA_COMP--><g class="link" data-entity-1="VisualizacionDetalle" data-entity-2=".end.SOLICITUD_DISPENSA_ABIERTA_COMP" data-source-line="26" data-uid="lnk8" id="link_VisualizacionDetalle_.end.SOLICITUD_DISPENSA_ABIERTA_COMP"><path d="M426.5,548.6138 C426.5,561.7038 426.5,569.3538 426.5,578.5538" fill="none" id="VisualizacionDetalle-to-*end*SOLICITUD_DISPENSA_ABIERTA_COMP" style="stroke:#008000;stroke-width:1;"/><polygon fill="#008000" points="426.5,584.5538,430.5,575.5538,426.5,579.5538,422.5,575.5538,426.5,584.5538" style="stroke:#008000;stroke-width:1;"/></g><g id="DISPENSAS_ABIERTO_FINAL"><rect fill="#F1F1F1" height="76.2969" rx="12.5" ry="12.5" style="stroke:#181818;stroke-width:0.5;" width="187.3623" x="539.5" y="918.2969"/><line style="stroke:#181818;stroke-width:0.5;" x1="539.5" x2="726.8623" y1="964.5938" y2="964.5938"/><text fill="#000000" font-family="sans-serif" font-size="14" lengthAdjust="spacing" textLength="147.3623" x="559.5" y="946.292">DISPENSAS_ABIERTO</text></g><ellipse cx="633" cy="73.2969" fill="#222222" rx="10" ry="10" style="stroke:#222222;stroke-width:1;"/><ellipse cx="633" cy="1105.2969" fill="none" rx="11" ry="11" style="stroke:#222222;stroke-width:1;"/><ellipse cx="633" cy="1105.2969" fill="#222222" rx="6" ry="6" style="stroke:#222222;stroke-width:1;"/><!--link *start* to DISPENSAS_ABIERTO_INICIAL--><g class="link" data-entity-1=".start." data-entity-2="DISPENSAS_ABIERTO_INICIAL" data-source-line="11" data-uid="lnk3" id="link_.start._DISPENSAS_ABIERTO_INICIAL"><path d="M633,83.4669 C633,103.6469 633,143.6769 633,176.9969" fill="none" id="*start*-to-DISPENSAS_ABIERTO_INICIAL" style="stroke:#008000;stroke-width:1;"/><polygon fill="#008000" points="633,182.9969,637,173.9969,633,177.9969,629,173.9969,633,182.9969" style="stroke:#008000;stroke-width:1;"/></g><!--link DISPENSAS_ABIERTO_INICIAL to SOLICITUD_DISPENSA_ABIERTA_COMP--><g class="link" data-entity-1="DISPENSAS_ABIERTO_INICIAL" data-entity-2="SOLICITUD_DISPENSA_ABIERTA_COMP" data-source-line="13" data-uid="lnk4" id="link_DISPENSAS_ABIERTO_INICIAL_SOLICITUD_DISPENSA_ABIERTA_COMP"><path d="M633,259.4769 C633,285.8869 633,316.6969 633,353.0569" fill="none" id="DISPENSAS_ABIERTO_INICIAL-to-SOLICITUD_DISPENSA_ABIERTA_COMP" style="stroke:#008000;stroke-width:1;"/><polygon fill="#008000" points="633,359.0569,637,350.0569,633,354.0569,629,350.0569,633,359.0569" style="stroke:#008000;stroke-width:1;"/><path d="M6,244.2669 L6,304.2669 L420,304.2669 L420,254.2669 L410,244.2669 L6,244.2669" fill="#FEFFDD" style="stroke:#181818;stroke-width:0.5;"/><path d="M410,244.2669 L410,254.2669 L420,254.2669 L410,244.2669" fill="#FEFFDD" style="stroke:#181818;stroke-width:0.5;"/><text fill="#000000" font-family="sans-serif" font-size="13" font-weight="bold" lengthAdjust="spacing" textLength="132.9961" x="22" y="271.3338">Secretaría solicita</text><text fill="#000000" font-family="sans-serif" font-size="13" lengthAdjust="spacing" textLength="236.3042" x="159.1284" y="271.3338">consultar el detalle de una solicitud.</text><text fill="#000000" font-family="sans-serif" font-size="13" font-weight="bold" lengthAdjust="spacing" textLength="128.7622" x="22" y="286.4666">Sistema presenta</text><text fill="#000000" font-family="sans-serif" font-size="13" lengthAdjust="spacing" textLength="158.9326" x="154.8945" y="286.4666">el detalle de la solicitud.</text><text fill="#000000" font-family="sans-serif" font-size="13" lengthAdjust="spacing" textLength="185.9165" x="436.4326" y="278.9002">consultarSolicitudDispensa()</text></g><!--link SOLICITUD_DISPENSA_ABIERTA_COMP to DISPENSAS_ABIERTO_FINAL--><g class="link" data-entity-1="SOLICITUD_DISPENSA_ABIERTA_COMP" data-entity-2="DISPENSAS_ABIERTO_FINAL" data-source-line="29" data-uid="lnk9" id="link_SOLICITUD_DISPENSA_ABIERTA_COMP_DISPENSAS_ABIERTO_FINAL"><path d="M601.83,616.4369 C601.83,718.0169 601.83,847.1169 601.83,912.1369" fill="none" id="SOLICITUD_DISPENSA_ABIERTA_COMP-to-DISPENSAS_ABIERTO_FINAL" style="stroke:#008000;stroke-width:1;"/><polygon fill="#008000" points="601.83,918.1369,605.83,909.1369,601.83,913.1369,597.83,909.1369,601.83,918.1369" style="stroke:#008000;stroke-width:1;"/><path d="M55.83,687.2869 L55.83,762.2869 L397.83,762.2869 L397.83,697.2869 L387.83,687.2869 L55.83,687.2869" fill="#FEFFDD" style="stroke:#181818;stroke-width:0.5;"/><path d="M387.83,687.2869 L387.83,697.2869 L397.83,697.2869 L387.83,687.2869" fill="#FEFFDD" style="stroke:#181818;stroke-width:0.5;"/><text fill="#000000" font-family="sans-serif" font-size="13" font-weight="bold" lengthAdjust="spacing" textLength="77.3589" x="71.83" y="714.3538">GUARDAR:</text><text fill="#000000" font-family="sans-serif" font-size="13" font-weight="bold" lengthAdjust="spacing" textLength="132.9961" x="71.83" y="729.4866">Secretaría solicita</text><text fill="#000000" font-family="sans-serif" font-size="13" lengthAdjust="spacing" textLength="136.4683" x="208.9584" y="729.4866">guardar los cambios.</text><text fill="#000000" font-family="sans-serif" font-size="13" font-weight="bold" lengthAdjust="spacing" textLength="121.5576" x="71.83" y="744.6194">Sistema registra</text><text fill="#000000" font-family="sans-serif" font-size="13" lengthAdjust="spacing" textLength="175.4937" x="197.5199" y="744.6194">los cambios de la solicitud.</text><text fill="#000000" font-family="sans-serif" font-size="13" lengthAdjust="spacing" textLength="176.9092" x="414.0136" y="729.4866">guardarSolicitudDispensa()</text></g><!--link SOLICITUD_DISPENSA_ABIERTA_COMP to DISPENSAS_ABIERTO_FINAL--><g class="link" data-entity-1="SOLICITUD_DISPENSA_ABIERTA_COMP" data-entity-2="DISPENSAS_ABIERTO_FINAL" data-source-line="36" data-uid="lnk10" id="link_SOLICITUD_DISPENSA_ABIERTA_COMP_DISPENSAS_ABIERTO_FINAL"><path d="M664.17,616.4369 C664.17,718.0169 664.17,847.1169 664.17,912.1369" fill="none" id="SOLICITUD_DISPENSA_ABIERTA_COMP-to-DISPENSAS_ABIERTO_FINAL-1" style="stroke:#FF0000;stroke-width:1;"/><polygon fill="#FF0000" points="664.17,918.1369,668.17,909.1369,664.17,913.1369,660.17,909.1369,664.17,918.1369" style="stroke:#FF0000;stroke-width:1;"/><text fill="#000000" font-family="sans-serif" font-size="13" lengthAdjust="spacing" textLength="105.0664" x="217.17" y="814.4866">cerrarSolicitud()</text><path d="M338.2364,772.2869 L338.2364,847.2869 L659.2364,847.2869 L659.2364,782.2869 L649.2364,772.2869 L338.2364,772.2869" fill="#FEFFDD" style="stroke:#181818;stroke-width:0.5;"/><path d="M649.2364,772.2869 L649.2364,782.2869 L659.2364,782.2869 L649.2364,772.2869" fill="#FEFFDD" style="stroke:#181818;stroke-width:0.5;"/><text fill="#000000" font-family="sans-serif" font-size="13" font-weight="bold" lengthAdjust="spacing" textLength="63.7114" x="354.2364" y="799.3538">CERRAR:</text><text fill="#000000" font-family="sans-serif" font-size="13" font-weight="bold" lengthAdjust="spacing" textLength="132.9961" x="354.2364" y="814.4866">Secretaría solicita</text><text fill="#000000" font-family="sans-serif" font-size="13" lengthAdjust="spacing" textLength="104.1016" x="491.3648" y="814.4866">salir del detalle.</text><text fill="#000000" font-family="sans-serif" font-size="13" font-weight="bold" lengthAdjust="spacing" textLength="124.1855" x="354.2364" y="829.6194">Sistema muestra</text><text fill="#000000" font-family="sans-serif" font-size="13" lengthAdjust="spacing" textLength="152.293" x="482.5543" y="829.6194">el listado de dispensas.</text></g><!--link DISPENSAS_ABIERTO_FINAL to *end*--><g class="link" data-entity-1="DISPENSAS_ABIERTO_FINAL" data-entity-2=".end." data-source-line="43" data-uid="lnk12" id="link_DISPENSAS_ABIERTO_FINAL_.end."><path d="M633,994.6669 C633,1027.7769 633,1067.4569 633,1088.2169" fill="none" id="DISPENSAS_ABIERTO_FINAL-to-*end*" style="stroke:#0000FF;stroke-width:1;"/><polygon fill="#0000FF" points="633,1094.2169,637,1085.2169,633,1089.2169,629,1085.2169,633,1094.2169" style="stroke:#0000FF;stroke-width:1;"/></g><!--SRC=[bPF1Zjem48RlVeeHlRILQBTNj49A2QqYRG4bktjPhP29PxCMZXtPpg6j-aWzzH7snUeaJZP0KYW79En_nlFD_sEv5GWB9KqfBDMGAC5JRai68JS5IaE9sNDPK4rpa8gXmG8-NLtrJZML-zDJmINQxmM2qlPPzIusb34kCoSdn5Xg4S8esInNIP1iWy_HChvTRwDLj8Y26sW-rC3aH3FnnSdwncblxy9jA_6AOBjOVzlKnUEQoUW8Nw9LDy3e2EJX_IDC7zva6b4-JkVZA8ICK_ORdCEPGTfwrLdLElNs7P7AmGXyig1aPS6ULDDVx-O9fXfTqSjl2gOffDSVT_FNTe02c9C8bmU6KCfEMB8FNHjkBEOK2ks287sBmq9nK8UIGJKKkT2kd_LBZVQUcv8A_eEcNCdGlr0vqRju-IEhH_tjfAu-DcMeJosijwLvzkpMzJGkEsBFIpHMD-X26M3KLj_7v0EL1UgSkoTR0tIpFiQ7tMnwT1kiVWokfC_gsCalGiwj-RLaEfZQ9lqpo4ggsNz6xUjT48T1FAlWpiRFFr0lCgNvZYjp4ZQD6J_Ok1V-AsqNB40ZEuUVejOz-fRQH-OGUx6CuqkfZVDGk_6xFyu9SpzaJYRSCMMg8cRU0jF77KDmc3jHea_6Nm00]--></g></svg>