<svg xmlns="http://www.w3.org/2000/svg" xmlns:xlink="http://www.w3.org/1999/xlink" contentStyleType="text/css" data-diagram-type="STATE" height="1152px" preserveAspectRatio="none" style="width:882px;height:1152px;background:#FFFFFF;" version="1.1" viewBox="0 0 882 1152" width="882px" zoomAndPan="magnify"><title>Crear Solicitud de Dispensa</title><defs/><g><g class="title" data-source-line="1"><text fill="#000000" font-family="sans-serif" font-size="14" font-weight="bold" lengthAdjust="spacing" textLength="218.2578" x="321.9382" y="32.9951">Crear Solicitud de Dispensa</text></g><g id="DISPENSAS_ABIERTO_INICIAL"><rect fill="#F1F1F1" height="76.2969" rx="12.5" ry="12.5" style="stroke:#181818;stroke-width:0.5;" width="187.3623" x="483.5" y="183.2969"/><line style="stroke:#181818;stroke-width:0.5;" x1="483.5" x2="670.8623" y1="229.5938" y2="229.5938"/><text fill="#000000" font-family="sans-serif" font-size="14" lengthAdjust="spacing" textLength="147.3623" x="503.5" y="211.292">DISPENSAS_ABIERTO</text></g><path d="M297.5,359.2969 L856.6343,359.2969 A12.5,12.5 0 0 1 869.1343,371.7969 L869.1343,405.5938 L285,405.5938 L285,371.7969 A12.5,12.5 0 0 1 297.5,359.2969" fill="#F1F1F1"/><rect fill="none" height="287.2969" rx="12.5" ry="12.5" style="stroke:#181818;stroke-width:0.5;" width="584.1343" x="285" y="359.2969"/><line style="stroke:#181818;stroke-width:0.5;" x1="285" x2="869.1343" y1="405.5938" y2="405.5938"/><text fill="#000000" font-family="sans-serif" font-size="14" lengthAdjust="spacing" textLength="219.3516" x="467.3914" y="387.292">SOLICITUD_DISPENSA_ABIERTA</text><g id="SOLICITUD_DISPENSA_ABIERTA_COMP.CapturaDatos"><rect fill="#F1F1F1" height="76.2969" rx="12.5" ry="12.5" style="stroke:#181818;stroke-width:0.5;" width="163.0469" x="297" y="487.5938"/><line style="stroke:#181818;stroke-width:0.5;" x1="297" x2="460.0469" y1="533.8906" y2="533.8906"/><text fill="#000000" font-family="sans-serif" font-size="14" lengthAdjust="spacing" textLength="123.0469" x="317" y="515.5889">Captura de Datos</text></g><ellipse cx="378.5" cy="426.5938" fill="#222222" rx="10" ry="10" style="stroke:#222222;stroke-width:1;"/><ellipse cx="378.5" cy="625.5938" fill="none" rx="11" ry="11" style="stroke:#222222;stroke-width:1;"/><ellipse cx="378.5" cy="625.5938" fill="#222222" rx="6" ry="6" style="stroke:#222222;stroke-width:1;"/><g class="entity" data-entity="GMN2" data-source-line="23" data-uid="ent0003" id="entity_GMN2"><path d="M478.5,472.5938 L478.5,521.5938 L460.33,525.5938 L478.5,529.5938 L478.5,578.2578 A0,0 0 0 0 478.5,578.2578 L860.1343,578.2578 A0,0 0 0 0 860.1343,578.2578 L860.1343,482.5938 L850.1343,472.5938 L478.5,472.5938 A0,0 0 0 0 478.5,472.5938" fill="#FEFFDD" style="stroke:#181818;stroke-width:0.5;"/><path d="M850.1343,472.5938 L850.1343,482.5938 L860.1343,482.5938 L850.1343,472.5938" fill="#FEFFDD" style="stroke:#181818;stroke-width:0.5;"/><text fill="#000000" font-family="sans-serif" font-size="13" font-weight="bold" lengthAdjust="spacing" textLength="150.6172" x="494.5" y="499.6606">Secretaría introduce</text><text fill="#000000" font-family="sans-serif" font-size="13" lengthAdjust="spacing" textLength="157.4155" x="649.2495" y="499.6606">los datos de la solicitud:</text><text fill="#000000" font-family="sans-serif" font-size="13" lengthAdjust="spacing" textLength="224.7451" x="494.5" y="514.7935">• Nombre/ID, asignatura y motivo.</text><text fill="#000000" font-family="sans-serif" font-size="13" lengthAdjust="spacing" textLength="156.6665" x="494.5" y="529.9263">• Documentos y fechas.</text><text fill="#000000" font-family="sans-serif" font-size="13" font-weight="bold" lengthAdjust="spacing" textLength="121.5576" x="494.5" y="545.0591">Sistema registra</text><text fill="#000000" font-family="sans-serif" font-size="13" lengthAdjust="spacing" textLength="74.1406" x="620.1899" y="545.0591">la solicitud.</text><text fill="#000000" font-family="sans-serif" font-size="13" font-weight="bold" lengthAdjust="spacing" textLength="128.7622" x="494.5" y="560.1919">Sistema presenta</text><text fill="#000000" font-family="sans-serif" font-size="13" lengthAdjust="spacing" textLength="207.7397" x="627.3945" y="560.1919">el detalle de la solicitud creada.</text></g><!--link *start*SOLICITUD_DISPENSA_ABIERTA_COMP to CapturaDatos--><g class="link" data-entity-1=".start.SOLICITUD_DISPENSA_ABIERTA_COMP" data-entity-2="CapturaDatos" data-source-line="21" data-uid="lnk6" id="link_.start.SOLICITUD_DISPENSA_ABIERTA_COMP_CapturaDatos"><path d="M378.5,436.8138 C378.5,448.7738 378.5,463.2537 378.5,481.5438" fill="none" id="*start*SOLICITUD_DISPENSA_ABIERTA_COMP-to-CapturaDatos" style="stroke:#008000;stroke-width:1;"/><polygon fill="#008000" points="378.5,487.5438,382.5,478.5438,378.5,482.5438,374.5,478.5438,378.5,487.5438" style="stroke:#008000;stroke-width:1;"/></g><!--link CapturaDatos to *end*SOLICITUD_DISPENSA_ABIERTA_COMP--><g class="link" data-entity-1="CapturaDatos" data-entity-2=".end.SOLICITUD_DISPENSA_ABIERTA_COMP" data-source-line="29" data-uid="lnk8" id="link_CapturaDatos_.end.SOLICITUD_DISPENSA_ABIERTA_COMP"><path d="M378.5,563.6838 C378.5,581.7938 378.5,596.1038 378.5,608.3638" fill="none" id="CapturaDatos-to-*end*SOLICITUD_DISPENSA_ABIERTA_COMP" style="stroke:#008000;stroke-width:1;"/><polygon fill="#008000" points="378.5,614.3638,382.5,605.3638,378.5,609.3638,374.5,605.3638,378.5,614.3638" style="stroke:#008000;stroke-width:1;"/></g><g id="DISPENSAS_ABIERTO_FINAL"><rect fill="#F1F1F1" height="76.2969" rx="12.5" ry="12.5" style="stroke:#181818;stroke-width:0.5;" width="187.3623" x="483.5" y="948.2969"/><line style="stroke:#181818;stroke-width:0.5;" x1="483.5" x2="670.8623" y1="994.5938" y2="994.5938"/><text fill="#000000" font-family="sans-serif" font-size="14" lengthAdjust="spacing" textLength="147.3623" x="503.5" y="976.292">DISPENSAS_ABIERTO</text></g><ellipse cx="577" cy="73.2969" fill="#222222" rx="10" ry="10" style="stroke:#222222;stroke-width:1;"/><ellipse cx="577" cy="1135.2969" fill="none" rx="11" ry="11" style="stroke:#222222;stroke-width:1;"/><ellipse cx="577" cy="1135.2969" fill="#222222" rx="6" ry="6" style="stroke:#222222;stroke-width:1;"/><!--link *start* to DISPENSAS_ABIERTO_INICIAL--><g class="link" data-entity-1=".start." data-entity-2="DISPENSAS_ABIERTO_INICIAL" data-source-line="11" data-uid="lnk3" id="link_.start._DISPENSAS_ABIERTO_INICIAL"><path d="M577,83.4669 C577,103.6469 577,143.6769 577,176.9969" fill="none" id="*start*-to-DISPENSAS_ABIERTO_INICIAL" style="stroke:#008000;stroke-width:1;"/><polygon fill="#008000" points="577,182.9969,581,173.9969,577,177.9969,573,173.9969,577,182.9969" style="stroke:#008000;stroke-width:1;"/></g><!--link DISPENSAS_ABIERTO_INICIAL to SOLICITUD_DISPENSA_ABIERTA_COMP--><g class="link" data-entity-1="DISPENSAS_ABIERTO_INICIAL" data-entity-2="SOLICITUD_DISPENSA_ABIERTA_COMP" data-source-line="13" data-uid="lnk4" id="link_DISPENSAS_ABIERTO_INICIAL_SOLICITUD_DISPENSA_ABIERTA_COMP"><path d="M577,259.5569 C577,285.7869 577,316.3969 577,353.2569" fill="none" id="DISPENSAS_ABIERTO_INICIAL-to-SOLICITUD_DISPENSA_ABIERTA_COMP" style="stroke:#008000;stroke-width:1;"/><polygon fill="#008000" points="577,359.2569,581,350.2569,577,354.2569,573,350.2569,577,359.2569" style="stroke:#008000;stroke-width:1;"/><path d="M6,244.4069 L6,304.4069 L391,304.4069 L391,254.4069 L381,244.4069 L6,244.4069" fill="#FEFFDD" style="stroke:#181818;stroke-width:0.5;"/><path d="M381,244.4069 L381,254.4069 L391,254.4069 L381,244.4069" fill="#FEFFDD" style="stroke:#181818;stroke-width:0.5;"/><text fill="#000000" font-family="sans-serif" font-size="13" font-weight="bold" lengthAdjust="spacing" textLength="132.9961" x="22" y="271.4738">Secretaría solicita</text><text fill="#000000" font-family="sans-serif" font-size="13" lengthAdjust="spacing" textLength="207.3208" x="159.1284" y="271.4738">crear una solicitud de dispensa.</text><text fill="#000000" font-family="sans-serif" font-size="13" font-weight="bold" lengthAdjust="spacing" textLength="128.7622" x="22" y="286.6066">Sistema presenta</text><text fill="#000000" font-family="sans-serif" font-size="13" lengthAdjust="spacing" textLength="181.6636" x="154.8945" y="286.6066">el formulario de la solicitud.</text><text fill="#000000" font-family="sans-serif" font-size="13" lengthAdjust="spacing" textLength="159.3452" x="407.4492" y="279.0402">crearSolicitudDispensa()</text></g><!--link SOLICITUD_DISPENSA_ABIERTA_COMP to DISPENSAS_ABIERTO_FINAL--><g class="link" data-entity-1="SOLICITUD_DISPENSA_ABIERTA_COMP" data-entity-2="DISPENSAS_ABIERTO_FINAL" data-source-line="32" data-uid="lnk9" id="link_SOLICITUD_DISPENSA_ABIERTA_COMP_DISPENSAS_ABIERTO_FINAL"><path d="M545.83,646.5569 C545.83,750.6669 545.83,877.9569 545.83,942.2469" fill="none" id="SOLICITUD_DISPENSA_ABIERTA_COMP-to-DISPENSAS_ABIERTO_FINAL" style="stroke:#008000;stroke-width:1;"/><polygon fill="#008000" points="545.83,948.2469,549.83,939.2469,545.83,943.2469,541.83,939.2469,545.83,948.2469" style="stroke:#008000;stroke-width:1;"/><path d="M18.83,717.3969 L18.83,792.3969 L341.83,792.3969 L341.83,727.3969 L331.83,717.3969 L18.83,717.3969" fill="#FEFFDD" style="stroke:#181818;stroke-width:0.5;"/><path d="M331.83,717.3969 L331.83,727.3969 L341.83,727.3969 L331.83,717.3969" fill="#FEFFDD" style="stroke:#181818;stroke-width:0.5;"/><text fill="#000000" font-family="sans-serif" font-size="13" font-weight="bold" lengthAdjust="spacing" textLength="77.3589" x="34.83" y="744.4638">GUARDAR:</text><text fill="#000000" font-family="sans-serif" font-size="13" font-weight="bold" lengthAdjust="spacing" textLength="132.9961" x="34.83" y="759.5966">Secretaría solicita</text><text fill="#000000" font-family="sans-serif" font-size="13" lengthAdjust="spacing" textLength="129.6382" x="171.9584" y="759.5966">guardar la solicitud.</text><text fill="#000000" font-family="sans-serif" font-size="13" font-weight="bold" lengthAdjust="spacing" textLength="121.5576" x="34.83" y="774.7294">Sistema registra</text><text fill="#000000" font-family="sans-serif" font-size="13" lengthAdjust="spacing" textLength="156.5205" x="160.5199" y="774.7294">la solicitud de dispensa.</text><text fill="#000000" font-family="sans-serif" font-size="13" lengthAdjust="spacing" textLength="176.9092" x="358.0404" y="759.5966">guardarSolicitudDispensa()</text></g><!--link SOLICITUD_DISPENSA_ABIERTA_COMP to DISPENSAS_ABIERTO_FINAL--><g class="link" data-entity-1="SOLICITUD_DISPENSA_ABIERTA_COMP" data-entity-2="DISPENSAS_ABIERTO_FINAL" data-source-line="39" data-uid="lnk10" id="link_SOLICITUD_DISPENSA_ABIERTA_COMP_DISPENSAS_ABIERTO_FINAL"><path d="M608.17,646.5569 C608.17,750.6669 608.17,877.9569 608.17,942.2469" fill="none" id="SOLICITUD_DISPENSA_ABIERTA_COMP-to-DISPENSAS_ABIERTO_FINAL-1" style="stroke:#FF0000;stroke-width:1;"/><polygon fill="#FF0000" points="608.17,948.2469,612.17,939.2469,608.17,943.2469,604.17,939.2469,608.17,948.2469" style="stroke:#FF0000;stroke-width:1;"/><text fill="#000000" font-family="sans-serif" font-size="13" lengthAdjust="spacing" textLength="164.6899" x="103.17" y="844.5966">cerrarSolicitudDispensa()</text><path d="M283.8599,802.3969 L283.8599,877.3969 L602.8599,877.3969 L602.8599,812.3969 L592.8599,802.3969 L283.8599,802.3969" fill="#FEFFDD" style="stroke:#181818;stroke-width:0.5;"/><path d="M592.8599,802.3969 L592.8599,812.3969 L602.8599,812.3969 L592.8599,802.3969" fill="#FEFFDD" style="stroke:#181818;stroke-width:0.5;"/><text fill="#000000" font-family="sans-serif" font-size="13" font-weight="bold" lengthAdjust="spacing" textLength="63.7114" x="299.8599" y="829.4638">CERRAR:</text><text fill="#000000" font-family="sans-serif" font-size="13" font-weight="bold" lengthAdjust="spacing" textLength="132.9961" x="299.8599" y="844.5966">Secretaría solicita</text><text fill="#000000" font-family="sans-serif" font-size="13" lengthAdjust="spacing" textLength="126.8325" x="436.9884" y="844.5966">salir del formulario.</text><text fill="#000000" font-family="sans-serif" font-size="13" font-weight="bold" lengthAdjust="spacing" textLength="127.1689" x="299.8599" y="859.7294">Sistema descarta</text><text fill="#000000" font-family="sans-serif" font-size="13" lengthAdjust="spacing" textLength="147.2529" x="431.1612" y="859.7294">los datos introducidos.</text></g><!--link DISPENSAS_ABIERTO_FINAL to *end*--><g class="link" data-entity-1="DISPENSAS_ABIERTO_FINAL" data-entity-2=".end." data-source-line="46" data-uid="lnk12" id="link_DISPENSAS_ABIERTO_FINAL_.end."><path d="M577,1024.6669 C577,1057.7769 577,1097.4569 577,1118.2169" fill="none" id="DISPENSAS_ABIERTO_FINAL-to-*end*" style="stroke:#0000FF;stroke-width:1;"/><polygon fill="#0000FF" points="577,1124.2169,581,1115.2169,577,1119.2169,573,1115.2169,577,1124.2169" style="stroke:#0000FF;stroke-width:1;"/></g><!--SRC=[bLJ1Zjem4BtxAonwQQl2RgzeXPGIMaNQmehidbOhPE8XM2HsD7OgeQfIlwNtVaN_PB-aZcCW0L9eJcJotdZUUsECC1dGCG936gjC9CAKd7AWeT05ICs8tWXPC6GvbOg3Xe9-lBrjL979pMar4nBCjW2gqAnLuyC3urp8rC89qOOPUr8KFqocSH0lWa_HPFuuMqJJQ1m5zzGzJDFU2QJdkV7ita8VdyB53k8HmM8y-_hWoDsONkS4dwFfxlpE2SZp-nVQVtwJ8e1ywO-wXH3IhR7Pu9AQ8KsgeFOvxJ9w-uv8PNLai39KoShy3QaclrkEOh0Sm_3FRqPrJMHtDyjHtOgMSb-kS-U-vs3VG6W3EQC5sl2b9qD6LmhpCcCeL4NB6cq612IdrKJaofY-kyDgx9WLfaGMCgEqizuNt59MnPu37vlVf3c0SmH5khQMh4u_dx57I8EAbmauYPazdhiXZkGDz_pNdx_eLELBX9ie_6275QbaRjOjpPKHtzIWXGrLKkRMGzjpIrUGh9aUj8RnLYEazXVMLhUTFOC-3ePRFPczr4TZky2vptKVKFNIShpfgVMO_23aKde7Il_iBQWlqv2c9KF-d-lxvIcOXy5yM8cxkDB-W3EMNMDkU_iFAto5V0H-INm2YF_GxXUrBNuycS-lrQvP9j1AQ5xC4-ts_pjXw1c71Tyjlk1ADvLtgR6Abra9VaN-0W00]--></g></svg>