<svg xmlns="http://www.w3.org/2000/svg" xmlns:xlink="http://www.w3.org/1999/xlink" contentStyleType="text/css" data-diagram-type="STATE" height="1137px" preserveAspectRatio="none" style="width:870px;height:1137px;background:#FFFFFF;" version="1.1" viewBox="0 0 870 1137" width="870px" zoomAndPan="magnify"><title>Editar Solicitud de Dispensa</title><defs/><g><g class="title" data-source-line="1"><text fill="#000000" font-family="sans-serif" font-size="14" font-weight="bold" lengthAdjust="spacing" textLength="222.6602" x="313.7478" y="32.9951">Editar Solicitud de Dispensa</text></g><g id="SOLICITUD_DISPENSA_ABIERTA_INICIAL"><rect fill="#F1F1F1" height="76.2969" rx="12.5" ry="12.5" style="stroke:#181818;stroke-width:0.5;" width="259.3516" x="465.67" y="183.2969"/><line style="stroke:#181818;stroke-width:0.5;" x1="465.67" x2="725.0216" y1="229.5938" y2="229.5938"/><text fill="#000000" font-family="sans-serif" font-size="14" lengthAdjust="spacing" textLength="219.3516" x="485.67" y="211.292">SOLICITUD_DISPENSA_ABIERTA</text></g><path d="M346.17,359.2969 L844.6558,359.2969 A12.5,12.5 0 0 1 857.1558,371.7969 L857.1558,405.5938 L333.67,405.5938 L333.67,371.7969 A12.5,12.5 0 0 1 346.17,359.2969" fill="#F1F1F1"/><rect fill="none" height="272.2969" rx="12.5" ry="12.5" style="stroke:#181818;stroke-width:0.5;" width="523.4858" x="333.67" y="359.2969"/><line style="stroke:#181818;stroke-width:0.5;" x1="333.67" x2="857.1558" y1="405.5938" y2="405.5938"/><text fill="#000000" font-family="sans-serif" font-size="14" lengthAdjust="spacing" textLength="219.3516" x="485.7371" y="387.292">SOLICITUD_DISPENSA_ABIERTA</text><g id="EDICION_SOLICITUD_COMP.EdicionDatos"><rect fill="#F1F1F1" height="76.2969" rx="12.5" ry="12.5" style="stroke:#181818;stroke-width:0.5;" width="157.7559" x="345.67" y="480.0938"/><line style="stroke:#181818;stroke-width:0.5;" x1="345.67" x2="503.4259" y1="526.3906" y2="526.3906"/><text fill="#000000" font-family="sans-serif" font-size="14" lengthAdjust="spacing" textLength="117.7559" x="365.67" y="508.0889">Edición de Datos</text></g><ellipse cx="424.67" cy="426.5938" fill="#222222" rx="10" ry="10" style="stroke:#222222;stroke-width:1;"/><ellipse cx="424.67" cy="610.5938" fill="none" rx="11" ry="11" style="stroke:#222222;stroke-width:1;"/><ellipse cx="424.67" cy="610.5938" fill="#222222" rx="6" ry="6" style="stroke:#222222;stroke-width:1;"/><g class="entity" data-entity="GMN2" data-source-line="23" data-uid="ent0003" id="entity_GMN2"><path d="M521.67,472.5938 L521.67,514.5938 L503.74,518.5938 L521.67,522.5938 L521.67,563.125 A0,0 0 0 0 521.67,563.125 L848.1558,563.125 A0,0 0 0 0 848.1558,563.125 L848.1558,482.5938 L838.1558,472.5938 L521.67,472.5938 A0,0 0 0 0 521.67,472.5938" fill="#FEFFDD" style="stroke:#181818;stroke-width:0.5;"/><path d="M838.1558,472.5938 L838.1558,482.5938 L848.1558,482.5938 L838.1558,472.5938" fill="#FEFFDD" style="stroke:#181818;stroke-width:0.5;"/><text fill="#000000" font-family="sans-serif" font-size="13" font-weight="bold" lengthAdjust="spacing" textLength="124.1855" x="537.67" y="499.6606">Sistema muestra</text><text fill="#000000" font-family="sans-serif" font-size="13" lengthAdjust="spacing" textLength="157.168" x="665.9879" y="499.6606">los datos de la solicitud.</text><text fill="#000000" font-family="sans-serif" font-size="13" font-weight="bold" lengthAdjust="spacing" textLength="150.6172" x="537.67" y="514.7935">Secretaría introduce</text><text fill="#000000" font-family="sans-serif" font-size="13" lengthAdjust="spacing" textLength="124.3696" x="692.4195" y="514.7935">las modificaciones:</text><text fill="#000000" font-family="sans-serif" font-size="13" lengthAdjust="spacing" textLength="175.9253" x="537.67" y="529.9263">• Motivo y documentación.</text><text fill="#000000" font-family="sans-serif" font-size="13" lengthAdjust="spacing" textLength="169.9141" x="537.67" y="545.0591">• Otros campos editables.</text></g><!--link *start*EDICION_SOLICITUD_COMP to EdicionDatos--><g class="link" data-entity-1=".start.EDICION_SOLICITUD_COMP" data-entity-2="EdicionDatos" data-source-line="21" data-uid="lnk6" id="link_.start.EDICION_SOLICITUD_COMP_EdicionDatos"><path d="M424.67,436.7338 C424.67,447.1538 424.67,458.0338 424.67,473.7238" fill="none" id="*start*EDICION_SOLICITUD_COMP-to-EdicionDatos" style="stroke:#008000;stroke-width:1;"/><polygon fill="#008000" points="424.67,479.7238,428.67,470.7238,424.67,474.7238,420.67,470.7238,424.67,479.7238" style="stroke:#008000;stroke-width:1;"/></g><!--link EdicionDatos to *end*EDICION_SOLICITUD_COMP--><g class="link" data-entity-1="EdicionDatos" data-entity-2=".end.EDICION_SOLICITUD_COMP" data-source-line="28" data-uid="lnk8" id="link_EdicionDatos_.end.EDICION_SOLICITUD_COMP"><path d="M424.67,556.2538 C424.67,571.7738 424.67,582.5638 424.67,593.3038" fill="none" id="EdicionDatos-to-*end*EDICION_SOLICITUD_COMP" style="stroke:#008000;stroke-width:1;"/><polygon fill="#008000" points="424.67,599.3038,428.67,590.3038,424.67,594.3038,420.67,590.3038,424.67,599.3038" style="stroke:#008000;stroke-width:1;"/></g><g id="SOLICITUD_DISPENSA_ABIERTA_FINAL"><rect fill="#F1F1F1" height="76.2969" rx="12.5" ry="12.5" style="stroke:#181818;stroke-width:0.5;" width="259.3516" x="465.67" y="933.2969"/><line style="stroke:#181818;stroke-width:0.5;" x1="465.67" x2="725.0216" y1="979.5938" y2="979.5938"/><text fill="#000000" font-family="sans-serif" font-size="14" lengthAdjust="spacing" textLength="219.3516" x="485.67" y="961.292">SOLICITUD_DISPENSA_ABIERTA</text></g><ellipse cx="595.17" cy="73.2969" fill="#222222" rx="10" ry="10" style="stroke:#222222;stroke-width:1;"/><ellipse cx="595.17" cy="1120.2969" fill="none" rx="11" ry="11" style="stroke:#222222;stroke-width:1;"/><ellipse cx="595.17" cy="1120.2969" fill="#222222" rx="6" ry="6" style="stroke:#222222;stroke-width:1;"/><!--link *start* to SOLICITUD_DISPENSA_ABIERTA_INICIAL--><g class="link" data-entity-1=".start." data-entity-2="SOLICITUD_DISPENSA_ABIERTA_INICIAL" data-source-line="11" data-uid="lnk3" id="link_.start._SOLICITUD_DISPENSA_ABIERTA_INICIAL"><path d="M595.17,83.4669 C595.17,103.6469 595.17,143.6769 595.17,176.9969" fill="none" id="*start*-to-SOLICITUD_DISPENSA_ABIERTA_INICIAL" style="stroke:#008000;stroke-width:1;"/><polygon fill="#008000" points="595.17,182.9969,599.17,173.9969,595.17,177.9969,591.17,173.9969,595.17,182.9969" style="stroke:#008000;stroke-width:1;"/></g><!--link SOLICITUD_DISPENSA_ABIERTA_INICIAL to EDICION_SOLICITUD_COMP--><g class="link" data-entity-1="SOLICITUD_DISPENSA_ABIERTA_INICIAL" data-entity-2="EDICION_SOLICITUD_COMP" data-source-line="13" data-uid="lnk4" id="link_SOLICITUD_DISPENSA_ABIERTA_INICIAL_EDICION_SOLICITUD_COMP"><path d="M595.17,259.3969 C595.17,285.7169 595.17,316.4669 595.17,353.1369" fill="none" id="SOLICITUD_DISPENSA_ABIERTA_INICIAL-to-EDICION_SOLICITUD_COMP" style="stroke:#008000;stroke-width:1;"/><polygon fill="#008000" points="595.17,359.1369,599.17,350.1369,595.17,354.1369,591.17,350.1369,595.17,359.1369" style="stroke:#008000;stroke-width:1;"/><path d="M28.17,244.2669 L28.17,304.2669 L405.17,304.2669 L405.17,254.2669 L395.17,244.2669 L28.17,244.2669" fill="#FEFFDD" style="stroke:#181818;stroke-width:0.5;"/><path d="M395.17,244.2669 L395.17,254.2669 L405.17,254.2669 L395.17,244.2669" fill="#FEFFDD" style="stroke:#181818;stroke-width:0.5;"/><text fill="#000000" font-family="sans-serif" font-size="13" font-weight="bold" lengthAdjust="spacing" textLength="132.9961" x="44.17" y="271.3338">Secretaría solicita</text><text fill="#000000" font-family="sans-serif" font-size="13" lengthAdjust="spacing" textLength="198.9229" x="181.2984" y="271.3338">editar la solicitud de dispensa.</text><text fill="#000000" font-family="sans-serif" font-size="13" font-weight="bold" lengthAdjust="spacing" textLength="128.7622" x="44.17" y="286.4666">Sistema presenta</text><text fill="#000000" font-family="sans-serif" font-size="13" lengthAdjust="spacing" textLength="157.168" x="177.0645" y="286.4666">los datos de la solicitud.</text><text fill="#000000" font-family="sans-serif" font-size="13" lengthAdjust="spacing" textLength="163.814" x="421.2213" y="278.9002">editarSolicitudDispensa()</text></g><!--link EDICION_SOLICITUD_COMP to SOLICITUD_DISPENSA_ABIERTA_FINAL--><g class="link" data-entity-1="EDICION_SOLICITUD_COMP" data-entity-2="SOLICITUD_DISPENSA_ABIERTA_FINAL" data-source-line="31" data-uid="lnk9" id="link_EDICION_SOLICITUD_COMP_SOLICITUD_DISPENSA_ABIERTA_FINAL"><path d="M552,631.3769 C552,734.2769 552,862.5069 552,927.1769" fill="none" id="EDICION_SOLICITUD_COMP-to-SOLICITUD_DISPENSA_ABIERTA_FINAL" style="stroke:#008000;stroke-width:1;"/><polygon fill="#008000" points="552,933.1769,556,924.1769,552,928.1769,548,924.1769,552,933.1769" style="stroke:#008000;stroke-width:1;"/><path d="M6,702.2769 L6,777.2769 L348,777.2769 L348,712.2769 L338,702.2769 L6,702.2769" fill="#FEFFDD" style="stroke:#181818;stroke-width:0.5;"/><path d="M338,702.2769 L338,712.2769 L348,712.2769 L338,702.2769" fill="#FEFFDD" style="stroke:#181818;stroke-width:0.5;"/><text fill="#000000" font-family="sans-serif" font-size="13" font-weight="bold" lengthAdjust="spacing" textLength="77.3589" x="22" y="729.3438">GUARDAR:</text><text fill="#000000" font-family="sans-serif" font-size="13" font-weight="bold" lengthAdjust="spacing" textLength="132.9961" x="22" y="744.4766">Secretaría solicita</text><text fill="#000000" font-family="sans-serif" font-size="13" lengthAdjust="spacing" textLength="136.4683" x="159.1284" y="744.4766">guardar los cambios.</text><text fill="#000000" font-family="sans-serif" font-size="13" font-weight="bold" lengthAdjust="spacing" textLength="121.5576" x="22" y="759.6094">Sistema registra</text><text fill="#000000" font-family="sans-serif" font-size="13" lengthAdjust="spacing" textLength="175.4937" x="147.6899" y="759.6094">los cambios de la solicitud.</text><text fill="#000000" font-family="sans-serif" font-size="13" lengthAdjust="spacing" textLength="176.9092" x="364.1836" y="744.4766">guardarSolicitudDispensa()</text></g><!--link EDICION_SOLICITUD_COMP to SOLICITUD_DISPENSA_ABIERTA_FINAL--><g class="link" data-entity-1="EDICION_SOLICITUD_COMP" data-entity-2="SOLICITUD_DISPENSA_ABIERTA_FINAL" data-source-line="38" data-uid="lnk10" id="link_EDICION_SOLICITUD_COMP_SOLICITUD_DISPENSA_ABIERTA_FINAL"><path d="M638.33,631.3769 C638.33,734.2769 638.33,862.5069 638.33,927.1769" fill="none" id="EDICION_SOLICITUD_COMP-to-SOLICITUD_DISPENSA_ABIERTA_FINAL-1" style="stroke:#FF0000;stroke-width:1;"/><polygon fill="#FF0000" points="638.33,933.1769,642.33,924.1769,638.33,928.1769,634.33,924.1769,638.33,933.1769" style="stroke:#FF0000;stroke-width:1;"/><text fill="#000000" font-family="sans-serif" font-size="13" lengthAdjust="spacing" textLength="164.6899" x="115.33" y="829.4766">cerrarSolicitudDispensa()</text><path d="M296.0199,787.2769 L296.0199,862.2769 L633.0199,862.2769 L633.0199,797.2769 L623.0199,787.2769 L296.0199,787.2769" fill="#FEFFDD" style="stroke:#181818;stroke-width:0.5;"/><path d="M623.0199,787.2769 L623.0199,797.2769 L633.0199,797.2769 L623.0199,787.2769" fill="#FEFFDD" style="stroke:#181818;stroke-width:0.5;"/><text fill="#000000" font-family="sans-serif" font-size="13" font-weight="bold" lengthAdjust="spacing" textLength="63.7114" x="312.0199" y="814.3438">CERRAR:</text><text fill="#000000" font-family="sans-serif" font-size="13" font-weight="bold" lengthAdjust="spacing" textLength="132.9961" x="312.0199" y="829.4766">Secretaría solicita</text><text fill="#000000" font-family="sans-serif" font-size="13" lengthAdjust="spacing" textLength="109.6938" x="449.1484" y="829.4766">salir sin guardar.</text><text fill="#000000" font-family="sans-serif" font-size="13" font-weight="bold" lengthAdjust="spacing" textLength="127.1689" x="312.0199" y="844.6094">Sistema descarta</text><text fill="#000000" font-family="sans-serif" font-size="13" lengthAdjust="spacing" textLength="165.5786" x="443.3212" y="844.6094">los cambios introducidos.</text></g><!--link SOLICITUD_DISPENSA_ABIERTA_FINAL to *end*--><g class="link" data-entity-1="SOLICITUD_DISPENSA_ABIERTA_FINAL" data-entity-2=".end." data-source-line="45" data-uid="lnk12" id="link_SOLICITUD_DISPENSA_ABIERTA_FINAL_.end."><path d="M595.17,1009.6669 C595.17,1042.7769 595.17,1082.4569 595.17,1103.2169" fill="none" id="SOLICITUD_DISPENSA_ABIERTA_FINAL-to-*end*" style="stroke:#0000FF;stroke-width:1;"/><polygon fill="#0000FF" points="595.17,1109.2169,599.17,1100.2169,595.17,1104.2169,591.17,1100.2169,595.17,1109.2169" style="stroke:#0000FF;stroke-width:1;"/></g><!--SRC=[bLJBYjim5DthAoxffYqadMx3473Zj1Xcac3Fh8OXADQDHyIMZ2GNXbBejtJVLJzX_cI-f9BiEFQ4FEg5ZQ_EFT8vzzY6cnnXnhYX2XAPyvIRYW532BakKMXAz9QBaYfQW90CDPRm-UggKrLKR0-hEHTedai4gSoJx2miAMDSP1PEY3RK82IBcsWQtTs7gp1AbhDv4go2Bz4ilWjMqTok13T0DGoEmmODqIoqWCLyjKTE5xTBw5oNyPmuqDTeRezpbeSyV7o4uSExJ26An-7a0es4NE13b_A8sZ6WdsOxpDqWttyWGbfrEMuCIE4cj2NEbElr9C5KeMrw-KD1rutq-jDwqd11tfRhSB26SzGIS6sme50gcn3HDETI0wF6tR57CI8e6BZJaDEZ- -7v6mYppLA4dj0Dm1TU_WgVLbSTUFHRwxjz7k1TK3nxiZPi3fVVA2egr4QT5TJjx9Z9XL6ILIdM_VROXMHymrFgDaKzRXjVV_s6MsduTmdFm6HQ5Sv7Bt3K0oqieuQK5gLz-FciSzGrfhNLlVGCwpfY7I8_2JdY-HuvF1tS-biOGrPHnVupSD_kWpWCuh6pvMm8cmsy_LRtcajz43o56U_DgG6UYjvn0nIoY-MdgDG9zKtG-lAdipY-LBscELUWkTZvSA3T_fLJgioXzbtwE7EExOMVLMKjMESLDc7v1m00]--></g></svg>