<svg xmlns="http://www.w3.org/2000/svg" xmlns:xlink="http://www.w3.org/1999/xlink" contentStyleType="text/css" data-diagram-type="STATE" height="1137px" preserveAspectRatio="none" style="width:868px;height:1137px;background:#FFFFFF;" version="1.1" viewBox="0 0 868 1137" width="868px" zoomAndPan="magnify"><title>Exportar Dispensas</title><defs/><g><g class="title" data-source-line="1"><text fill="#000000" font-family="sans-serif" font-size="14" font-weight="bold" lengthAdjust="spacing" textLength="153.4053" x="347.4973" y="32.9951">Exportar Dispensas</text></g><g id="DISPENSAS_ABIERTO_INICIAL"><rect fill="#F1F1F1" height="76.2969" rx="12.5" ry="12.5" style="stroke:#181818;stroke-width:0.5;" width="187.3623" x="448.5" y="183.2969"/><line style="stroke:#181818;stroke-width:0.5;" x1="448.5" x2="635.8623" y1="229.5938" y2="229.5938"/><text fill="#000000" font-family="sans-serif" font-size="14" lengthAdjust="spacing" textLength="147.3623" x="468.5" y="211.292">DISPENSAS_ABIERTO</text></g><path d="M241.5,359.2969 L842.8999,359.2969 A12.5,12.5 0 0 1 855.3999,371.7969 L855.3999,405.5938 L229,405.5938 L229,371.7969 A12.5,12.5 0 0 1 241.5,359.2969" fill="#F1F1F1"/><rect fill="none" height="272.2969" rx="12.5" ry="12.5" style="stroke:#181818;stroke-width:0.5;" width="626.3999" x="229" y="359.2969"/><line style="stroke:#181818;stroke-width:0.5;" x1="229" x2="855.3999" y1="405.5938" y2="405.5938"/><text fill="#000000" font-family="sans-serif" font-size="14" lengthAdjust="spacing" textLength="147.3623" x="468.5188" y="387.292">DISPENSAS_ABIERTO</text><g id="EXPORTACION_COMP.SeleccionParametros"><rect fill="#F1F1F1" height="76.2969" rx="12.5" ry="12.5" style="stroke:#181818;stroke-width:0.5;" width="213.8379" x="241" y="480.0938"/><line style="stroke:#181818;stroke-width:0.5;" x1="241" x2="454.8379" y1="526.3906" y2="526.3906"/><text fill="#000000" font-family="sans-serif" font-size="14" lengthAdjust="spacing" textLength="173.8379" x="261" y="508.0889">Selección de Parámetros</text></g><ellipse cx="348" cy="426.5938" fill="#222222" rx="10" ry="10" style="stroke:#222222;stroke-width:1;"/><ellipse cx="348" cy="610.5938" fill="none" rx="11" ry="11" style="stroke:#222222;stroke-width:1;"/><ellipse cx="348" cy="610.5938" fill="#222222" rx="6" ry="6" style="stroke:#222222;stroke-width:1;"/><g class="entity" data-entity="GMN2" data-source-line="23" data-uid="ent0003" id="entity_GMN2"><path d="M473.5,472.5938 L473.5,514.5938 L455.37,518.5938 L473.5,522.5938 L473.5,563.125 A0,0 0 0 0 473.5,563.125 L846.3999,563.125 A0,0 0 0 0 846.3999,563.125 L846.3999,482.5938 L836.3999,472.5938 L473.5,472.5938 A0,0 0 0 0 473.5,472.5938" fill="#FEFFDD" style="stroke:#181818;stroke-width:0.5;"/><path d="M836.3999,472.5938 L836.3999,482.5938 L846.3999,482.5938 L836.3999,472.5938" fill="#FEFFDD" style="stroke:#181818;stroke-width:0.5;"/><text fill="#000000" font-family="sans-serif" font-size="13" font-weight="bold" lengthAdjust="spacing" textLength="150.6172" x="489.5" y="499.6606">Secretaría introduce</text><text fill="#000000" font-family="sans-serif" font-size="13" lengthAdjust="spacing" textLength="111.5474" x="644.2495" y="499.6606">sus preferencias:</text><text fill="#000000" font-family="sans-serif" font-size="13" lengthAdjust="spacing" textLength="331.8999" x="489.5" y="514.7935">• Filtros (curso, asignatura, nombre, identificador).</text><text fill="#000000" font-family="sans-serif" font-size="13" lengthAdjust="spacing" textLength="207.1748" x="489.5" y="529.9263">• Formato de salida (PDF, CSV).</text><text fill="#000000" font-family="sans-serif" font-size="13" font-weight="bold" lengthAdjust="spacing" textLength="128.7622" x="489.5" y="545.0591">Sistema presenta</text><text fill="#000000" font-family="sans-serif" font-size="13" lengthAdjust="spacing" textLength="133.9673" x="622.3945" y="545.0591">el archivo generado.</text></g><!--link *start*EXPORTACION_COMP to SeleccionParametros--><g class="link" data-entity-1=".start.EXPORTACION_COMP" data-entity-2="SeleccionParametros" data-source-line="21" data-uid="lnk6" id="link_.start.EXPORTACION_COMP_SeleccionParametros"><path d="M348,436.7338 C348,447.1538 348,458.0338 348,473.7238" fill="none" id="*start*EXPORTACION_COMP-to-SeleccionParametros" style="stroke:#008000;stroke-width:1;"/><polygon fill="#008000" points="348,479.7238,352,470.7238,348,474.7238,344,470.7238,348,479.7238" style="stroke:#008000;stroke-width:1;"/></g><!--link SeleccionParametros to *end*EXPORTACION_COMP--><g class="link" data-entity-1="SeleccionParametros" data-entity-2=".end.EXPORTACION_COMP" data-source-line="28" data-uid="lnk8" id="link_SeleccionParametros_.end.EXPORTACION_COMP"><path d="M348,556.2538 C348,571.7738 348,582.5638 348,593.3038" fill="none" id="SeleccionParametros-to-*end*EXPORTACION_COMP" style="stroke:#008000;stroke-width:1;"/><polygon fill="#008000" points="348,599.3038,352,590.3038,348,594.3038,344,590.3038,348,599.3038" style="stroke:#008000;stroke-width:1;"/></g><g id="DISPENSAS_ABIERTO_FINAL"><rect fill="#F1F1F1" height="76.2969" rx="12.5" ry="12.5" style="stroke:#181818;stroke-width:0.5;" width="187.3623" x="448.5" y="933.2969"/><line style="stroke:#181818;stroke-width:0.5;" x1="448.5" x2="635.8623" y1="979.5938" y2="979.5938"/><text fill="#000000" font-family="sans-serif" font-size="14" lengthAdjust="spacing" textLength="147.3623" x="468.5" y="961.292">DISPENSAS_ABIERTO</text></g><ellipse cx="542" cy="73.2969" fill="#222222" rx="10" ry="10" style="stroke:#222222;stroke-width:1;"/><ellipse cx="542" cy="1120.2969" fill="none" rx="11" ry="11" style="stroke:#222222;stroke-width:1;"/><ellipse cx="542" cy="1120.2969" fill="#222222" rx="6" ry="6" style="stroke:#222222;stroke-width:1;"/><!--link *start* to DISPENSAS_ABIERTO_INICIAL--><g class="link" data-entity-1=".start." data-entity-2="DISPENSAS_ABIERTO_INICIAL" data-source-line="11" data-uid="lnk3" id="link_.start._DISPENSAS_ABIERTO_INICIAL"><path d="M542,83.4669 C542,103.6469 542,143.6769 542,176.9969" fill="none" id="*start*-to-DISPENSAS_ABIERTO_INICIAL" style="stroke:#008000;stroke-width:1;"/><polygon fill="#008000" points="542,182.9969,546,173.9969,542,177.9969,538,173.9969,542,182.9969" style="stroke:#008000;stroke-width:1;"/></g><!--link DISPENSAS_ABIERTO_INICIAL to EXPORTACION_COMP--><g class="link" data-entity-1="DISPENSAS_ABIERTO_INICIAL" data-entity-2="EXPORTACION_COMP" data-source-line="13" data-uid="lnk4" id="link_DISPENSAS_ABIERTO_INICIAL_EXPORTACION_COMP"><path d="M542,259.3969 C542,285.7169 542,316.4669 542,353.1369" fill="none" id="DISPENSAS_ABIERTO_INICIAL-to-EXPORTACION_COMP" style="stroke:#008000;stroke-width:1;"/><polygon fill="#008000" points="542,359.1369,546,350.1369,542,354.1369,538,350.1369,542,359.1369" style="stroke:#008000;stroke-width:1;"/><path d="M6,244.2669 L6,304.2669 L383,304.2669 L383,254.2669 L373,244.2669 L6,244.2669" fill="#FEFFDD" style="stroke:#181818;stroke-width:0.5;"/><path d="M373,244.2669 L373,254.2669 L383,254.2669 L373,244.2669" fill="#FEFFDD" style="stroke:#181818;stroke-width:0.5;"/><text fill="#000000" font-family="sans-serif" font-size="13" font-weight="bold" lengthAdjust="spacing" textLength="132.9961" x="22" y="271.3338">Secretaría solicita</text><text fill="#000000" font-family="sans-serif" font-size="13" lengthAdjust="spacing" textLength="151.0361" x="159.1284" y="271.3338">exportar las dispensas.</text><text fill="#000000" font-family="sans-serif" font-size="13" font-weight="bold" lengthAdjust="spacing" textLength="128.7622" x="22" y="286.4666">Sistema presenta</text><text fill="#000000" font-family="sans-serif" font-size="13" lengthAdjust="spacing" textLength="203.7344" x="154.8945" y="286.4666">los parámetros de exportación.</text><text fill="#000000" font-family="sans-serif" font-size="13" lengthAdjust="spacing" textLength="132.1899" x="399.6289" y="278.9002">exportarDispensas()</text></g><!--link EXPORTACION_COMP to DISPENSAS_ABIERTO_FINAL--><g class="link" data-entity-1="EXPORTACION_COMP" data-entity-2="DISPENSAS_ABIERTO_FINAL" data-source-line="31" data-uid="lnk9" id="link_EXPORTACION_COMP_DISPENSAS_ABIERTO_FINAL"><path d="M510.83,631.3769 C510.83,734.2769 510.83,862.5069 510.83,927.1769" fill="none" id="EXPORTACION_COMP-to-DISPENSAS_ABIERTO_FINAL" style="stroke:#008000;stroke-width:1;"/><polygon fill="#008000" points="510.83,933.1769,514.83,924.1769,510.83,928.1769,506.83,924.1769,510.83,933.1769" style="stroke:#008000;stroke-width:1;"/><path d="M30.83,702.2769 L30.83,777.2769 L351.83,777.2769 L351.83,712.2769 L341.83,702.2769 L30.83,702.2769" fill="#FEFFDD" style="stroke:#181818;stroke-width:0.5;"/><path d="M341.83,702.2769 L341.83,712.2769 L351.83,712.2769 L341.83,702.2769" fill="#FEFFDD" style="stroke:#181818;stroke-width:0.5;"/><text fill="#000000" font-family="sans-serif" font-size="13" font-weight="bold" lengthAdjust="spacing" textLength="83.6304" x="46.83" y="729.3438">EXPORTAR:</text><text fill="#000000" font-family="sans-serif" font-size="13" font-weight="bold" lengthAdjust="spacing" textLength="132.9961" x="46.83" y="744.4766">Secretaría solicita</text><text fill="#000000" font-family="sans-serif" font-size="13" lengthAdjust="spacing" textLength="137.0078" x="183.9584" y="744.4766">descargar el archivo.</text><text fill="#000000" font-family="sans-serif" font-size="13" font-weight="bold" lengthAdjust="spacing" textLength="124.1855" x="46.83" y="759.6094">Sistema muestra</text><text fill="#000000" font-family="sans-serif" font-size="13" lengthAdjust="spacing" textLength="152.293" x="175.1479" y="759.6094">el listado de dispensas.</text><text fill="#000000" font-family="sans-serif" font-size="13" lengthAdjust="spacing" textLength="132.1899" x="368.4408" y="744.4766">exportarDispensas()</text></g><!--link EXPORTACION_COMP to DISPENSAS_ABIERTO_FINAL--><g class="link" data-entity-1="EXPORTACION_COMP" data-entity-2="DISPENSAS_ABIERTO_FINAL" data-source-line="38" data-uid="lnk10" id="link_EXPORTACION_COMP_DISPENSAS_ABIERTO_FINAL"><path d="M573.17,631.3769 C573.17,734.2769 573.17,862.5069 573.17,927.1769" fill="none" id="EXPORTACION_COMP-to-DISPENSAS_ABIERTO_FINAL-1" style="stroke:#FF0000;stroke-width:1;"/><polygon fill="#FF0000" points="573.17,933.1769,577.17,924.1769,573.17,928.1769,569.17,924.1769,573.17,933.1769" style="stroke:#FF0000;stroke-width:1;"/><text fill="#000000" font-family="sans-serif" font-size="13" lengthAdjust="spacing" textLength="143.0381" x="51.17" y="829.4766">cancelarExportacion()</text><path d="M210.2081,787.2769 L210.2081,862.2769 L568.2081,862.2769 L568.2081,797.2769 L558.2081,787.2769 L210.2081,787.2769" fill="#FEFFDD" style="stroke:#181818;stroke-width:0.5;"/><path d="M558.2081,787.2769 L558.2081,797.2769 L568.2081,797.2769 L558.2081,787.2769" fill="#FEFFDD" style="stroke:#181818;stroke-width:0.5;"/><text fill="#000000" font-family="sans-serif" font-size="13" font-weight="bold" lengthAdjust="spacing" textLength="82.4561" x="226.2081" y="814.3438">CANCELAR:</text><text fill="#000000" font-family="sans-serif" font-size="13" font-weight="bold" lengthAdjust="spacing" textLength="132.9961" x="226.2081" y="829.4766">Secretaría solicita</text><text fill="#000000" font-family="sans-serif" font-size="13" lengthAdjust="spacing" textLength="156.6538" x="363.3365" y="829.4766">cancelar la exportación.</text><text fill="#000000" font-family="sans-serif" font-size="13" font-weight="bold" lengthAdjust="spacing" textLength="127.1689" x="226.2081" y="844.6094">Sistema descarta</text><text fill="#000000" font-family="sans-serif" font-size="13" lengthAdjust="spacing" textLength="186.5703" x="357.5094" y="844.6094">los parámetros introducidos.</text></g><!--link DISPENSAS_ABIERTO_FINAL to *end*--><g class="link" data-entity-1="DISPENSAS_ABIERTO_FINAL" data-entity-2=".end." data-source-line="45" data-uid="lnk12" id="link_DISPENSAS_ABIERTO_FINAL_.end."><path d="M542,1009.6669 C542,1042.7769 542,1082.4569 542,1103.2169" fill="none" id="DISPENSAS_ABIERTO_FINAL-to-*end*" style="stroke:#0000FF;stroke-width:1;"/><polygon fill="#0000FF" points="542,1109.2169,546,1100.2169,542,1104.2169,538,1100.2169,542,1109.2169" style="stroke:#0000FF;stroke-width:1;"/></g><!--SRC=[bLH1Zjem5Dtx51RTC1NGwHQDa6W8KgGfH6HKLHgDaB4_mSAn8zkfMbMLUfLsFwiUWPlq97L24W8XdPOLsF-z_z_xprXk1M3_Swgq9HhFk4b16cAGsNEP4aqIB1K30ob-UtlREDL4xjkdWakmNrB0Zcwd6XSXOOpBs9KZP2onW6T15FgBQ1gjf-y2V_MmN0UBm0kczvWOt6lTzagO_p5ShXwcNh1ShBtb-n3Ndx_2sjtcmSBrweIXnzTFUFZuAjO0ycauwPuNeMufJOBMv6CCfU-rxVqR99KRLy3MOYLpF_Se5tUtcKH0DRZYmpF1HWbEkILtRpQJcWKBfuLLLACQnus5XE1KkpNA4YEKmMupXny9MEs-CwXeA3_yaYC4ak5y5DJb-zU2_tWPWG1AkP9XlkmZO-vhUUu8ymRXgL-l05zQV8Mcg2iiqJpUEK-sdLLNREBItRACGg7PP2OtOGiQ9EN4Z6lOx-y_yPoBOku-pRHH0pS_ZoMncIO3Dq2oqJ30d3a3-PPJmfI-6PtZbKw8LRbGGmHd1FV3sNo0lUX3ex9h7o0mqNJ7FoaSWmJj6Xn1zHxo7zTyRXhe34NV46hjwbGpl9haurluppoMNLRZNC2B8NN_8PJesANq9BKLqIG3OtNjY737peZSqaQiJycyfbC3Uqab9PA28Dgl0gzafRCCsRbGRxhm_Fj_5LgnkzTuyQGkn1uTwNYFLN8vKsUIkrGvvHkHGHc2Fm00]--></g></svg>