<svg xmlns="http://www.w3.org/2000/svg" xmlns:xlink="http://www.w3.org/1999/xlink" contentStyleType="text/css" data-diagram-type="DESCRIPTION" height="423px" preserveAspectRatio="none" style="width:1010px;height:423px;background:#FFFFFF;" version="1.1" viewBox="0 0 1010 423" width="1010px" zoomAndPan="magnify"><defs/><g><!--cluster iniciarSesion--><g class="cluster" data-entity="iniciarSesion" data-source-line="8" data-uid="ent0004" id="cluster_iniciarSesion"><path d="M177.5,6 L292.6055,6 A3.75,3.75 0 0 1 295.1055,8.5 L302.1055,28.2969 L809.5,28.2969 A2.5,2.5 0 0 1 812,30.7969 L812,413.5 A2.5,2.5 0 0 1 809.5,416 L177.5,416 A2.5,2.5 0 0 1 175,413.5 L175,8.5 A2.5,2.5 0 0 1 177.5,6" fill="none" style="stroke:#000000;stroke-width:1.5;"/><line style="stroke:#000000;stroke-width:1.5;" x1="175" x2="302.1055" y1="28.2969" y2="28.2969"/><text fill="#000000" font-family="sans-serif" font-size="14" font-weight="bold" lengthAdjust="spacing" textLength="114.1055" x="179" y="20.9951">iniciarSesion()</text></g><!--entity LoginView--><g class="entity" data-entity="LoginView" data-source-line="9" data-uid="ent0005" id="entity_LoginView"><rect fill="#629EF9" height="36.2969" rx="2.5" ry="2.5" style="stroke:#181818;stroke-width:0.5;" width="91.5449" x="383" y="41"/><text fill="#000000" font-family="sans-serif" font-size="14" lengthAdjust="spacing" textLength="71.5449" x="393" y="63.9951">LoginView</text></g><!--entity IniciarSesionController--><g class="entity" data-entity="IniciarSesionController" data-source-line="10" data-uid="ent0006" id="entity_IniciarSesionController"><rect fill="#B5BD68" height="36.2969" rx="2.5" ry="2.5" style="stroke:#181818;stroke-width:0.5;" width="178.1084" x="340" y="154"/><text fill="#000000" font-family="sans-serif" font-size="14" lengthAdjust="spacing" textLength="158.1084" x="350" y="176.9951">IniciarSesionController</text></g><!--entity UsuarioRepository--><g class="entity" data-entity="UsuarioRepository" data-source-line="11" data-uid="ent0007" id="entity_UsuarioRepository"><rect fill="#F2AC4E" height="36.2969" rx="2.5" ry="2.5" style="stroke:#181818;stroke-width:0.5;" width="148.2764" x="191" y="267"/><text fill="#000000" font-family="sans-serif" font-size="14" lengthAdjust="spacing" textLength="128.2764" x="201" y="289.9951">UsuarioRepository</text></g><!--entity Usuario--><g class="entity" data-entity="Usuario" data-source-line="12" data-uid="ent0008" id="entity_Usuario"><rect fill="#F2AC4E" height="36.2969" rx="2.5" ry="2.5" style="stroke:#181818;stroke-width:0.5;" width="73.2041" x="228.5" y="364"/><text fill="#000000" font-family="sans-serif" font-size="14" lengthAdjust="spacing" textLength="53.2041" x="238.5" y="386.9951">Usuario</text></g><!--entity Sesion--><g class="entity" data-entity="Sesion" data-source-line="13" data-uid="ent0009" id="entity_Sesion"><rect fill="#F2AC4E" height="36.2969" rx="2.5" ry="2.5" style="stroke:#181818;stroke-width:0.5;" width="66.1221" x="571" y="267"/><text fill="#000000" font-family="sans-serif" font-size="14" lengthAdjust="spacing" textLength="46.1221" x="581" y="289.9951">Sesion</text></g><!--entity NoAuth--><g class="entity" data-entity="NoAuth" data-source-line="4" data-uid="ent0002" id="entity_NoAuth"><rect fill="#CDEBA5" height="36.2969" rx="2.5" ry="2.5" style="stroke:#181818;stroke-width:0.5;" width="151.9678" x="7" y="41"/><text fill="#000000" font-family="sans-serif" font-size="14" lengthAdjust="spacing" textLength="131.9678" x="17" y="63.9951">:SESION_CERRADA</text></g><!--entity Menu--><g class="entity" data-entity="Menu" data-source-line="5" data-uid="ent0003" id="entity_Menu"><rect fill="#CDEBA5" height="36.2969" rx="2.5" ry="2.5" style="stroke:#181818;stroke-width:0.5;" width="176.7822" x="827.5" y="41"/><text fill="#000000" font-family="sans-serif" font-size="14" lengthAdjust="spacing" textLength="156.7822" x="837.5" y="63.9951">:SISTEMA_DISPONIBLE</text></g><!--link NoAuth to LoginView--><g class="link" data-entity-1="NoAuth" data-entity-2="LoginView" data-source-line="17" data-uid="lnk10" id="link_NoAuth_LoginView"><path d="M159.36,59 C227.72,59 319.72,59 376.82,59" fill="none" id="NoAuth-to-LoginView" style="stroke:#181818;stroke-width:1;"/><polygon fill="#181818" points="382.82,59,373.82,55,377.82,59,373.82,63,382.82,59" style="stroke:#181818;stroke-width:1;"/><text fill="#000000" font-family="sans-serif" font-size="13" lengthAdjust="spacing" textLength="92.5044" x="225" y="52.0669">iniciarSesion()</text></g><!--link LoginView to IniciarSesionController--><g class="link" data-entity-1="LoginView" data-entity-2="IniciarSesionController" data-source-line="19" data-uid="lnk11" id="link_LoginView_IniciarSesionController"><path d="M429,77.34 C429,98.2 429,126.98 429,147.78" fill="none" id="LoginView-to-IniciarSesionController" style="stroke:#181818;stroke-width:1;"/><polygon fill="#181818" points="429,153.78,433,144.78,429,148.78,425,144.78,429,153.78" style="stroke:#181818;stroke-width:1;"/><text fill="#000000" font-family="sans-serif" font-size="13" lengthAdjust="spacing" textLength="267.7568" x="430" y="120.0669">autenticar(username, password) : Sesion</text></g><!--link IniciarSesionController to UsuarioRepository--><g class="link" data-entity-1="IniciarSesionController" data-entity-2="UsuarioRepository" data-source-line="21" data-uid="lnk12" id="link_IniciarSesionController_UsuarioRepository"><path d="M354.34,190.03 C295.38,203.49 223,220 223,220 C223,220 223,237 223,237 C223,237 233.6124,248.8757 245.6024,262.2957" fill="none" id="IniciarSesionController-to-UsuarioRepository" style="stroke:#181818;stroke-width:1;"/><polygon fill="#181818" points="249.6,266.77,246.5866,257.3935,246.2687,263.0414,240.6208,262.7235,249.6,266.77" style="stroke:#181818;stroke-width:1;"/><text fill="#000000" font-family="sans-serif" font-size="13" lengthAdjust="spacing" textLength="336.0894" x="224" y="233.0669">validarCredenciales(username, password) : Usuario</text></g><!--link UsuarioRepository to Usuario--><g class="link" data-entity-1="UsuarioRepository" data-entity-2="Usuario" data-source-line="22" data-uid="lnk13" id="link_UsuarioRepository_Usuario"><path d="M265,303.42 C265,320.57 265,346.58 265,363.69" fill="none" id="UsuarioRepository-Usuario" style="stroke:#181818;stroke-width:1;"/></g><!--link IniciarSesionController to Sesion--><g class="link" data-entity-1="IniciarSesionController" data-entity-2="Sesion" data-source-line="24" data-uid="lnk14" id="link_IniciarSesionController_Sesion"><path d="M478.48,190.1 C517.37,203.54 565,220 565,220 C565,220 578.8785,242.7659 590.4285,261.7259" fill="none" id="IniciarSesionController-to-Sesion" style="stroke:#181818;stroke-width:1;"/><polygon fill="#181818" points="593.55,266.85,592.2838,257.0829,590.9488,262.5799,585.4517,261.2448,593.55,266.85" style="stroke:#181818;stroke-width:1;"/><text fill="#000000" font-family="sans-serif" font-size="13" lengthAdjust="spacing" textLength="190.3726" x="575" y="233.0669">crearSesion(usuario) : Sesion</text></g><!--link LoginView to Menu--><g class="link" data-entity-1="LoginView" data-entity-2="Menu" data-source-line="26" data-uid="lnk15" id="link_LoginView_Menu"><path d="M475.25,59 C555.86,59 717.36,59 821.07,59" fill="none" id="LoginView-to-Menu" style="stroke:#181818;stroke-width:1;"/><polygon fill="#181818" points="827.07,59,818.07,55,822.07,59,818.07,63,827.07,59" style="stroke:#181818;stroke-width:1;"/><text fill="#000000" font-family="sans-serif" font-size="13" lengthAdjust="spacing" textLength="220.416" x="541.25" y="52.0669">sistemaDisponible(administrador)</text></g><!--SRC=[VL9RJy8m57xlhpYP3qBYNeWGtOF9s4QoX5kO-aeEsmbMkdQsdKYC_zrD0avmzAazb- -McWsN1MhCGN19TbSG54hiwWTZrn0eQUd3AgOfjIZNWk0g2AEXtmV7Iw8adasNGRHO-A7l01gOAh-qB_zFnybZDF6NOPpCPzDuE8v-DYOaovffZcybMOAC10HeL7M19wDOWUa6rmHSyfIZJiXm9Uj5vq-bqtNWaq5r6jo3tdqqkeUnMdFvp6bxsb_rLzdW3k8cKErOAo58dqwFUdvm6rMYIjHSBQXGXbkbTvVdMhfxClPLMn-9ybMnVNJWQlVXLx479ouPE_R0pQhH5l4UO6b9MfwYxfI6jCISRg10OxPAPrtm3X9O2mAu5VgPMG_UKV0CTQ0f8raj2Z8j18S4pa0gw6Fp8ls-w46gwHX1kLziEcX4KgTNVoaF33UMSWovAPJaAq4TpF8gJMCrPaftlm40]--></g></svg>