<svg xmlns="http://www.w3.org/2000/svg" xmlns:xlink="http://www.w3.org/1999/xlink" contentStyleType="text/css" data-diagram-type="DESCRIPTION" height="423px" preserveAspectRatio="none" style="width:1305px;height:423px;background:#FFFFFF;" version="1.1" viewBox="0 0 1305 423" width="1305px" zoomAndPan="magnify"><defs/><g><!--cluster abrirUsuarios--><g class="cluster" data-entity="abrirUsuarios" data-source-line="10" data-uid="ent0006" id="cluster_abrirUsuarios"><path d="M202,6 L322.6426,6 A3.75,3.75 0 0 1 325.1426,8.5 L332.1426,28.2969 L789,28.2969 A2.5,2.5 0 0 1 791.5,30.7969 L791.5,413.5 A2.5,2.5 0 0 1 789,416 L202,416 A2.5,2.5 0 0 1 199.5,413.5 L199.5,8.5 A2.5,2.5 0 0 1 202,6" fill="none" style="stroke:#000000;stroke-width:1.5;"/><line style="stroke:#000000;stroke-width:1.5;" x1="199.5" x2="332.1426" y1="28.2969" y2="28.2969"/><text fill="#000000" font-family="sans-serif" font-size="14" font-weight="bold" lengthAdjust="spacing" textLength="119.6426" x="203.5" y="20.9951">abrirUsuarios()</text></g><!--entity ListarUsuariosView--><g class="entity" data-entity="ListarUsuariosView" data-source-line="11" data-uid="ent0007" id="entity_ListarUsuariosView"><rect fill="#629EF9" height="36.2969" rx="2.5" ry="2.5" style="stroke:#181818;stroke-width:0.5;" width="152.8359" x="479" y="41"/><text fill="#000000" font-family="sans-serif" font-size="14" lengthAdjust="spacing" textLength="132.8359" x="489" y="63.9951">ListarUsuariosView</text></g><!--entity UsuarioController--><g class="entity" data-entity="UsuarioController" data-source-line="12" data-uid="ent0008" id="entity_UsuarioController"><rect fill="#B5BD68" height="36.2969" rx="2.5" ry="2.5" style="stroke:#181818;stroke-width:0.5;" width="142.377" x="321.5" y="154"/><text fill="#000000" font-family="sans-serif" font-size="14" lengthAdjust="spacing" textLength="122.377" x="331.5" y="176.9951">UsuarioController</text></g><!--entity UsuarioRepository--><g class="entity" data-entity="UsuarioRepository" data-source-line="13" data-uid="ent0009" id="entity_UsuarioRepository"><rect fill="#F2AC4E" height="36.2969" rx="2.5" ry="2.5" style="stroke:#181818;stroke-width:0.5;" width="148.2764" x="319.5" y="267"/><text fill="#000000" font-family="sans-serif" font-size="14" lengthAdjust="spacing" textLength="128.2764" x="329.5" y="289.9951">UsuarioRepository</text></g><!--entity Usuario--><g class="entity" data-entity="Usuario" data-source-line="14" data-uid="ent0010" id="entity_Usuario"><rect fill="#F2AC4E" height="36.2969" rx="2.5" ry="2.5" style="stroke:#181818;stroke-width:0.5;" width="73.2041" x="357" y="364"/><text fill="#000000" font-family="sans-serif" font-size="14" lengthAdjust="spacing" textLength="53.2041" x="367" y="386.9951">Usuario</text></g><!--entity Menu--><g class="entity" data-entity="Menu" data-source-line="4" data-uid="ent0002" id="entity_Menu"><rect fill="#CDEBA5" height="36.2969" rx="2.5" ry="2.5" style="stroke:#181818;stroke-width:0.5;" width="176.7822" x="7" y="41"/><text fill="#000000" font-family="sans-serif" font-size="14" lengthAdjust="spacing" textLength="156.7822" x="17" y="63.9951">:SISTEMA_DISPONIBLE</text></g><!--entity UsuariosAbierto--><g class="entity" data-entity="UsuariosAbierto" data-source-line="5" data-uid="ent0003" id="entity_UsuariosAbierto"><rect fill="#CDEBA5" height="36.2969" rx="2.5" ry="2.5" style="stroke:#181818;stroke-width:0.5;" width="165.8926" x="807.5" y="41"/><text fill="#000000" font-family="sans-serif" font-size="14" lengthAdjust="spacing" textLength="145.8926" x="817.5" y="63.9951">:USUARIOS_ABIERTO</text></g><!--entity CrearUsuarioColab--><g class="entity" data-entity="CrearUsuarioColab" data-source-line="6" data-uid="ent0004" id="entity_CrearUsuarioColab"><rect fill="#CDEBA5" height="36.2969" rx="2.5" ry="2.5" style="stroke:#181818;stroke-width:0.5;" width="214.1543" x="807.5" y="154"/><text fill="#000000" font-family="sans-serif" font-size="14" lengthAdjust="spacing" textLength="194.1543" x="817.5" y="176.9951">:Collaboration CrearUsuario</text></g><!--entity ConsultarUsuarioColab--><g class="entity" data-entity="ConsultarUsuarioColab" data-source-line="7" data-uid="ent0005" id="entity_ConsultarUsuarioColab"><rect fill="#CDEBA5" height="36.2969" rx="2.5" ry="2.5" style="stroke:#181818;stroke-width:0.5;" width="242.7695" x="1057" y="154"/><text fill="#000000" font-family="sans-serif" font-size="14" lengthAdjust="spacing" textLength="222.7695" x="1067" y="176.9951">:Collaboration ConsultarUsuario</text></g><!--link Menu to ListarUsuariosView--><g class="link" data-entity-1="Menu" data-entity-2="ListarUsuariosView" data-source-line="18" data-uid="lnk11" id="link_Menu_ListarUsuariosView"><path d="M184.19,59 C269.69,59 391.73,59 472.91,59" fill="none" id="Menu-to-ListarUsuariosView" style="stroke:#181818;stroke-width:1;"/><polygon fill="#181818" points="478.91,59,469.91,55,473.91,59,469.91,63,478.91,59" style="stroke:#181818;stroke-width:1;"/><text fill="#000000" font-family="sans-serif" font-size="13" lengthAdjust="spacing" textLength="96.8398" x="283.5" y="52.0669">abrirUsuarios()</text></g><!--link ListarUsuariosView to UsuarioController--><g class="link" data-entity-1="ListarUsuariosView" data-entity-2="UsuarioController" data-source-line="20" data-uid="lnk12" id="link_ListarUsuariosView_UsuarioController"><path d="M478.86,72.6 C394.14,86.52 269.5,107 269.5,107 C269.5,107 269.5,124 269.5,124 C269.5,124 306.9753,138.3182 342.1453,151.7582" fill="none" id="ListarUsuariosView-to-UsuarioController" style="stroke:#181818;stroke-width:1;"/><polygon fill="#181818" points="347.75,153.9,340.7708,146.9508,343.0794,152.1152,337.9151,154.4238,347.75,153.9" style="stroke:#181818;stroke-width:1;"/><text fill="#000000" font-family="sans-serif" font-size="13" lengthAdjust="spacing" textLength="205.2832" x="270.5" y="120.0669">listarUsuarios() : List&lt;Usuario&gt;</text></g><!--link ListarUsuariosView to UsuarioController--><g class="link" data-entity-1="ListarUsuariosView" data-entity-2="UsuarioController" data-source-line="25" data-uid="lnk15" id="link_ListarUsuariosView_UsuarioController"><path d="M535.4,77.15 C513.19,96.11 480.5,124 480.5,124 C480.5,124 455.1717,137.5219 430.0617,150.9419" fill="none" id="ListarUsuariosView-to-UsuarioController-1" style="stroke:#181818;stroke-width:1;"/><polygon fill="#181818" points="424.77,153.77,434.5929,153.0556,429.1797,151.4132,430.8221,146,424.77,153.77" style="stroke:#181818;stroke-width:1;"/><text fill="#000000" font-family="sans-serif" font-size="13" lengthAdjust="spacing" textLength="254.541" x="499.5" y="120.0669">filtrarUsuarios(criterio) : List&lt;Usuario&gt;</text></g><!--link UsuarioController to UsuarioRepository--><g class="link" data-entity-1="UsuarioController" data-entity-2="UsuarioRepository" data-source-line="22" data-uid="lnk13" id="link_UsuarioController_UsuarioRepository"><path d="M339.74,190.1 C298.28,203.54 247.5,220 247.5,220 C247.5,220 247.5,237 247.5,237 C247.5,237 292.9186,251.6214 334.6686,265.0614" fill="none" id="UsuarioController-to-UsuarioRepository" style="stroke:#181818;stroke-width:1;"/><polygon fill="#181818" points="340.38,266.9,333.0387,260.3346,335.6205,265.3679,330.5872,267.9497,340.38,266.9" style="stroke:#181818;stroke-width:1;"/><text fill="#000000" font-family="sans-serif" font-size="13" lengthAdjust="spacing" textLength="206.4575" x="248.5" y="233.0669">obtenerTodos() : List&lt;Usuario&gt;</text></g><!--link UsuarioController to UsuarioRepository--><g class="link" data-entity-1="UsuarioController" data-entity-2="UsuarioRepository" data-source-line="26" data-uid="lnk16" id="link_UsuarioController_UsuarioRepository"><path d="M417.07,190.23 C436.19,203.65 459.5,220 459.5,220 C459.5,220 459.5,237 459.5,237 C459.5,237 441.427,249.869 422.587,263.289" fill="none" id="UsuarioController-to-UsuarioRepository-1" style="stroke:#181818;stroke-width:1;"/><polygon fill="#181818" points="417.7,266.77,427.3511,264.8064,421.7725,263.8691,422.7097,258.2905,417.7,266.77" style="stroke:#181818;stroke-width:1;"/><text fill="#000000" font-family="sans-serif" font-size="13" lengthAdjust="spacing" textLength="275.7104" x="460.5" y="233.0669">buscarPorCriterio(criterio) : List&lt;Usuario&gt;</text></g><!--link UsuarioRepository to Usuario--><g class="link" data-entity-1="UsuarioRepository" data-entity-2="Usuario" data-source-line="23" data-uid="lnk14" id="link_UsuarioRepository_Usuario"><path d="M393.5,303.42 C393.5,320.57 393.5,346.58 393.5,363.69" fill="none" id="UsuarioRepository-Usuario" style="stroke:#181818;stroke-width:1;"/></g><!--link ListarUsuariosView to UsuariosAbierto--><g class="link" data-entity-1="ListarUsuariosView" data-entity-2="UsuariosAbierto" data-source-line="28" data-uid="lnk17" id="link_ListarUsuariosView_UsuariosAbierto"><path d="M632.36,59 C684.61,59 747.7,59 801.26,59" fill="none" id="ListarUsuariosView-to-UsuariosAbierto" style="stroke:#181818;stroke-width:1;"/><polygon fill="#181818" points="807.26,59,798.26,55,802.26,59,798.26,63,807.26,59" style="stroke:#181818;stroke-width:1;"/><text fill="#000000" font-family="sans-serif" font-size="13" lengthAdjust="spacing" textLength="103.8477" x="668.25" y="52.0669">presentarLista()</text></g><!--link ListarUsuariosView to CrearUsuarioColab--><g class="link" data-entity-1="ListarUsuariosView" data-entity-2="CrearUsuarioColab" data-source-line="31" data-uid="lnk18" id="link_ListarUsuariosView_CrearUsuarioColab"><path d="M630.52,77.03 C689.76,90.49 762.5,107 762.5,107 C762.5,107 823.2102,132.5617 868.2402,151.5217" fill="none" id="ListarUsuariosView-to-CrearUsuarioColab" style="stroke:#181818;stroke-width:1;stroke-dasharray:7,7;"/><polygon fill="#181818" points="873.77,153.85,867.0275,146.6709,869.1618,151.9097,863.9231,154.044,873.77,153.85" style="stroke:#181818;stroke-width:1;"/><text fill="#000000" font-family="sans-serif" font-size="13" lengthAdjust="spacing" textLength="160.4878" x="799.5" y="120.0669">«include» crearUsuario()</text></g><!--link ListarUsuariosView to ConsultarUsuarioColab--><g class="link" data-entity-1="ListarUsuariosView" data-entity-2="ConsultarUsuarioColab" data-source-line="32" data-uid="lnk19" id="link_ListarUsuariosView_ConsultarUsuarioColab"><path d="M632.21,68.73 C751.65,82.32 968.5,107 968.5,107 C968.5,107 1054.5506,133.2208 1116.7606,152.1808" fill="none" id="ListarUsuariosView-to-ConsultarUsuarioColab" style="stroke:#181818;stroke-width:1;stroke-dasharray:7,7;"/><polygon fill="#181818" points="1122.5,153.93,1115.0571,147.4799,1117.7172,152.4723,1112.7248,155.1324,1122.5,153.93" style="stroke:#181818;stroke-width:1;"/><text fill="#000000" font-family="sans-serif" font-size="13" lengthAdjust="spacing" textLength="198.9229" x="1019.5" y="120.0669">«include» consultarUsuario(id)</text></g><!--SRC=[ZPF1Rjim38RlUWeYEomvf8TYBLOZCE2e3c2WRG8xsRMGRQxGgaaU9MCBXZt5dcJFq1Uhd2MDQplTV9Bfdnz_MgHzbBeI9Bw2aXhTjaAeZDesBuoz1swqmn_ECCB22VsW4DxnwtWUNS0eo99i7Tz6zzT9jbhU9VERU0J2mYtgUb2_oJPHcYop-sYUnEbwkLDlR2r86Xlb4kb48MwK4haXuQJHm0a5xTDsY7R0IqN-Fn2ZRQrS1zG9_eNvtx0Itsfq22KguC8QV_363Qj4yIWU44HEyf1a6zBeLMGy6S5F1lvf6RiylueNLt0ZxR6W_IJnUrUON-JbvKTuyQGT-LQGkhh5USG_n0TTYfMnqXdQlgrZlve65wh-ObXpSp2bQJZWAe1EIuprHJ0jVNBFQU27goqTJo3ObPZj8o5ZlIIO7b77PW8mkKEDj3Rb8AYNuJallGvQ7dRyMIf7BSi5IOV-TBBYlvtdjIq4hGpnFUiDwA1JEd8F-n90HMXHU-qkexaNlxRBD8qvJvv-tmMG-Vby-YDArA3yTABr9T4uwOt1R2PreUeImn0AGnvL6LrApqCxPE7iBEolM_0Qq_hitPo23ArQ1zIHZ6KvUGO0]--></g></svg>