<svg xmlns="http://www.w3.org/2000/svg" xmlns:xlink="http://www.w3.org/1999/xlink" contentStyleType="text/css" data-diagram-type="DESCRIPTION" height="423px" preserveAspectRatio="none" style="width:1269px;height:423px;background:#FFFFFF;" version="1.1" viewBox="0 0 1269 423" width="1269px" zoomAndPan="magnify"><defs/><g><!--cluster crearUsuario--><g class="cluster" data-entity="crearUsuario" data-source-line="8" data-uid="ent0004" id="cluster_crearUsuario"><path d="M191.5,6 L306.7832,6 A3.75,3.75 0 0 1 309.2832,8.5 L316.2832,28.2969 L984.5,28.2969 A2.5,2.5 0 0 1 987,30.7969 L987,413.5 A2.5,2.5 0 0 1 984.5,416 L191.5,416 A2.5,2.5 0 0 1 189,413.5 L189,8.5 A2.5,2.5 0 0 1 191.5,6" fill="none" style="stroke:#000000;stroke-width:1.5;"/><line style="stroke:#000000;stroke-width:1.5;" x1="189" x2="316.2832" y1="28.2969" y2="28.2969"/><text fill="#000000" font-family="sans-serif" font-size="14" font-weight="bold" lengthAdjust="spacing" textLength="114.2832" x="193" y="20.9951">crearUsuario()</text></g><!--entity CrearUsuarioView--><g class="entity" data-entity="CrearUsuarioView" data-source-line="9" data-uid="ent0005" id="entity_CrearUsuarioView"><rect fill="#629EF9" height="36.2969" rx="2.5" ry="2.5" style="stroke:#181818;stroke-width:0.5;" width="145.2139" x="441.5" y="41"/><text fill="#000000" font-family="sans-serif" font-size="14" lengthAdjust="spacing" textLength="125.2139" x="451.5" y="63.9951">CrearUsuarioView</text></g><!--entity UsuarioController--><g class="entity" data-entity="UsuarioController" data-source-line="10" data-uid="ent0006" id="entity_UsuarioController"><rect fill="#B5BD68" height="36.2969" rx="2.5" ry="2.5" style="stroke:#181818;stroke-width:0.5;" width="142.377" x="332" y="154"/><text fill="#000000" font-family="sans-serif" font-size="14" lengthAdjust="spacing" textLength="122.377" x="342" y="176.9951">UsuarioController</text></g><!--entity UsuarioRepository--><g class="entity" data-entity="UsuarioRepository" data-source-line="11" data-uid="ent0007" id="entity_UsuarioRepository"><rect fill="#F2AC4E" height="36.2969" rx="2.5" ry="2.5" style="stroke:#181818;stroke-width:0.5;" width="148.2764" x="340" y="267"/><text fill="#000000" font-family="sans-serif" font-size="14" lengthAdjust="spacing" textLength="128.2764" x="350" y="289.9951">UsuarioRepository</text></g><!--entity Usuario--><g class="entity" data-entity="Usuario" data-source-line="12" data-uid="ent0008" id="entity_Usuario"><rect fill="#F2AC4E" height="36.2969" rx="2.5" ry="2.5" style="stroke:#181818;stroke-width:0.5;" width="73.2041" x="377.5" y="364"/><text fill="#000000" font-family="sans-serif" font-size="14" lengthAdjust="spacing" textLength="53.2041" x="387.5" y="386.9951">Usuario</text></g><!--entity UsuariosAbierto--><g class="entity" data-entity="UsuariosAbierto" data-source-line="4" data-uid="ent0002" id="entity_UsuariosAbierto"><rect fill="#CDEBA5" height="36.2969" rx="2.5" ry="2.5" style="stroke:#181818;stroke-width:0.5;" width="165.8926" x="7" y="41"/><text fill="#000000" font-family="sans-serif" font-size="14" lengthAdjust="spacing" textLength="145.8926" x="17" y="63.9951">:USUARIOS_ABIERTO</text></g><!--entity ConsultarUsuario--><g class="entity" data-entity="ConsultarUsuario" data-source-line="5" data-uid="ent0003" id="entity_ConsultarUsuario"><rect fill="#CDEBA5" height="36.2969" rx="2.5" ry="2.5" style="stroke:#181818;stroke-width:0.5;" width="242.7695" x="1003.5" y="154"/><text fill="#000000" font-family="sans-serif" font-size="14" lengthAdjust="spacing" textLength="222.7695" x="1013.5" y="176.9951">:Collaboration ConsultarUsuario</text></g><!--link UsuariosAbierto to CrearUsuarioView--><g class="link" data-entity-1="UsuariosAbierto" data-entity-2="CrearUsuarioView" data-source-line="17" data-uid="lnk9" id="link_UsuariosAbierto_CrearUsuarioView"><path d="M173.01,59 C251.12,59 360.92,59 435.43,59" fill="none" id="UsuariosAbierto-to-CrearUsuarioView" style="stroke:#181818;stroke-width:1;"/><polygon fill="#181818" points="441.43,59,432.43,55,436.43,59,432.43,63,441.43,59" style="stroke:#181818;stroke-width:1;"/><text fill="#000000" font-family="sans-serif" font-size="13" lengthAdjust="spacing" textLength="93.3486" x="260.75" y="52.0669">crearUsuario()</text></g><!--link CrearUsuarioView to UsuarioController--><g class="link" data-entity-1="CrearUsuarioView" data-entity-2="UsuarioController" data-source-line="20" data-uid="lnk10" id="link_CrearUsuarioView_UsuarioController"><path d="M441.22,72.35 C359.15,86.27 237,107 237,107 C237,107 237,124 237,124 C237,124 289.367,138.8252 336.827,152.2652" fill="none" id="CrearUsuarioView-to-UsuarioController" style="stroke:#181818;stroke-width:1;"/><polygon fill="#181818" points="342.6,153.9,335.0304,147.5991,337.7892,152.5376,332.8506,155.2964,342.6,153.9" style="stroke:#181818;stroke-width:1;"/><text fill="#000000" font-family="sans-serif" font-size="13" lengthAdjust="spacing" textLength="371.687" x="238" y="120.0669">validarDatosMínimos(username, password, rol) : boolean</text></g><!--link CrearUsuarioView to UsuarioController--><g class="link" data-entity-1="CrearUsuarioView" data-entity-2="UsuarioController" data-source-line="26" data-uid="lnk12" id="link_CrearUsuarioView_UsuarioController"><path d="M550.39,77.1 C578.98,90.54 614,107 614,107 C614,107 614,124 614,124 C614,124 541.2566,140.206 479.9966,153.846" fill="none" id="CrearUsuarioView-to-UsuarioController-1" style="stroke:#181818;stroke-width:1;"/><polygon fill="#181818" points="474.14,155.15,483.7942,157.0984,479.0205,154.0633,482.0555,149.2896,474.14,155.15" style="stroke:#181818;stroke-width:1;"/><text fill="#000000" font-family="sans-serif" font-size="13" lengthAdjust="spacing" textLength="316.0054" x="615" y="120.0669">crearUsuario(username, password, rol) : Usuario</text></g><!--link UsuarioController to UsuarioRepository--><g class="link" data-entity-1="UsuarioController" data-entity-2="UsuarioRepository" data-source-line="23" data-uid="lnk11" id="link_UsuarioController_UsuarioRepository"><path d="M349.51,190.1 C307.48,203.54 256,220 256,220 C256,220 256,237 256,237 C256,237 305.5892,251.7489 350.7592,265.1889" fill="none" id="UsuarioController-to-UsuarioRepository" style="stroke:#181818;stroke-width:1;"/><polygon fill="#181818" points="356.51,266.9,349.0245,260.4994,351.7176,265.4741,346.743,268.1672,356.51,266.9" style="stroke:#181818;stroke-width:1;"/><text fill="#000000" font-family="sans-serif" font-size="13" lengthAdjust="spacing" textLength="249.8755" x="257" y="233.0669">verificarUnicidad(username) : boolean</text></g><!--link UsuarioController to UsuarioRepository--><g class="link" data-entity-1="UsuarioController" data-entity-2="UsuarioRepository" data-source-line="29" data-uid="lnk13" id="link_UsuarioController_UsuarioRepository"><path d="M442.3,190.1 C473.18,203.54 511,220 511,220 C511,220 511,237 511,237 C511,237 482.4296,250.8439 454.6896,264.2839" fill="none" id="UsuarioController-to-UsuarioRepository-1" style="stroke:#181818;stroke-width:1;"/><polygon fill="#181818" points="449.29,266.9,459.1335,266.5756,453.7897,264.7199,455.6454,259.3761,449.29,266.9" style="stroke:#181818;stroke-width:1;"/><text fill="#000000" font-family="sans-serif" font-size="13" lengthAdjust="spacing" textLength="154.1211" x="512" y="233.0669">crear(usuario) : Usuario</text></g><!--link UsuarioRepository to Usuario--><g class="link" data-entity-1="UsuarioRepository" data-entity-2="Usuario" data-source-line="32" data-uid="lnk14" id="link_UsuarioRepository_Usuario"><path d="M414,303.42 C414,320.57 414,346.58 414,363.69" fill="none" id="UsuarioRepository-Usuario" style="stroke:#181818;stroke-width:1;"/></g><!--link CrearUsuarioView to ConsultarUsuario--><g class="link" data-entity-1="CrearUsuarioView" data-entity-2="ConsultarUsuario" data-source-line="35" data-uid="lnk15" id="link_CrearUsuarioView_ConsultarUsuario"><path d="M586.75,68.03 C708.42,81.45 940,107 940,107 C940,107 1014.9498,132.9282 1069.7498,151.8882" fill="none" id="CrearUsuarioView-to-ConsultarUsuario" style="stroke:#181818;stroke-width:1;stroke-dasharray:7,7;"/><polygon fill="#181818" points="1075.42,153.85,1068.2226,147.1271,1070.6948,152.2152,1065.6068,154.6874,1075.42,153.85" style="stroke:#181818;stroke-width:1;"/><text fill="#000000" font-family="sans-serif" font-size="13" lengthAdjust="spacing" textLength="276.7959" x="985" y="120.0669">«include» consultarUsuario(usuarioNuevo)</text></g><!--SRC=[fPFDRjf04CVlVeeHFHIaOAaqeGsAa0WX4b9R8b9whGPxGAiik-xicfHKVQIU-WXviSuI3CP6kTGdUtVs__6pxHwKoP1n1LePyfkC8BDw4nwYw2qCxIgpXemd1ob1OkNkfxVGR4LCYKUpr0HlXZUZwy45D7gp-zbWEfxSVnzSZqVJhvC6e8EPov6LTOEv8lRsvC6XrHhdbj4hQyJLk5nxvDtHhKnrCSIxmnyvUP9e6eReRCWuSpRAC7d0fUHbsiy7ZKPveTbgmAy8v2ebwdOkHxUNC2pDVLFqM1sRNypJxiUYcaJpB0s8gtEtdS7mV5JCJIcpJddBczVdejzHQFSkXWch9HcfvQIPb2nUG5I12crkzskfUt3SDuXsOhXZjI96MADMAIRg-Mzm02qhoda4VF6HHfXQZgggq4x5grQzjzFZ6_JMVNx-OzJAkcRkY0skw0moTExHSde6Sg05FPXRgmbDIFK-Xj6HAwo9rK8b2BbHYSYc81o401SCrHx28GEq3yaEi7jxCPxjnFQnAZdEO_XKO90q2yKh3602nmBKGXdbrHfFW3dDvUWblCAZz65Vr7Xan4vYqVzWs0QH1DkDYcCtXYdfNKdvbHA5eQJOUQQo7Mp2Me0OrIp4kApv8OQnINJkNaGr23hvHfwGZvZMGSPnl_Q_z-3gIWMrbFhzWEPejsZr9QUrRVq3]--></g></svg>