<svg xmlns="http://www.w3.org/2000/svg" xmlns:xlink="http://www.w3.org/1999/xlink" contentStyleType="text/css" data-diagram-type="STATE" height="920px" preserveAspectRatio="none" style="width:919px;height:920px;background:#FFFFFF;" version="1.1" viewBox="0 0 919 920" width="919px" zoomAndPan="magnify"><title>Consultar Solicitud Dispensa</title><defs/><g><g class="title" data-source-line="1"><text fill="#000000" font-family="sans-serif" font-size="14" font-weight="bold" lengthAdjust="spacing" textLength="226.8438" x="336.1948" y="32.9951">Consultar Solicitud Dispensa</text></g><g id="DISPENSAS_ABIERTO_INICIAL"><rect fill="#F1F1F1" height="76.2969" rx="12.5" ry="12.5" style="stroke:#181818;stroke-width:0.5;" width="187.3623" x="526.5" y="183.2969"/><line style="stroke:#181818;stroke-width:0.5;" x1="526.5" x2="713.8623" y1="229.5938" y2="229.5938"/><text fill="#000000" font-family="sans-serif" font-size="14" lengthAdjust="spacing" textLength="147.3623" x="546.5" y="211.292">DISPENSAS_ABIERTO</text></g><g id="DISPENSAS_ABIERTO_FINAL"><rect fill="#F1F1F1" height="76.2969" rx="12.5" ry="12.5" style="stroke:#181818;stroke-width:0.5;" width="187.3623" x="526.5" y="716.2969"/><line style="stroke:#181818;stroke-width:0.5;" x1="526.5" x2="713.8623" y1="762.5938" y2="762.5938"/><text fill="#000000" font-family="sans-serif" font-size="14" lengthAdjust="spacing" textLength="147.3623" x="546.5" y="744.292">DISPENSAS_ABIERTO</text></g><path d="M346,359.2969 L893.7334,359.2969 A12.5,12.5 0 0 1 906.2334,371.7969 L906.2334,405.5938 L333.5,405.5938 L333.5,371.7969 A12.5,12.5 0 0 1 346,359.2969" fill="#F1F1F1"/><rect fill="none" height="257.2969" rx="12.5" ry="12.5" style="stroke:#181818;stroke-width:0.5;" width="572.7334" x="333.5" y="359.2969"/><line style="stroke:#181818;stroke-width:0.5;" x1="333.5" x2="906.2334" y1="405.5938" y2="405.5938"/><text fill="#000000" font-family="sans-serif" font-size="14" lengthAdjust="spacing" textLength="219.3516" x="510.1909" y="387.292">SOLICITUD_DISPENSA_ABIERTA</text><g id="SOLICITUD_DISPENSA_ABIERTA_COMP.VisualizacionDetalle"><rect fill="#F1F1F1" height="76.2969" rx="12.5" ry="12.5" style="stroke:#181818;stroke-width:0.5;" width="207.2002" x="345.5" y="472.5938"/><line style="stroke:#181818;stroke-width:0.5;" x1="345.5" x2="552.7002" y1="518.8906" y2="518.8906"/><text fill="#000000" font-family="sans-serif" font-size="14" lengthAdjust="spacing" textLength="167.2002" x="365.5" y="500.5889">Visualización de Detalle</text></g><ellipse cx="449" cy="426.5938" fill="#222222" rx="10" ry="10" style="stroke:#222222;stroke-width:1;"/><ellipse cx="449" cy="595.5938" fill="none" rx="11" ry="11" style="stroke:#222222;stroke-width:1;"/><ellipse cx="449" cy="595.5938" fill="#222222" rx="6" ry="6" style="stroke:#222222;stroke-width:1;"/><g class="entity" data-entity="GMN2" data-source-line="23" data-uid="ent0003" id="entity_GMN2"><path d="M570.5,473.0938 L570.5,506.5938 L552.7,510.5938 L570.5,514.5938 L570.5,548.4922 A0,0 0 0 0 570.5,548.4922 L897.2334,548.4922 A0,0 0 0 0 897.2334,548.4922 L897.2334,483.0938 L887.2334,473.0938 L570.5,473.0938 A0,0 0 0 0 570.5,473.0938" fill="#FEFFDD" style="stroke:#181818;stroke-width:0.5;"/><path d="M887.2334,473.0938 L887.2334,483.0938 L897.2334,483.0938 L887.2334,473.0938" fill="#FEFFDD" style="stroke:#181818;stroke-width:0.5;"/><text fill="#000000" font-family="sans-serif" font-size="13" font-weight="bold" lengthAdjust="spacing" textLength="124.1855" x="586.5" y="500.1606">Sistema muestra</text><text fill="#000000" font-family="sans-serif" font-size="13" lengthAdjust="spacing" textLength="157.4155" x="714.8179" y="500.1606">los datos de la solicitud:</text><text fill="#000000" font-family="sans-serif" font-size="13" lengthAdjust="spacing" textLength="197.7041" x="586.5" y="515.2935">• Alumno solicitante y motivo.</text><text fill="#000000" font-family="sans-serif" font-size="13" lengthAdjust="spacing" textLength="274.3203" x="586.5" y="530.4263">• Estado actual y documentación adjunta.</text></g><!--link *start*SOLICITUD_DISPENSA_ABIERTA_COMP to VisualizacionDetalle--><g class="link" data-entity-1=".start.SOLICITUD_DISPENSA_ABIERTA_COMP" data-entity-2="VisualizacionDetalle" data-source-line="21" data-uid="lnk6" id="link_.start.SOLICITUD_DISPENSA_ABIERTA_COMP_VisualizacionDetalle"><path d="M449,436.8938 C449,445.8338 449,453.3438 449,466.3738" fill="none" id="*start*SOLICITUD_DISPENSA_ABIERTA_COMP-to-VisualizacionDetalle" style="stroke:#008000;stroke-width:1;"/><polygon fill="#008000" points="449,472.3738,453,463.3738,449,467.3738,445,463.3738,449,472.3738" style="stroke:#008000;stroke-width:1;"/></g><!--link VisualizacionDetalle to *end*SOLICITUD_DISPENSA_ABIERTA_COMP--><g class="link" data-entity-1="VisualizacionDetalle" data-entity-2=".end.SOLICITUD_DISPENSA_ABIERTA_COMP" data-source-line="27" data-uid="lnk8" id="link_VisualizacionDetalle_.end.SOLICITUD_DISPENSA_ABIERTA_COMP"><path d="M449,548.6138 C449,561.7038 449,569.3538 449,578.5538" fill="none" id="VisualizacionDetalle-to-*end*SOLICITUD_DISPENSA_ABIERTA_COMP" style="stroke:#008000;stroke-width:1;"/><polygon fill="#008000" points="449,584.5538,453,575.5538,449,579.5538,445,575.5538,449,584.5538" style="stroke:#008000;stroke-width:1;"/></g><ellipse cx="620" cy="73.2969" fill="#222222" rx="10" ry="10" style="stroke:#222222;stroke-width:1;"/><ellipse cx="620" cy="903.2969" fill="none" rx="11" ry="11" style="stroke:#222222;stroke-width:1;"/><ellipse cx="620" cy="903.2969" fill="#222222" rx="6" ry="6" style="stroke:#222222;stroke-width:1;"/><!--link *start* to DISPENSAS_ABIERTO_INICIAL--><g class="link" data-entity-1=".start." data-entity-2="DISPENSAS_ABIERTO_INICIAL" data-source-line="11" data-uid="lnk3" id="link_.start._DISPENSAS_ABIERTO_INICIAL"><path d="M620,83.4669 C620,103.6469 620,143.6769 620,176.9969" fill="none" id="*start*-to-DISPENSAS_ABIERTO_INICIAL" style="stroke:#008000;stroke-width:1;"/><polygon fill="#008000" points="620,182.9969,624,173.9969,620,177.9969,616,173.9969,620,182.9969" style="stroke:#008000;stroke-width:1;"/></g><!--link DISPENSAS_ABIERTO_INICIAL to SOLICITUD_DISPENSA_ABIERTA_COMP--><g class="link" data-entity-1="DISPENSAS_ABIERTO_INICIAL" data-entity-2="SOLICITUD_DISPENSA_ABIERTA_COMP" data-source-line="13" data-uid="lnk4" id="link_DISPENSAS_ABIERTO_INICIAL_SOLICITUD_DISPENSA_ABIERTA_COMP"><path d="M620,259.4769 C620,285.8869 620,316.6969 620,353.0569" fill="none" id="DISPENSAS_ABIERTO_INICIAL-to-SOLICITUD_DISPENSA_ABIERTA_COMP" style="stroke:#008000;stroke-width:1;"/><polygon fill="#008000" points="620,359.0569,624,350.0569,620,354.0569,616,350.0569,620,359.0569" style="stroke:#008000;stroke-width:1;"/><path d="M6,244.2669 L6,304.2669 L407,304.2669 L407,254.2669 L397,244.2669 L6,244.2669" fill="#FEFFDD" style="stroke:#181818;stroke-width:0.5;"/><path d="M397,244.2669 L397,254.2669 L407,254.2669 L397,244.2669" fill="#FEFFDD" style="stroke:#181818;stroke-width:0.5;"/><text fill="#000000" font-family="sans-serif" font-size="13" font-weight="bold" lengthAdjust="spacing" textLength="119.6787" x="22" y="271.3338">Profesor solicita</text><text fill="#000000" font-family="sans-serif" font-size="13" lengthAdjust="spacing" textLength="236.3042" x="145.811" y="271.3338">consultar el detalle de una solicitud.</text><text fill="#000000" font-family="sans-serif" font-size="13" font-weight="bold" lengthAdjust="spacing" textLength="128.7622" x="22" y="286.4666">Sistema presenta</text><text fill="#000000" font-family="sans-serif" font-size="13" lengthAdjust="spacing" textLength="158.9326" x="154.8945" y="286.4666">el detalle de la solicitud.</text><text fill="#000000" font-family="sans-serif" font-size="13" lengthAdjust="spacing" textLength="185.9165" x="423.1152" y="278.9002">consultarSolicitudDispensa()</text></g><!--link SOLICITUD_DISPENSA_ABIERTA_COMP to DISPENSAS_ABIERTO_FINAL--><g class="link" data-entity-1="SOLICITUD_DISPENSA_ABIERTA_COMP" data-entity-2="DISPENSAS_ABIERTO_FINAL" data-source-line="30" data-uid="lnk9" id="link_SOLICITUD_DISPENSA_ABIERTA_COMP_DISPENSAS_ABIERTO_FINAL"><path d="M620,616.3669 C620,652.8369 620,683.7769 620,710.2369" fill="none" id="SOLICITUD_DISPENSA_ABIERTA_COMP-to-DISPENSAS_ABIERTO_FINAL" style="stroke:#FF0000;stroke-width:1;"/><polygon fill="#FF0000" points="620,716.2369,624,707.2369,620,711.2369,616,707.2369,620,716.2369" style="stroke:#FF0000;stroke-width:1;"/><path d="M167,671.2969 L167,731.2969 L488,731.2969 L488,681.2969 L478,671.2969 L167,671.2969" fill="#FEFFDD" style="stroke:#181818;stroke-width:0.5;"/><path d="M478,671.2969 L478,681.2969 L488,681.2969 L478,671.2969" fill="#FEFFDD" style="stroke:#181818;stroke-width:0.5;"/><text fill="#000000" font-family="sans-serif" font-size="13" font-weight="bold" lengthAdjust="spacing" textLength="119.6787" x="183" y="698.3638">Profesor solicita</text><text fill="#000000" font-family="sans-serif" font-size="13" lengthAdjust="spacing" textLength="104.1016" x="306.811" y="698.3638">salir del detalle.</text><text fill="#000000" font-family="sans-serif" font-size="13" font-weight="bold" lengthAdjust="spacing" textLength="124.1855" x="183" y="713.4966">Sistema muestra</text><text fill="#000000" font-family="sans-serif" font-size="13" lengthAdjust="spacing" textLength="152.293" x="311.3179" y="713.4966">el listado de dispensas.</text><text fill="#000000" font-family="sans-serif" font-size="13" lengthAdjust="spacing" textLength="105.0664" x="504.6108" y="705.9302">cerrarSolicitud()</text></g><!--link DISPENSAS_ABIERTO_FINAL to *end*--><g class="link" data-entity-1="DISPENSAS_ABIERTO_FINAL" data-entity-2=".end." data-source-line="36" data-uid="lnk11" id="link_DISPENSAS_ABIERTO_FINAL_.end."><path d="M620,792.6669 C620,825.7769 620,865.4569 620,886.2169" fill="none" id="DISPENSAS_ABIERTO_FINAL-to-*end*" style="stroke:#0000FF;stroke-width:1;"/><polygon fill="#0000FF" points="620,892.2169,624,883.2169,620,887.2169,616,883.2169,620,892.2169" style="stroke:#0000FF;stroke-width:1;"/></g><!--SRC=[bLFRQjj047tVhnYSboQGD7aDmQ3QBWXIsrH9Nq8mQ-tOsNgrA_PII48Wtz9Vw2VqJ_eb7LqhnnPEzI3GxZapSyuSUUaLmiXe5vJd5XAZP2fz432MBaVjE7CRgNDkUGRQ27IOmyNvUUVKShtPFLLIet_C4Opr3wPpCUT2IBqcE6FESuymZfFvP9f4oIBw54- -timMyJGUnT4rL0ztCDZ137h9d-DfIpr0JcRNrEZcThne83KYMencN-ObkHypOEpkv1vExuxM5b7VdmxxfJ3Mhx9RuD14bv0sksfNrMpgmp7JXbGfN7amkbZ1XXKUN2s7SsjMw8m5Lx7urSVby5yjG0K2FLSK1e4GD6-0GPmrDHBfF6OSSaifq7M9RQBQug4MK4p4tcdtSzcfmdwJBd0bdtWgZHxN7OfzT2v-_z95q_fsKBBVRcHVdH9OMcNb-e6yMlN3tcZF0ZflA-dAE13S5-zjvPSjyy_hJuXKoBHfZTVKzX4ou-KFSxO5d91oOO2ddaOXZ31fo0gZAwLSV0_qKN5QQukFlLvrJI1Js0jZX_mdYaMnFyVLNqNnGsixsVl_p3cQr99ZRMvsyjNrc61ALhwGoQ9EkkjcgszMKhDK0MlzVm40]--></g></svg>