<svg xmlns="http://www.w3.org/2000/svg" xmlns:xlink="http://www.w3.org/1999/xlink" contentStyleType="text/css" data-diagram-type="STATE" height="920px" preserveAspectRatio="none" style="width:897px;height:920px;background:#FFFFFF;" version="1.1" viewBox="0 0 897 920" width="897px" zoomAndPan="magnify"><title>Consultar Detalle Alumno</title><defs/><g><g class="title" data-source-line="1"><text fill="#000000" font-family="sans-serif" font-size="14" font-weight="bold" lengthAdjust="spacing" textLength="201.8721" x="337.3501" y="32.9951">Consultar Detalle Alumno</text></g><g id="ALUMNOS_ABIERTO_INICIAL"><rect fill="#F1F1F1" height="76.2969" rx="12.5" ry="12.5" style="stroke:#181818;stroke-width:0.5;" width="178.5371" x="496.5" y="183.2969"/><line style="stroke:#181818;stroke-width:0.5;" x1="496.5" x2="675.0371" y1="229.5938" y2="229.5938"/><text fill="#000000" font-family="sans-serif" font-size="14" lengthAdjust="spacing" textLength="138.5371" x="516.5" y="211.292">ALUMNOS_ABIERTO</text></g><g id="ALUMNOS_ABIERTO_FINAL"><rect fill="#F1F1F1" height="76.2969" rx="12.5" ry="12.5" style="stroke:#181818;stroke-width:0.5;" width="178.5371" x="496.5" y="716.2969"/><line style="stroke:#181818;stroke-width:0.5;" x1="496.5" x2="675.0371" y1="762.5938" y2="762.5938"/><text fill="#000000" font-family="sans-serif" font-size="14" lengthAdjust="spacing" textLength="138.5371" x="516.5" y="744.292">ALUMNOS_ABIERTO</text></g><path d="M301,359.2969 L871.0723,359.2969 A12.5,12.5 0 0 1 883.5723,371.7969 L883.5723,405.5938 L288.5,405.5938 L288.5,371.7969 A12.5,12.5 0 0 1 301,359.2969" fill="#F1F1F1"/><rect fill="none" height="257.2969" rx="12.5" ry="12.5" style="stroke:#181818;stroke-width:0.5;" width="595.0723" x="288.5" y="359.2969"/><line style="stroke:#181818;stroke-width:0.5;" x1="288.5" x2="883.5723" y1="405.5938" y2="405.5938"/><text fill="#000000" font-family="sans-serif" font-size="14" lengthAdjust="spacing" textLength="129.6504" x="521.2109" y="387.292">ALUMNO_ABIERTO</text><g id="ALUMNO_ABIERTO_COMP.VisualizacionFicha"><rect fill="#F1F1F1" height="76.2969" rx="12.5" ry="12.5" style="stroke:#181818;stroke-width:0.5;" width="194.4375" x="300.5" y="472.5938"/><line style="stroke:#181818;stroke-width:0.5;" x1="300.5" x2="494.9375" y1="518.8906" y2="518.8906"/><text fill="#000000" font-family="sans-serif" font-size="14" lengthAdjust="spacing" textLength="154.4375" x="320.5" y="500.5889">Visualización de Ficha</text></g><ellipse cx="397.5" cy="426.5938" fill="#222222" rx="10" ry="10" style="stroke:#222222;stroke-width:1;"/><ellipse cx="397.5" cy="595.5938" fill="none" rx="11" ry="11" style="stroke:#222222;stroke-width:1;"/><ellipse cx="397.5" cy="595.5938" fill="#222222" rx="6" ry="6" style="stroke:#222222;stroke-width:1;"/><g class="entity" data-entity="GMN2" data-source-line="23" data-uid="ent0003" id="entity_GMN2"><path d="M512,473.0938 L512,506.5938 L494.83,510.5938 L512,514.5938 L512,548.4922 A0,0 0 0 0 512,548.4922 L874.5723,548.4922 A0,0 0 0 0 874.5723,548.4922 L874.5723,483.0938 L864.5723,473.0938 L512,473.0938 A0,0 0 0 0 512,473.0938" fill="#FEFFDD" style="stroke:#181818;stroke-width:0.5;"/><path d="M864.5723,473.0938 L864.5723,483.0938 L874.5723,483.0938 L864.5723,473.0938" fill="#FEFFDD" style="stroke:#181818;stroke-width:0.5;"/><text fill="#000000" font-family="sans-serif" font-size="13" font-weight="bold" lengthAdjust="spacing" textLength="124.1855" x="528" y="500.1606">Sistema muestra</text><text fill="#000000" font-family="sans-serif" font-size="13" lengthAdjust="spacing" textLength="193.2544" x="656.3179" y="500.1606">la ficha completa del alumno:</text><text fill="#000000" font-family="sans-serif" font-size="13" lengthAdjust="spacing" textLength="170.314" x="528" y="515.2935">• Datos personales y foto.</text><text fill="#000000" font-family="sans-serif" font-size="13" lengthAdjust="spacing" textLength="225.2974" x="528" y="530.4263">• Resumen de asistencias y faltas.</text></g><!--link *start*ALUMNO_ABIERTO_COMP to VisualizacionFicha--><g class="link" data-entity-1=".start.ALUMNO_ABIERTO_COMP" data-entity-2="VisualizacionFicha" data-source-line="21" data-uid="lnk6" id="link_.start.ALUMNO_ABIERTO_COMP_VisualizacionFicha"><path d="M397.5,436.8938 C397.5,445.8338 397.5,453.3438 397.5,466.3738" fill="none" id="*start*ALUMNO_ABIERTO_COMP-to-VisualizacionFicha" style="stroke:#008000;stroke-width:1;"/><polygon fill="#008000" points="397.5,472.3738,401.5,463.3738,397.5,467.3738,393.5,463.3738,397.5,472.3738" style="stroke:#008000;stroke-width:1;"/></g><!--link VisualizacionFicha to *end*ALUMNO_ABIERTO_COMP--><g class="link" data-entity-1="VisualizacionFicha" data-entity-2=".end.ALUMNO_ABIERTO_COMP" data-source-line="27" data-uid="lnk8" id="link_VisualizacionFicha_.end.ALUMNO_ABIERTO_COMP"><path d="M397.5,548.6138 C397.5,561.7038 397.5,569.3538 397.5,578.5538" fill="none" id="VisualizacionFicha-to-*end*ALUMNO_ABIERTO_COMP" style="stroke:#008000;stroke-width:1;"/><polygon fill="#008000" points="397.5,584.5538,401.5,575.5538,397.5,579.5538,393.5,575.5538,397.5,584.5538" style="stroke:#008000;stroke-width:1;"/></g><ellipse cx="586" cy="73.2969" fill="#222222" rx="10" ry="10" style="stroke:#222222;stroke-width:1;"/><ellipse cx="586" cy="903.2969" fill="none" rx="11" ry="11" style="stroke:#222222;stroke-width:1;"/><ellipse cx="586" cy="903.2969" fill="#222222" rx="6" ry="6" style="stroke:#222222;stroke-width:1;"/><!--link *start* to ALUMNOS_ABIERTO_INICIAL--><g class="link" data-entity-1=".start." data-entity-2="ALUMNOS_ABIERTO_INICIAL" data-source-line="11" data-uid="lnk3" id="link_.start._ALUMNOS_ABIERTO_INICIAL"><path d="M586,83.4669 C586,103.6469 586,143.6769 586,176.9969" fill="none" id="*start*-to-ALUMNOS_ABIERTO_INICIAL" style="stroke:#008000;stroke-width:1;"/><polygon fill="#008000" points="586,182.9969,590,173.9969,586,177.9969,582,173.9969,586,182.9969" style="stroke:#008000;stroke-width:1;"/></g><!--link ALUMNOS_ABIERTO_INICIAL to ALUMNO_ABIERTO_COMP--><g class="link" data-entity-1="ALUMNOS_ABIERTO_INICIAL" data-entity-2="ALUMNO_ABIERTO_COMP" data-source-line="13" data-uid="lnk4" id="link_ALUMNOS_ABIERTO_INICIAL_ALUMNO_ABIERTO_COMP"><path d="M586,259.4769 C586,285.8869 586,316.6969 586,353.0569" fill="none" id="ALUMNOS_ABIERTO_INICIAL-to-ALUMNO_ABIERTO_COMP" style="stroke:#008000;stroke-width:1;"/><polygon fill="#008000" points="586,359.0569,590,350.0569,586,354.0569,582,350.0569,586,359.0569" style="stroke:#008000;stroke-width:1;"/><path d="M6,244.2669 L6,304.2669 L393,304.2669 L393,254.2669 L383,244.2669 L6,244.2669" fill="#FEFFDD" style="stroke:#181818;stroke-width:0.5;"/><path d="M383,244.2669 L383,254.2669 L393,254.2669 L383,244.2669" fill="#FEFFDD" style="stroke:#181818;stroke-width:0.5;"/><text fill="#000000" font-family="sans-serif" font-size="13" font-weight="bold" lengthAdjust="spacing" textLength="119.6787" x="22" y="271.3338">Profesor solicita</text><text fill="#000000" font-family="sans-serif" font-size="13" lengthAdjust="spacing" textLength="222.7139" x="145.811" y="271.3338">consultar el detalle de un alumno.</text><text fill="#000000" font-family="sans-serif" font-size="13" font-weight="bold" lengthAdjust="spacing" textLength="128.7622" x="22" y="286.4666">Sistema presenta</text><text fill="#000000" font-family="sans-serif" font-size="13" lengthAdjust="spacing" textLength="128.1846" x="154.8945" y="286.4666">la ficha del alumno.</text><text fill="#000000" font-family="sans-serif" font-size="13" lengthAdjust="spacing" textLength="166.4102" x="409.5249" y="278.9002">consultarDetalleAlumno()</text></g><!--link ALUMNO_ABIERTO_COMP to ALUMNOS_ABIERTO_FINAL--><g class="link" data-entity-1="ALUMNO_ABIERTO_COMP" data-entity-2="ALUMNOS_ABIERTO_FINAL" data-source-line="30" data-uid="lnk9" id="link_ALUMNO_ABIERTO_COMP_ALUMNOS_ABIERTO_FINAL"><path d="M586,616.3669 C586,652.8369 586,683.7769 586,710.2369" fill="none" id="ALUMNO_ABIERTO_COMP-to-ALUMNOS_ABIERTO_FINAL" style="stroke:#FF0000;stroke-width:1;"/><polygon fill="#FF0000" points="586,716.2369,590,707.2369,586,711.2369,582,707.2369,586,716.2369" style="stroke:#FF0000;stroke-width:1;"/><path d="M102,671.2969 L102,731.2969 L414,731.2969 L414,681.2969 L404,671.2969 L102,671.2969" fill="#FEFFDD" style="stroke:#181818;stroke-width:0.5;"/><path d="M404,671.2969 L404,681.2969 L414,681.2969 L404,671.2969" fill="#FEFFDD" style="stroke:#181818;stroke-width:0.5;"/><text fill="#000000" font-family="sans-serif" font-size="13" font-weight="bold" lengthAdjust="spacing" textLength="119.6787" x="118" y="698.3638">Profesor solicita</text><text fill="#000000" font-family="sans-serif" font-size="13" lengthAdjust="spacing" textLength="104.1016" x="241.811" y="698.3638">salir del detalle.</text><text fill="#000000" font-family="sans-serif" font-size="13" font-weight="bold" lengthAdjust="spacing" textLength="124.1855" x="118" y="713.4966">Sistema muestra</text><text fill="#000000" font-family="sans-serif" font-size="13" lengthAdjust="spacing" textLength="143.1016" x="246.3179" y="713.4966">el listado de alumnos.</text><text fill="#000000" font-family="sans-serif" font-size="13" lengthAdjust="spacing" textLength="145.1836" x="430.4194" y="705.9302">cerrarDetalleAlumno()</text></g><!--link ALUMNOS_ABIERTO_FINAL to *end*--><g class="link" data-entity-1="ALUMNOS_ABIERTO_FINAL" data-entity-2=".end." data-source-line="36" data-uid="lnk11" id="link_ALUMNOS_ABIERTO_FINAL_.end."><path d="M586,792.6669 C586,825.7769 586,865.4569 586,886.2169" fill="none" id="ALUMNOS_ABIERTO_FINAL-to-*end*" style="stroke:#0000FF;stroke-width:1;"/><polygon fill="#0000FF" points="586,892.2169,590,883.2169,586,887.2169,582,883.2169,586,892.2169" style="stroke:#0000FF;stroke-width:1;"/></g><!--SRC=[fP9DJYCn48NtFaKfR9YH-DiY52a4a5g2909cDWYXIdTrOiLjjrpk1OEGvYnp1OumDvcJJBNJ2Pq_MB1q-RtogyyLT304VMUvCW4zN5108vMUgGhh5C-qBT5Z0TPbn5J2oV5ng-hHpZQhHbiApoM1ys7QRZB2BDDs8dAbE62GTwv_t0o6Tq-zy-Jozdxub0oIVjAx1cJehDrrTbYkae4Ou7FBqj4Vtem0LYpl3lNm_H4E7lOcdiW-7dHtHLHgL_PDy-hBfv0kU3UuvxJtlodh9AsXF82pDSQPgcEUZRiZxt9Yvu6TqQaEU7Oqxhxt0JAGDL-N4LGMCBOyNFZlD0Sg44ellsWRkq78TJf5iPYbWMm6TGpr0RkNs7P-_rDpXKR_mbGxUnNRrLXRvRzljWuLxphHkOvuiqUKHHfUJwQ28zybMXkmg8Y3NvilTKLf14zhqDEb-T_lFt21mJ6KvDbPDCJm3BaB3Rw5w9QuAYZEWbm_PrEDKOho1pmNB_7LXoriscCB1lMwsADLmYBpb6rRl_cwomwHzrzU89PqFb9fjcTZOTeyHMQaZ9cB3EARtDwOxLbbbh6fg9duFm00]--></g></svg>