<svg xmlns="http://www.w3.org/2000/svg" xmlns:xlink="http://www.w3.org/1999/xlink" contentStyleType="text/css" data-diagram-type="STATE" height="1122px" preserveAspectRatio="none" style="width:934px;height:1122px;background:#FFFFFF;" version="1.1" viewBox="0 0 934 1122" width="934px" zoomAndPan="magnify"><title>Consultar Detalle Matrícula</title><defs/><g><g class="title" data-source-line="1"><text fill="#000000" font-family="sans-serif" font-size="14" font-weight="bold" lengthAdjust="spacing" textLength="216.3848" x="348.9758" y="32.9951">Consultar Detalle Matrícula</text></g><g id="MATRICULAS_ABIERTO_INICIAL"><rect fill="#F1F1F1" height="76.2969" rx="12.5" ry="12.5" style="stroke:#181818;stroke-width:0.5;" width="198.8057" x="531.5" y="183.2969"/><line style="stroke:#181818;stroke-width:0.5;" x1="531.5" x2="730.3057" y1="229.5938" y2="229.5938"/><text fill="#000000" font-family="sans-serif" font-size="14" lengthAdjust="spacing" textLength="158.8057" x="551.5" y="211.292">MATRICULAS_ABIERTO</text></g><path d="M353.5,359.2969 L908.8364,359.2969 A12.5,12.5 0 0 1 921.3364,371.7969 L921.3364,405.5938 L341,405.5938 L341,371.7969 A12.5,12.5 0 0 1 353.5,359.2969" fill="#F1F1F1"/><rect fill="none" height="257.2969" rx="12.5" ry="12.5" style="stroke:#181818;stroke-width:0.5;" width="580.3364" x="341" y="359.2969"/><line style="stroke:#181818;stroke-width:0.5;" x1="341" x2="921.3364" y1="405.5938" y2="405.5938"/><text fill="#000000" font-family="sans-serif" font-size="14" lengthAdjust="spacing" textLength="148.4766" x="556.9299" y="387.292">MATRICULA_ABIERTA</text><g id="MATRICULA_ABIERTA_COMP.VisualizacionDetalle"><rect fill="#F1F1F1" height="76.2969" rx="12.5" ry="12.5" style="stroke:#181818;stroke-width:0.5;" width="207.2002" x="353" y="472.5938"/><line style="stroke:#181818;stroke-width:0.5;" x1="353" x2="560.2002" y1="518.8906" y2="518.8906"/><text fill="#000000" font-family="sans-serif" font-size="14" lengthAdjust="spacing" textLength="167.2002" x="373" y="500.5889">Visualización de Detalle</text></g><ellipse cx="456.5" cy="426.5938" fill="#222222" rx="10" ry="10" style="stroke:#222222;stroke-width:1;"/><ellipse cx="456.5" cy="595.5938" fill="none" rx="11" ry="11" style="stroke:#222222;stroke-width:1;"/><ellipse cx="456.5" cy="595.5938" fill="#222222" rx="6" ry="6" style="stroke:#222222;stroke-width:1;"/><g class="entity" data-entity="GMN2" data-source-line="23" data-uid="ent0003" id="entity_GMN2"><path d="M578.5,488.0938 L578.5,506.5938 L560.02,510.5938 L578.5,514.5938 L578.5,533.2266 A0,0 0 0 0 578.5,533.2266 L912.3364,533.2266 A0,0 0 0 0 912.3364,533.2266 L912.3364,498.0938 L902.3364,488.0938 L578.5,488.0938 A0,0 0 0 0 578.5,488.0938" fill="#FEFFDD" style="stroke:#181818;stroke-width:0.5;"/><path d="M902.3364,488.0938 L902.3364,498.0938 L912.3364,498.0938 L902.3364,488.0938" fill="#FEFFDD" style="stroke:#181818;stroke-width:0.5;"/><text fill="#000000" font-family="sans-serif" font-size="13" font-weight="bold" lengthAdjust="spacing" textLength="124.1855" x="594.5" y="515.1606">Sistema muestra</text><text fill="#000000" font-family="sans-serif" font-size="13" lengthAdjust="spacing" textLength="164.5186" x="722.8179" y="515.1606">los datos de la matrícula.</text></g><!--link *start*MATRICULA_ABIERTA_COMP to VisualizacionDetalle--><g class="link" data-entity-1=".start.MATRICULA_ABIERTA_COMP" data-entity-2="VisualizacionDetalle" data-source-line="21" data-uid="lnk6" id="link_.start.MATRICULA_ABIERTA_COMP_VisualizacionDetalle"><path d="M456.5,436.8938 C456.5,445.8338 456.5,453.3438 456.5,466.3738" fill="none" id="*start*MATRICULA_ABIERTA_COMP-to-VisualizacionDetalle" style="stroke:#008000;stroke-width:1;"/><polygon fill="#008000" points="456.5,472.3738,460.5,463.3738,456.5,467.3738,452.5,463.3738,456.5,472.3738" style="stroke:#008000;stroke-width:1;"/></g><!--link VisualizacionDetalle to *end*MATRICULA_ABIERTA_COMP--><g class="link" data-entity-1="VisualizacionDetalle" data-entity-2=".end.MATRICULA_ABIERTA_COMP" data-source-line="25" data-uid="lnk8" id="link_VisualizacionDetalle_.end.MATRICULA_ABIERTA_COMP"><path d="M456.5,548.6138 C456.5,561.7038 456.5,569.3538 456.5,578.5538" fill="none" id="VisualizacionDetalle-to-*end*MATRICULA_ABIERTA_COMP" style="stroke:#008000;stroke-width:1;"/><polygon fill="#008000" points="456.5,584.5538,460.5,575.5538,456.5,579.5538,452.5,575.5538,456.5,584.5538" style="stroke:#008000;stroke-width:1;"/></g><g id="MATRICULAS_ABIERTO_FINAL"><rect fill="#F1F1F1" height="76.2969" rx="12.5" ry="12.5" style="stroke:#181818;stroke-width:0.5;" width="198.8057" x="531.5" y="918.2969"/><line style="stroke:#181818;stroke-width:0.5;" x1="531.5" x2="730.3057" y1="964.5938" y2="964.5938"/><text fill="#000000" font-family="sans-serif" font-size="14" lengthAdjust="spacing" textLength="158.8057" x="551.5" y="946.292">MATRICULAS_ABIERTO</text></g><ellipse cx="631" cy="73.2969" fill="#222222" rx="10" ry="10" style="stroke:#222222;stroke-width:1;"/><ellipse cx="631" cy="1105.2969" fill="none" rx="11" ry="11" style="stroke:#222222;stroke-width:1;"/><ellipse cx="631" cy="1105.2969" fill="#222222" rx="6" ry="6" style="stroke:#222222;stroke-width:1;"/><!--link *start* to MATRICULAS_ABIERTO_INICIAL--><g class="link" data-entity-1=".start." data-entity-2="MATRICULAS_ABIERTO_INICIAL" data-source-line="11" data-uid="lnk3" id="link_.start._MATRICULAS_ABIERTO_INICIAL"><path d="M631,83.4669 C631,103.6469 631,143.6769 631,176.9969" fill="none" id="*start*-to-MATRICULAS_ABIERTO_INICIAL" style="stroke:#008000;stroke-width:1;"/><polygon fill="#008000" points="631,182.9969,635,173.9969,631,177.9969,627,173.9969,631,182.9969" style="stroke:#008000;stroke-width:1;"/></g><!--link MATRICULAS_ABIERTO_INICIAL to MATRICULA_ABIERTA_COMP--><g class="link" data-entity-1="MATRICULAS_ABIERTO_INICIAL" data-entity-2="MATRICULA_ABIERTA_COMP" data-source-line="13" data-uid="lnk4" id="link_MATRICULAS_ABIERTO_INICIAL_MATRICULA_ABIERTA_COMP"><path d="M631,259.4769 C631,285.8869 631,316.6969 631,353.0569" fill="none" id="MATRICULAS_ABIERTO_INICIAL-to-MATRICULA_ABIERTA_COMP" style="stroke:#008000;stroke-width:1;"/><polygon fill="#008000" points="631,359.0569,635,350.0569,631,354.0569,627,350.0569,631,359.0569" style="stroke:#008000;stroke-width:1;"/><path d="M6,244.2669 L6,304.2669 L427,304.2669 L427,254.2669 L417,244.2669 L6,244.2669" fill="#FEFFDD" style="stroke:#181818;stroke-width:0.5;"/><path d="M417,244.2669 L417,254.2669 L427,254.2669 L417,244.2669" fill="#FEFFDD" style="stroke:#181818;stroke-width:0.5;"/><text fill="#000000" font-family="sans-serif" font-size="13" font-weight="bold" lengthAdjust="spacing" textLength="132.9961" x="22" y="271.3338">Secretaría solicita</text><text fill="#000000" font-family="sans-serif" font-size="13" lengthAdjust="spacing" textLength="243.6548" x="159.1284" y="271.3338">consultar el detalle de una matrícula.</text><text fill="#000000" font-family="sans-serif" font-size="13" font-weight="bold" lengthAdjust="spacing" textLength="128.7622" x="22" y="286.4666">Sistema presenta</text><text fill="#000000" font-family="sans-serif" font-size="13" lengthAdjust="spacing" textLength="166.2832" x="154.8945" y="286.4666">el detalle de la matrícula.</text><text fill="#000000" font-family="sans-serif" font-size="13" lengthAdjust="spacing" textLength="177.0107" x="443.7832" y="278.9002">consultarDetalleMatricula()</text></g><!--link MATRICULA_ABIERTA_COMP to MATRICULAS_ABIERTO_FINAL--><g class="link" data-entity-1="MATRICULA_ABIERTA_COMP" data-entity-2="MATRICULAS_ABIERTO_FINAL" data-source-line="28" data-uid="lnk9" id="link_MATRICULA_ABIERTA_COMP_MATRICULAS_ABIERTO_FINAL"><path d="M631,616.4369 C631,718.0169 631,847.1169 631,912.1369" fill="none" id="MATRICULA_ABIERTA_COMP-to-MATRICULAS_ABIERTO_FINAL" style="stroke:#FF0000;stroke-width:1;"/><polygon fill="#FF0000" points="631,918.1369,635,909.1369,631,913.1369,627,909.1369,631,918.1369" style="stroke:#FF0000;stroke-width:1;"/><path d="M123,687.2869 L123,762.2869 L448,762.2869 L448,697.2869 L438,687.2869 L123,687.2869" fill="#FEFFDD" style="stroke:#181818;stroke-width:0.5;"/><path d="M438,687.2869 L438,697.2869 L448,697.2869 L438,687.2869" fill="#FEFFDD" style="stroke:#181818;stroke-width:0.5;"/><text fill="#000000" font-family="sans-serif" font-size="13" font-weight="bold" lengthAdjust="spacing" textLength="63.7114" x="139" y="714.3538">CERRAR:</text><text fill="#000000" font-family="sans-serif" font-size="13" font-weight="bold" lengthAdjust="spacing" textLength="132.9961" x="139" y="729.4866">Secretaría solicita</text><text fill="#000000" font-family="sans-serif" font-size="13" lengthAdjust="spacing" textLength="104.1016" x="276.1284" y="729.4866">salir del detalle.</text><text fill="#000000" font-family="sans-serif" font-size="13" font-weight="bold" lengthAdjust="spacing" textLength="124.1855" x="139" y="744.6194">Sistema muestra</text><text fill="#000000" font-family="sans-serif" font-size="13" lengthAdjust="spacing" textLength="156.0762" x="267.3179" y="744.6194">el listado de matrículas.</text><text fill="#000000" font-family="sans-serif" font-size="13" lengthAdjust="spacing" textLength="155.7842" x="464.394" y="729.4866">cerrarDetalleMatricula()</text></g><!--link MATRICULAS_ABIERTO_FINAL to *end*--><g class="link" data-entity-1="MATRICULAS_ABIERTO_FINAL" data-entity-2=".end." data-source-line="35" data-uid="lnk11" id="link_MATRICULAS_ABIERTO_FINAL_.end."><path d="M631,994.6669 C631,1027.7769 631,1067.4569 631,1088.2169" fill="none" id="MATRICULAS_ABIERTO_FINAL-to-*end*" style="stroke:#0000FF;stroke-width:1;"/><polygon fill="#0000FF" points="631,1094.2169,635,1085.2169,631,1089.2169,627,1085.2169,631,1094.2169" style="stroke:#0000FF;stroke-width:1;"/></g><!--SRC=[bLB9JiCm4BtxAqRb0aXbkI9KAGIG8h4fB9UgggRnKAowTcKx1q1y4YS-WHzZtAObwOR8mL9cVqjGGHEarlXI1tHmJW4rHwunkE_FejGe_4YP2JeSWx6IF4tW-EYe5dLeHgjHhGo5rmc1TU75rX9tAAKoGouNmWSCl2jvoBFqyIgvxoTdsKN-SDlFRh8qIwu0FRHMqwtbnYgHzDFRwpk8NwDndcvjNdYPtV0wsBXGTFTxqExk31sHwRKxMuuMOWkWjIEQvvz0CPUZKYEAeQ8Mktl2M0QWwJc0DP7aaOXmJmUTUoeSbxDg2DvgLQY0fuU3pkyq80soqbSIb0PXl93vO357-K1ZX8bZhKqrezcfcura9CIpn7PPtgSRPYLFofUerHiMofgvvoBtjSJtbudBgcnhshsimhevqy8fJKuDNvYdvyrbIvZ79VdWPf2rzI0nn7S5SMnRe8u_Q_7K3-N3nKVD6KrgkDAHxBNRwuqrCoVxWfpxdodIYpnFyfC8w4-VU0RW6En2wXLBrEdXCirXb3RoyqkEh_jX8nO6FD0bLSpy0000]--></g></svg>