<svg xmlns="http://www.w3.org/2000/svg" xmlns:xlink="http://www.w3.org/1999/xlink" contentStyleType="text/css" data-diagram-type="STATE" height="1122px" preserveAspectRatio="none" style="width:880px;height:1122px;background:#FFFFFF;" version="1.1" viewBox="0 0 880 1122" width="880px" zoomAndPan="magnify"><title>Consultar Lista Alumnos</title><defs/><g><g class="title" data-source-line="1"><text fill="#000000" font-family="sans-serif" font-size="14" font-weight="bold" lengthAdjust="spacing" textLength="192.0488" x="334.0701" y="32.9951">Consultar Lista Alumnos</text></g><g id="LISTAS_ABIERTO_INICIAL"><rect fill="#F1F1F1" height="76.2969" rx="12.5" ry="12.5" style="stroke:#181818;stroke-width:0.5;" width="156.2861" x="482" y="183.2969"/><line style="stroke:#181818;stroke-width:0.5;" x1="482" x2="638.2861" y1="229.5938" y2="229.5938"/><text fill="#000000" font-family="sans-serif" font-size="14" lengthAdjust="spacing" textLength="116.2861" x="502" y="211.292">LISTAS_ABIERTO</text></g><path d="M265,359.2969 L854.689,359.2969 A12.5,12.5 0 0 1 867.189,371.7969 L867.189,405.5938 L252.5,405.5938 L252.5,371.7969 A12.5,12.5 0 0 1 265,359.2969" fill="#F1F1F1"/><rect fill="none" height="257.2969" rx="12.5" ry="12.5" style="stroke:#181818;stroke-width:0.5;" width="614.689" x="252.5" y="359.2969"/><line style="stroke:#181818;stroke-width:0.5;" x1="252.5" x2="867.189" y1="405.5938" y2="405.5938"/><text fill="#000000" font-family="sans-serif" font-size="14" lengthAdjust="spacing" textLength="105.957" x="506.866" y="387.292">LISTA_ABIERTA</text><g id="LISTA_ABIERTA_COMP.VisualizacionLista"><rect fill="#F1F1F1" height="76.2969" rx="12.5" ry="12.5" style="stroke:#181818;stroke-width:0.5;" width="190.3975" x="264.5" y="472.5938"/><line style="stroke:#181818;stroke-width:0.5;" x1="264.5" x2="454.8975" y1="518.8906" y2="518.8906"/><text fill="#000000" font-family="sans-serif" font-size="14" lengthAdjust="spacing" textLength="150.3975" x="284.5" y="500.5889">Visualización de Lista</text></g><ellipse cx="359.5" cy="426.5938" fill="#222222" rx="10" ry="10" style="stroke:#222222;stroke-width:1;"/><ellipse cx="359.5" cy="595.5938" fill="none" rx="11" ry="11" style="stroke:#222222;stroke-width:1;"/><ellipse cx="359.5" cy="595.5938" fill="#222222" rx="6" ry="6" style="stroke:#222222;stroke-width:1;"/><g class="entity" data-entity="GMN2" data-source-line="23" data-uid="ent0003" id="entity_GMN2"><path d="M473,473.0938 L473,506.5938 L454.64,510.5938 L473,514.5938 L473,548.4922 A0,0 0 0 0 473,548.4922 L858.189,548.4922 A0,0 0 0 0 858.189,548.4922 L858.189,483.0938 L848.189,473.0938 L473,473.0938 A0,0 0 0 0 473,473.0938" fill="#FEFFDD" style="stroke:#181818;stroke-width:0.5;"/><path d="M848.189,473.0938 L848.189,483.0938 L858.189,483.0938 L848.189,473.0938" fill="#FEFFDD" style="stroke:#181818;stroke-width:0.5;"/><text fill="#000000" font-family="sans-serif" font-size="13" font-weight="bold" lengthAdjust="spacing" textLength="124.1855" x="489" y="500.1606">Sistema muestra</text><text fill="#000000" font-family="sans-serif" font-size="13" lengthAdjust="spacing" textLength="215.8711" x="617.3179" y="500.1606">la lista de alumnos matriculados:</text><text fill="#000000" font-family="sans-serif" font-size="13" lengthAdjust="spacing" textLength="253.6333" x="489" y="515.2935">• Nombres, apellidos e identificadores.</text><text fill="#000000" font-family="sans-serif" font-size="13" lengthAdjust="spacing" textLength="162.062" x="489" y="530.4263">• Estado de la matrícula.</text></g><!--link *start*LISTA_ABIERTA_COMP to VisualizacionLista--><g class="link" data-entity-1=".start.LISTA_ABIERTA_COMP" data-entity-2="VisualizacionLista" data-source-line="21" data-uid="lnk6" id="link_.start.LISTA_ABIERTA_COMP_VisualizacionLista"><path d="M359.5,436.8938 C359.5,445.8338 359.5,453.3438 359.5,466.3738" fill="none" id="*start*LISTA_ABIERTA_COMP-to-VisualizacionLista" style="stroke:#008000;stroke-width:1;"/><polygon fill="#008000" points="359.5,472.3738,363.5,463.3738,359.5,467.3738,355.5,463.3738,359.5,472.3738" style="stroke:#008000;stroke-width:1;"/></g><!--link VisualizacionLista to *end*LISTA_ABIERTA_COMP--><g class="link" data-entity-1="VisualizacionLista" data-entity-2=".end.LISTA_ABIERTA_COMP" data-source-line="27" data-uid="lnk8" id="link_VisualizacionLista_.end.LISTA_ABIERTA_COMP"><path d="M359.5,548.6138 C359.5,561.7038 359.5,569.3538 359.5,578.5538" fill="none" id="VisualizacionLista-to-*end*LISTA_ABIERTA_COMP" style="stroke:#008000;stroke-width:1;"/><polygon fill="#008000" points="359.5,584.5538,363.5,575.5538,359.5,579.5538,355.5,575.5538,359.5,584.5538" style="stroke:#008000;stroke-width:1;"/></g><g id="LISTAS_ABIERTO_FINAL"><rect fill="#F1F1F1" height="76.2969" rx="12.5" ry="12.5" style="stroke:#181818;stroke-width:0.5;" width="156.2861" x="482" y="918.2969"/><line style="stroke:#181818;stroke-width:0.5;" x1="482" x2="638.2861" y1="964.5938" y2="964.5938"/><text fill="#000000" font-family="sans-serif" font-size="14" lengthAdjust="spacing" textLength="116.2861" x="502" y="946.292">LISTAS_ABIERTO</text></g><ellipse cx="560" cy="73.2969" fill="#222222" rx="10" ry="10" style="stroke:#222222;stroke-width:1;"/><ellipse cx="560" cy="1105.2969" fill="none" rx="11" ry="11" style="stroke:#222222;stroke-width:1;"/><ellipse cx="560" cy="1105.2969" fill="#222222" rx="6" ry="6" style="stroke:#222222;stroke-width:1;"/><!--link *start* to LISTAS_ABIERTO_INICIAL--><g class="link" data-entity-1=".start." data-entity-2="LISTAS_ABIERTO_INICIAL" data-source-line="11" data-uid="lnk3" id="link_.start._LISTAS_ABIERTO_INICIAL"><path d="M560,83.4669 C560,103.6469 560,143.6769 560,176.9969" fill="none" id="*start*-to-LISTAS_ABIERTO_INICIAL" style="stroke:#008000;stroke-width:1;"/><polygon fill="#008000" points="560,182.9969,564,173.9969,560,177.9969,556,173.9969,560,182.9969" style="stroke:#008000;stroke-width:1;"/></g><!--link LISTAS_ABIERTO_INICIAL to LISTA_ABIERTA_COMP--><g class="link" data-entity-1="LISTAS_ABIERTO_INICIAL" data-entity-2="LISTA_ABIERTA_COMP" data-source-line="13" data-uid="lnk4" id="link_LISTAS_ABIERTO_INICIAL_LISTA_ABIERTA_COMP"><path d="M560,259.4769 C560,285.8869 560,316.6969 560,353.0569" fill="none" id="LISTAS_ABIERTO_INICIAL-to-LISTA_ABIERTA_COMP" style="stroke:#008000;stroke-width:1;"/><polygon fill="#008000" points="560,359.0569,564,350.0569,560,354.0569,556,350.0569,560,359.0569" style="stroke:#008000;stroke-width:1;"/><path d="M6,244.2669 L6,304.2669 L375,304.2669 L375,254.2669 L365,244.2669 L6,244.2669" fill="#FEFFDD" style="stroke:#181818;stroke-width:0.5;"/><path d="M365,244.2669 L365,254.2669 L375,254.2669 L365,244.2669" fill="#FEFFDD" style="stroke:#181818;stroke-width:0.5;"/><text fill="#000000" font-family="sans-serif" font-size="13" font-weight="bold" lengthAdjust="spacing" textLength="132.9961" x="22" y="271.3338">Secretaría solicita</text><text fill="#000000" font-family="sans-serif" font-size="13" lengthAdjust="spacing" textLength="191.3691" x="159.1284" y="271.3338">consultar la lista de alumnos.</text><text fill="#000000" font-family="sans-serif" font-size="13" font-weight="bold" lengthAdjust="spacing" textLength="128.7622" x="22" y="286.4666">Sistema presenta</text><text fill="#000000" font-family="sans-serif" font-size="13" lengthAdjust="spacing" textLength="126.8643" x="154.8945" y="286.4666">la lista de alumnos.</text><text fill="#000000" font-family="sans-serif" font-size="13" lengthAdjust="spacing" textLength="157.5806" x="391.4976" y="278.9002">consultarListaAlumnos()</text></g><!--link LISTA_ABIERTA_COMP to LISTAS_ABIERTO_FINAL--><g class="link" data-entity-1="LISTA_ABIERTA_COMP" data-entity-2="LISTAS_ABIERTO_FINAL" data-source-line="30" data-uid="lnk9" id="link_LISTA_ABIERTA_COMP_LISTAS_ABIERTO_FINAL"><path d="M560,616.4369 C560,718.0169 560,847.1169 560,912.1369" fill="none" id="LISTA_ABIERTA_COMP-to-LISTAS_ABIERTO_FINAL" style="stroke:#FF0000;stroke-width:1;"/><polygon fill="#FF0000" points="560,918.1369,564,909.1369,560,913.1369,556,909.1369,560,918.1369" style="stroke:#FF0000;stroke-width:1;"/><path d="M83,687.2869 L83,762.2869 L453,762.2869 L453,697.2869 L443,687.2869 L83,687.2869" fill="#FEFFDD" style="stroke:#181818;stroke-width:0.5;"/><path d="M443,687.2869 L443,697.2869 L453,697.2869 L443,687.2869" fill="#FEFFDD" style="stroke:#181818;stroke-width:0.5;"/><text fill="#000000" font-family="sans-serif" font-size="13" font-weight="bold" lengthAdjust="spacing" textLength="63.7114" x="99" y="714.3538">CERRAR:</text><text fill="#000000" font-family="sans-serif" font-size="13" font-weight="bold" lengthAdjust="spacing" textLength="132.9961" x="99" y="729.4866">Secretaría solicita</text><text fill="#000000" font-family="sans-serif" font-size="13" lengthAdjust="spacing" textLength="98.7251" x="236.1284" y="729.4866">salir de la lista.</text><text fill="#000000" font-family="sans-serif" font-size="13" font-weight="bold" lengthAdjust="spacing" textLength="124.1855" x="99" y="744.6194">Sistema muestra</text><text fill="#000000" font-family="sans-serif" font-size="13" lengthAdjust="spacing" textLength="201.4492" x="227.3179" y="744.6194">el listado de listas de alumnos.</text><text fill="#000000" font-family="sans-serif" font-size="13" lengthAdjust="spacing" textLength="79.9805" x="469.7671" y="729.4866">cerrarLista()</text></g><!--link LISTAS_ABIERTO_FINAL to *end*--><g class="link" data-entity-1="LISTAS_ABIERTO_FINAL" data-entity-2=".end." data-source-line="37" data-uid="lnk11" id="link_LISTAS_ABIERTO_FINAL_.end."><path d="M560,994.6669 C560,1027.7769 560,1067.4569 560,1088.2169" fill="none" id="LISTAS_ABIERTO_FINAL-to-*end*" style="stroke:#0000FF;stroke-width:1;"/><polygon fill="#0000FF" points="560,1094.2169,564,1085.2169,560,1089.2169,556,1085.2169,560,1094.2169" style="stroke:#0000FF;stroke-width:1;"/></g><!--SRC=[XPBFJkCm4CRlVefHzy8YohBN2bKALLUAL0fg4HTKLMuyBLOTExAT0wnMubcuS-8H-YOy2UCab9GaR4x9_FbcvfVFIwyGHaQxN7bkOIATvn2fFDN6CRULEkEMfw2DG8SP_3uxgqKjrzjcL4cD_Y53CDRVcrhYcWiXzORA6QCn7c4Ips-Y-JAwYCUpcwjbF8r7SJG1xg1tcEhL6wfWj1nTNLv3UFOD7wbU-u0_yPJaeNK0kpjUGF_knyOYwaL_sB4SOnrBDreFrnn0ya6vW5mnFlh9jA555Quz61tWRLauwNmrd6DYaUftBnoSKJAHdf__MWq_bK1nwWY_J23mKl5qtqu9J3babdwThbfR6r0B25kmRif_2zKoVIjTpfLyv8aqkdHC05eBxrvr653aUaNdLxXDZQAiO67bvfvWhBkAljoNvkYyxJmFKkwjJ7B5XN63lS3RqpDCJReYE2V0CrHAKXuGf21OSYqJggVawK77cBI52UeqAGZlNe9oMRJ763vQ8DNl9nxiN-MbGz9KPL4i-lsc1KlxafFGsif6t_bdD9xDejaWWFclfHpjQgkx2e8D6zKneogBAXJXrNKuglK4kd6bSgn0l0C0]--></g></svg>