<svg xmlns="http://www.w3.org/2000/svg" xmlns:xlink="http://www.w3.org/1999/xlink" contentStyleType="text/css" data-diagram-type="STATE" height="920px" preserveAspectRatio="none" style="width:956px;height:920px;background:#FFFFFF;" version="1.1" viewBox="0 0 956 920" width="956px" zoomAndPan="magnify"><title>Consultar Lista Alumnos</title><defs/><g><g class="title" data-source-line="1"><text fill="#000000" font-family="sans-serif" font-size="14" font-weight="bold" lengthAdjust="spacing" textLength="192.0488" x="372.0701" y="32.9951">Consultar Lista Alumnos</text></g><g id="LISTAS_ABIERTO_INICIAL"><rect fill="#F1F1F1" height="76.2969" rx="12.5" ry="12.5" style="stroke:#181818;stroke-width:0.5;" width="156.2861" x="549" y="183.2969"/><line style="stroke:#181818;stroke-width:0.5;" x1="549" x2="705.2861" y1="229.5938" y2="229.5938"/><text fill="#000000" font-family="sans-serif" font-size="14" lengthAdjust="spacing" textLength="116.2861" x="569" y="211.292">LISTAS_ABIERTO</text></g><g id="LISTAS_ABIERTO_FINAL"><rect fill="#F1F1F1" height="76.2969" rx="12.5" ry="12.5" style="stroke:#181818;stroke-width:0.5;" width="156.2861" x="549" y="716.2969"/><line style="stroke:#181818;stroke-width:0.5;" x1="549" x2="705.2861" y1="762.5938" y2="762.5938"/><text fill="#000000" font-family="sans-serif" font-size="14" lengthAdjust="spacing" textLength="116.2861" x="569" y="744.292">LISTAS_ABIERTO</text></g><path d="M323,359.2969 L930.689,359.2969 A12.5,12.5 0 0 1 943.189,371.7969 L943.189,405.5938 L310.5,405.5938 L310.5,371.7969 A12.5,12.5 0 0 1 323,359.2969" fill="#F1F1F1"/><rect fill="none" height="257.2969" rx="12.5" ry="12.5" style="stroke:#181818;stroke-width:0.5;" width="632.689" x="310.5" y="359.2969"/><line style="stroke:#181818;stroke-width:0.5;" x1="310.5" x2="943.189" y1="405.5938" y2="405.5938"/><text fill="#000000" font-family="sans-serif" font-size="14" lengthAdjust="spacing" textLength="105.957" x="573.866" y="387.292">LISTA_ABIERTA</text><g id="LISTA_ABIERTA_COMP.VisualizacionListado"><rect fill="#F1F1F1" height="76.2969" rx="12.5" ry="12.5" style="stroke:#181818;stroke-width:0.5;" width="207.8496" x="322.5" y="472.5938"/><line style="stroke:#181818;stroke-width:0.5;" x1="322.5" x2="530.3496" y1="518.8906" y2="518.8906"/><text fill="#000000" font-family="sans-serif" font-size="14" lengthAdjust="spacing" textLength="167.8496" x="342.5" y="500.5889">Visualización de Listado</text></g><ellipse cx="426.5" cy="426.5938" fill="#222222" rx="10" ry="10" style="stroke:#222222;stroke-width:1;"/><ellipse cx="426.5" cy="595.5938" fill="none" rx="11" ry="11" style="stroke:#222222;stroke-width:1;"/><ellipse cx="426.5" cy="595.5938" fill="#222222" rx="6" ry="6" style="stroke:#222222;stroke-width:1;"/><g class="entity" data-entity="GMN2" data-source-line="23" data-uid="ent0003" id="entity_GMN2"><path d="M549,473.0938 L549,506.5938 L530.52,510.5938 L549,514.5938 L549,548.4922 A0,0 0 0 0 549,548.4922 L934.189,548.4922 A0,0 0 0 0 934.189,548.4922 L934.189,483.0938 L924.189,473.0938 L549,473.0938 A0,0 0 0 0 549,473.0938" fill="#FEFFDD" style="stroke:#181818;stroke-width:0.5;"/><path d="M924.189,473.0938 L924.189,483.0938 L934.189,483.0938 L924.189,473.0938" fill="#FEFFDD" style="stroke:#181818;stroke-width:0.5;"/><text fill="#000000" font-family="sans-serif" font-size="13" font-weight="bold" lengthAdjust="spacing" textLength="124.1855" x="565" y="500.1606">Sistema muestra</text><text fill="#000000" font-family="sans-serif" font-size="13" lengthAdjust="spacing" textLength="215.8711" x="693.3179" y="500.1606">la lista de alumnos matriculados:</text><text fill="#000000" font-family="sans-serif" font-size="13" lengthAdjust="spacing" textLength="253.6333" x="565" y="515.2935">• Nombres, apellidos e identificadores.</text><text fill="#000000" font-family="sans-serif" font-size="13" lengthAdjust="spacing" textLength="162.062" x="565" y="530.4263">• Estado de la matrícula.</text></g><!--link *start*LISTA_ABIERTA_COMP to VisualizacionListado--><g class="link" data-entity-1=".start.LISTA_ABIERTA_COMP" data-entity-2="VisualizacionListado" data-source-line="21" data-uid="lnk6" id="link_.start.LISTA_ABIERTA_COMP_VisualizacionListado"><path d="M426.5,436.8938 C426.5,445.8338 426.5,453.3438 426.5,466.3738" fill="none" id="*start*LISTA_ABIERTA_COMP-to-VisualizacionListado" style="stroke:#008000;stroke-width:1;"/><polygon fill="#008000" points="426.5,472.3738,430.5,463.3738,426.5,467.3738,422.5,463.3738,426.5,472.3738" style="stroke:#008000;stroke-width:1;"/></g><!--link VisualizacionListado to *end*LISTA_ABIERTA_COMP--><g class="link" data-entity-1="VisualizacionListado" data-entity-2=".end.LISTA_ABIERTA_COMP" data-source-line="27" data-uid="lnk8" id="link_VisualizacionListado_.end.LISTA_ABIERTA_COMP"><path d="M426.5,548.6138 C426.5,561.7038 426.5,569.3538 426.5,578.5538" fill="none" id="VisualizacionListado-to-*end*LISTA_ABIERTA_COMP" style="stroke:#008000;stroke-width:1;"/><polygon fill="#008000" points="426.5,584.5538,430.5,575.5538,426.5,579.5538,422.5,575.5538,426.5,584.5538" style="stroke:#008000;stroke-width:1;"/></g><ellipse cx="627" cy="73.2969" fill="#222222" rx="10" ry="10" style="stroke:#222222;stroke-width:1;"/><ellipse cx="627" cy="903.2969" fill="none" rx="11" ry="11" style="stroke:#222222;stroke-width:1;"/><ellipse cx="627" cy="903.2969" fill="#222222" rx="6" ry="6" style="stroke:#222222;stroke-width:1;"/><!--link *start* to LISTAS_ABIERTO_INICIAL--><g class="link" data-entity-1=".start." data-entity-2="LISTAS_ABIERTO_INICIAL" data-source-line="11" data-uid="lnk3" id="link_.start._LISTAS_ABIERTO_INICIAL"><path d="M627,83.4669 C627,103.6469 627,143.6769 627,176.9969" fill="none" id="*start*-to-LISTAS_ABIERTO_INICIAL" style="stroke:#008000;stroke-width:1;"/><polygon fill="#008000" points="627,182.9969,631,173.9969,627,177.9969,623,173.9969,627,182.9969" style="stroke:#008000;stroke-width:1;"/></g><!--link LISTAS_ABIERTO_INICIAL to LISTA_ABIERTA_COMP--><g class="link" data-entity-1="LISTAS_ABIERTO_INICIAL" data-entity-2="LISTA_ABIERTA_COMP" data-source-line="13" data-uid="lnk4" id="link_LISTAS_ABIERTO_INICIAL_LISTA_ABIERTA_COMP"><path d="M627,259.4769 C627,285.8869 627,316.6969 627,353.0569" fill="none" id="LISTAS_ABIERTO_INICIAL-to-LISTA_ABIERTA_COMP" style="stroke:#008000;stroke-width:1;"/><polygon fill="#008000" points="627,359.0569,631,350.0569,627,354.0569,623,350.0569,627,359.0569" style="stroke:#008000;stroke-width:1;"/><path d="M6,244.2669 L6,304.2669 L442,304.2669 L442,254.2669 L432,244.2669 L6,244.2669" fill="#FEFFDD" style="stroke:#181818;stroke-width:0.5;"/><path d="M432,244.2669 L432,254.2669 L442,254.2669 L432,244.2669" fill="#FEFFDD" style="stroke:#181818;stroke-width:0.5;"/><text fill="#000000" font-family="sans-serif" font-size="13" font-weight="bold" lengthAdjust="spacing" textLength="119.6787" x="22" y="271.3338">Profesor solicita</text><text fill="#000000" font-family="sans-serif" font-size="13" lengthAdjust="spacing" textLength="271.9526" x="145.811" y="271.3338">consultar la lista de alumnos de un curso.</text><text fill="#000000" font-family="sans-serif" font-size="13" font-weight="bold" lengthAdjust="spacing" textLength="128.7622" x="22" y="286.4666">Sistema presenta</text><text fill="#000000" font-family="sans-serif" font-size="13" lengthAdjust="spacing" textLength="126.8643" x="154.8945" y="286.4666">la lista de alumnos.</text><text fill="#000000" font-family="sans-serif" font-size="13" lengthAdjust="spacing" textLength="157.5806" x="458.7637" y="278.9002">consultarListaAlumnos()</text></g><!--link LISTA_ABIERTA_COMP to LISTAS_ABIERTO_FINAL--><g class="link" data-entity-1="LISTA_ABIERTA_COMP" data-entity-2="LISTAS_ABIERTO_FINAL" data-source-line="30" data-uid="lnk9" id="link_LISTA_ABIERTA_COMP_LISTAS_ABIERTO_FINAL"><path d="M627,616.3669 C627,652.8369 627,683.7769 627,710.2369" fill="none" id="LISTA_ABIERTA_COMP-to-LISTAS_ABIERTO_FINAL" style="stroke:#FF0000;stroke-width:1;"/><polygon fill="#FF0000" points="627,716.2369,631,707.2369,627,711.2369,623,707.2369,627,716.2369" style="stroke:#FF0000;stroke-width:1;"/><path d="M150,671.2969 L150,731.2969 L520,731.2969 L520,681.2969 L510,671.2969 L150,671.2969" fill="#FEFFDD" style="stroke:#181818;stroke-width:0.5;"/><path d="M510,671.2969 L510,681.2969 L520,681.2969 L510,671.2969" fill="#FEFFDD" style="stroke:#181818;stroke-width:0.5;"/><text fill="#000000" font-family="sans-serif" font-size="13" font-weight="bold" lengthAdjust="spacing" textLength="119.6787" x="166" y="698.3638">Profesor solicita</text><text fill="#000000" font-family="sans-serif" font-size="13" lengthAdjust="spacing" textLength="98.7251" x="289.811" y="698.3638">salir de la lista.</text><text fill="#000000" font-family="sans-serif" font-size="13" font-weight="bold" lengthAdjust="spacing" textLength="124.1855" x="166" y="713.4966">Sistema muestra</text><text fill="#000000" font-family="sans-serif" font-size="13" lengthAdjust="spacing" textLength="201.4492" x="294.3179" y="713.4966">el listado de listas de alumnos.</text><text fill="#000000" font-family="sans-serif" font-size="13" lengthAdjust="spacing" textLength="79.9805" x="536.7671" y="705.9302">cerrarLista()</text></g><!--link LISTAS_ABIERTO_FINAL to *end*--><g class="link" data-entity-1="LISTAS_ABIERTO_FINAL" data-entity-2=".end." data-source-line="36" data-uid="lnk11" id="link_LISTAS_ABIERTO_FINAL_.end."><path d="M627,792.6669 C627,825.7769 627,865.4569 627,886.2169" fill="none" id="LISTAS_ABIERTO_FINAL-to-*end*" style="stroke:#0000FF;stroke-width:1;"/><polygon fill="#0000FF" points="627,892.2169,631,883.2169,627,887.2169,623,883.2169,627,892.2169" style="stroke:#0000FF;stroke-width:1;"/></g><!--SRC=[bP91JiCm44NtFiMeR03H0bk4AeMgI95AgIXYWr3b9jDYrR4Zsra0Gk8ix5bn16x2IHWdBgGq4MBd-F_vddaP9vn466Xb2-cuWP6mZaCaYqnfo-nAg9mRde7IALhCuVZeg7Phk5fjtqgXq3ta2DguUrqJ9ZnDXLgIdJ5wnY6CukbrD9r5P_7mwlfo5e_ZGHoDW5leR4gTveBpU4ns-AiWN4QpmUN51A1Ui9OwZDtktq7tTcTf4DLTjz_I76CjJM-LRhvw0icQSWavCDxTOqfJdn8N3hJoy5RCTtWwxq-CNg3L1goM8X6EdnxE-pyn83dP_VzA4NWLvu-5WgGmLlVMELCoOSOXD_GFLOXfAEunL2duTbWxlQSojP9lX2su58yy4LgLKwMwH5iJFjwLVoAedRBwD-ccdD9OeZ5YUKzi5kssNtDc1LfdMiU4Z3iZaa9IkJtv3lXyUOMnpkO4wG1uZb8AqW51f0HDB4H2VX9x6nN3QcXAfvTyyCURJwvCtpZzHoEiEWMYmfx3Ucqo9vV1j64dg_sdrK9ZmbxzVw4iTMN212MhhSMf0qLPcSBG_cXRTgYnMPfbBWiC0ty1]--></g></svg>