<svg xmlns="http://www.w3.org/2000/svg" xmlns:xlink="http://www.w3.org/1999/xlink" contentStyleType="text/css" data-diagram-type="STATE" height="1152px" preserveAspectRatio="none" style="width:959px;height:1152px;background:#FFFFFF;" version="1.1" viewBox="0 0 959 1152" width="959px" zoomAndPan="magnify"><title>Crear Sesión Clase</title><defs/><g><g class="title" data-source-line="1"><text fill="#000000" font-family="sans-serif" font-size="14" font-weight="bold" lengthAdjust="spacing" textLength="147.417" x="395.7764" y="32.9951">Crear Sesión Clase</text></g><g id="ASISTENCIAS_ABIERTO_INICIAL"><rect fill="#F1F1F1" height="76.2969" rx="12.5" ry="12.5" style="stroke:#181818;stroke-width:0.5;" width="200.1729" x="551" y="183.2969"/><line style="stroke:#181818;stroke-width:0.5;" x1="551" x2="751.1729" y1="229.5938" y2="229.5938"/><text fill="#000000" font-family="sans-serif" font-size="14" lengthAdjust="spacing" textLength="160.1729" x="571" y="211.292">ASISTENCIAS_ABIERTO</text></g><g id="ASISTENCIAS_ABIERTO_FINAL"><rect fill="#F1F1F1" height="76.2969" rx="12.5" ry="12.5" style="stroke:#181818;stroke-width:0.5;" width="200.1729" x="389" y="948.2969"/><line style="stroke:#181818;stroke-width:0.5;" x1="389" x2="589.1729" y1="994.5938" y2="994.5938"/><text fill="#000000" font-family="sans-serif" font-size="14" lengthAdjust="spacing" textLength="160.1729" x="409" y="976.292">ASISTENCIAS_ABIERTO</text></g><path d="M369,359.2969 L933.4697,359.2969 A12.5,12.5 0 0 1 945.9697,371.7969 L945.9697,405.5938 L356.5,405.5938 L356.5,371.7969 A12.5,12.5 0 0 1 369,359.2969" fill="#F1F1F1"/><rect fill="none" height="287.2969" rx="12.5" ry="12.5" style="stroke:#181818;stroke-width:0.5;" width="589.4697" x="356.5" y="359.2969"/><line style="stroke:#181818;stroke-width:0.5;" x1="356.5" x2="945.9697" y1="405.5938" y2="405.5938"/><text fill="#000000" font-family="sans-serif" font-size="14" lengthAdjust="spacing" textLength="209.084" x="546.6929" y="387.292">SESION_ASISTENCIA_ABIERTA</text><g id="SESION_NUEVA_COMP.ConfiguracionDatos"><rect fill="#F1F1F1" height="76.2969" rx="12.5" ry="12.5" style="stroke:#181818;stroke-width:0.5;" width="204.2607" x="368.5" y="487.5938"/><line style="stroke:#181818;stroke-width:0.5;" x1="368.5" x2="572.7607" y1="533.8906" y2="533.8906"/><text fill="#000000" font-family="sans-serif" font-size="14" lengthAdjust="spacing" textLength="164.2607" x="388.5" y="515.5889">Configuración de Datos</text></g><ellipse cx="470.5" cy="426.5938" fill="#222222" rx="10" ry="10" style="stroke:#222222;stroke-width:1;"/><ellipse cx="470.5" cy="625.5938" fill="none" rx="11" ry="11" style="stroke:#222222;stroke-width:1;"/><ellipse cx="470.5" cy="625.5938" fill="#222222" rx="6" ry="6" style="stroke:#222222;stroke-width:1;"/><g class="entity" data-entity="GMN2" data-source-line="24" data-uid="ent0003" id="entity_GMN2"><path d="M590,472.5938 L590,521.5938 L572.57,525.5938 L590,529.5938 L590,578.2578 A0,0 0 0 0 590,578.2578 L936.9697,578.2578 A0,0 0 0 0 936.9697,578.2578 L936.9697,482.5938 L926.9697,472.5938 L590,472.5938 A0,0 0 0 0 590,472.5938" fill="#FEFFDD" style="stroke:#181818;stroke-width:0.5;"/><path d="M926.9697,472.5938 L926.9697,482.5938 L936.9697,482.5938 L926.9697,472.5938" fill="#FEFFDD" style="stroke:#181818;stroke-width:0.5;"/><text fill="#000000" font-family="sans-serif" font-size="13" font-weight="bold" lengthAdjust="spacing" textLength="137.2998" x="606" y="499.6606">Profesor introduce</text><text fill="#000000" font-family="sans-serif" font-size="13" lengthAdjust="spacing" textLength="164.5376" x="747.4321" y="499.6606">la información requerida:</text><text fill="#000000" font-family="sans-serif" font-size="13" lengthAdjust="spacing" textLength="176.3633" x="606" y="514.7935">• Asignatura, grupo y aula.</text><text fill="#000000" font-family="sans-serif" font-size="13" lengthAdjust="spacing" textLength="142.2129" x="606" y="529.9263">• Fecha, hora y tema.</text><text fill="#000000" font-family="sans-serif" font-size="13" font-weight="bold" lengthAdjust="spacing" textLength="124.1855" x="606" y="545.0591">Sistema muestra</text><text fill="#000000" font-family="sans-serif" font-size="13" lengthAdjust="spacing" textLength="158.7041" x="734.3179" y="545.0591">el resumen de la sesión.</text><text fill="#000000" font-family="sans-serif" font-size="13" font-weight="bold" lengthAdjust="spacing" textLength="119.6787" x="606" y="560.1919">Profesor solicita</text><text fill="#000000" font-family="sans-serif" font-size="13" lengthAdjust="spacing" textLength="104.8569" x="729.811" y="560.1919">iniciar la sesión.</text></g><!--link *start*SESION_NUEVA_COMP to ConfiguracionDatos--><g class="link" data-entity-1=".start.SESION_NUEVA_COMP" data-entity-2="ConfiguracionDatos" data-source-line="22" data-uid="lnk6" id="link_.start.SESION_NUEVA_COMP_ConfiguracionDatos"><path d="M470.5,436.8138 C470.5,448.7738 470.5,463.2537 470.5,481.5438" fill="none" id="*start*SESION_NUEVA_COMP-to-ConfiguracionDatos" style="stroke:#008000;stroke-width:1;"/><polygon fill="#008000" points="470.5,487.5438,474.5,478.5438,470.5,482.5438,466.5,478.5438,470.5,487.5438" style="stroke:#008000;stroke-width:1;"/></g><!--link ConfiguracionDatos to *end*SESION_NUEVA_COMP--><g class="link" data-entity-1="ConfiguracionDatos" data-entity-2=".end.SESION_NUEVA_COMP" data-source-line="30" data-uid="lnk8" id="link_ConfiguracionDatos_.end.SESION_NUEVA_COMP"><path d="M470.5,563.6838 C470.5,581.7938 470.5,596.1038 470.5,608.3638" fill="none" id="ConfiguracionDatos-to-*end*SESION_NUEVA_COMP" style="stroke:#008000;stroke-width:1;"/><polygon fill="#008000" points="470.5,614.3638,474.5,605.3638,470.5,609.3638,466.5,605.3638,470.5,614.3638" style="stroke:#008000;stroke-width:1;"/></g><g id="SESION_ACTIVA_FINAL"><rect fill="#F1F1F1" height="76.2969" rx="12.5" ry="12.5" style="stroke:#181818;stroke-width:0.5;" width="249.084" x="689.5" y="948.2969"/><line style="stroke:#181818;stroke-width:0.5;" x1="689.5" x2="938.584" y1="994.5938" y2="994.5938"/><text fill="#000000" font-family="sans-serif" font-size="14" lengthAdjust="spacing" textLength="209.084" x="709.5" y="976.292">SESION_ASISTENCIA_ABIERTA</text></g><ellipse cx="651" cy="73.2969" fill="#222222" rx="10" ry="10" style="stroke:#222222;stroke-width:1;"/><ellipse cx="651" cy="1135.2969" fill="none" rx="11" ry="11" style="stroke:#222222;stroke-width:1;"/><ellipse cx="651" cy="1135.2969" fill="#222222" rx="6" ry="6" style="stroke:#222222;stroke-width:1;"/><!--link *start* to ASISTENCIAS_ABIERTO_INICIAL--><g class="link" data-entity-1=".start." data-entity-2="ASISTENCIAS_ABIERTO_INICIAL" data-source-line="12" data-uid="lnk3" id="link_.start._ASISTENCIAS_ABIERTO_INICIAL"><path d="M651,83.4669 C651,103.6469 651,143.6769 651,176.9969" fill="none" id="*start*-to-ASISTENCIAS_ABIERTO_INICIAL" style="stroke:#008000;stroke-width:1;"/><polygon fill="#008000" points="651,182.9969,655,173.9969,651,177.9969,647,173.9969,651,182.9969" style="stroke:#008000;stroke-width:1;"/></g><!--link ASISTENCIAS_ABIERTO_INICIAL to SESION_NUEVA_COMP--><g class="link" data-entity-1="ASISTENCIAS_ABIERTO_INICIAL" data-entity-2="SESION_NUEVA_COMP" data-source-line="14" data-uid="lnk4" id="link_ASISTENCIAS_ABIERTO_INICIAL_SESION_NUEVA_COMP"><path d="M651,259.5569 C651,285.7869 651,316.3969 651,353.2569" fill="none" id="ASISTENCIAS_ABIERTO_INICIAL-to-SESION_NUEVA_COMP" style="stroke:#008000;stroke-width:1;"/><polygon fill="#008000" points="651,359.2569,655,350.2569,651,354.2569,647,350.2569,651,359.2569" style="stroke:#008000;stroke-width:1;"/><path d="M95,244.4069 L95,304.4069 L501,304.4069 L501,254.4069 L491,244.4069 L95,244.4069" fill="#FEFFDD" style="stroke:#181818;stroke-width:0.5;"/><path d="M491,244.4069 L491,254.4069 L501,254.4069 L491,244.4069" fill="#FEFFDD" style="stroke:#181818;stroke-width:0.5;"/><text fill="#000000" font-family="sans-serif" font-size="13" font-weight="bold" lengthAdjust="spacing" textLength="119.6787" x="111" y="271.4738">Profesor solicita</text><text fill="#000000" font-family="sans-serif" font-size="13" lengthAdjust="spacing" textLength="170.0029" x="234.811" y="271.4738">crear una sesión de clase.</text><text fill="#000000" font-family="sans-serif" font-size="13" font-weight="bold" lengthAdjust="spacing" textLength="128.7622" x="111" y="286.6066">Sistema presenta</text><text fill="#000000" font-family="sans-serif" font-size="13" lengthAdjust="spacing" textLength="232.9272" x="243.8945" y="286.6066">el formulario de creación de sesión.</text><text fill="#000000" font-family="sans-serif" font-size="13" lengthAdjust="spacing" textLength="122.1987" x="517.8218" y="279.0402">crearSesionClase()</text></g><!--link SESION_NUEVA_COMP to SESION_ACTIVA_FINAL--><g class="link" data-entity-1="SESION_NUEVA_COMP" data-entity-2="SESION_ACTIVA_FINAL" data-source-line="33" data-uid="lnk9" id="link_SESION_NUEVA_COMP_SESION_ACTIVA_FINAL"><path d="M814,646.5569 C814,750.6669 814,877.9569 814,942.2469" fill="none" id="SESION_NUEVA_COMP-to-SESION_ACTIVA_FINAL" style="stroke:#008000;stroke-width:1;"/><polygon fill="#008000" points="814,948.2469,818,939.2469,814,943.2469,810,939.2469,814,948.2469" style="stroke:#008000;stroke-width:1;"/><path d="M416,802.3969 L416,862.3969 L694,862.3969 L694,812.3969 L684,802.3969 L416,802.3969" fill="#FEFFDD" style="stroke:#181818;stroke-width:0.5;"/><path d="M684,802.3969 L684,812.3969 L694,812.3969 L684,802.3969" fill="#FEFFDD" style="stroke:#181818;stroke-width:0.5;"/><text fill="#000000" font-family="sans-serif" font-size="13" font-weight="bold" lengthAdjust="spacing" textLength="119.6787" x="432" y="829.4638">Profesor solicita</text><text fill="#000000" font-family="sans-serif" font-size="13" lengthAdjust="spacing" textLength="104.8569" x="555.811" y="829.4638">iniciar la sesión.</text><text fill="#000000" font-family="sans-serif" font-size="13" font-weight="bold" lengthAdjust="spacing" textLength="128.7622" x="432" y="844.5966">Sistema presenta</text><text fill="#000000" font-family="sans-serif" font-size="13" lengthAdjust="spacing" textLength="104.8062" x="564.8945" y="844.5966">la sesión activa.</text><text fill="#000000" font-family="sans-serif" font-size="13" lengthAdjust="spacing" textLength="92.5044" x="710.7007" y="837.0302">iniciarSesion()</text></g><!--link SESION_NUEVA_COMP to ASISTENCIAS_ABIERTO_FINAL--><g class="link" data-entity-1="SESION_NUEVA_COMP" data-entity-2="ASISTENCIAS_ABIERTO_FINAL" data-source-line="39" data-uid="lnk10" id="link_SESION_NUEVA_COMP_ASISTENCIAS_ABIERTO_FINAL"><path d="M489,646.5569 C489,750.6669 489,877.9569 489,942.2469" fill="none" id="SESION_NUEVA_COMP-to-ASISTENCIAS_ABIERTO_FINAL" style="stroke:#FF0000;stroke-width:1;"/><polygon fill="#FF0000" points="489,948.2469,493,939.2469,489,943.2469,485,939.2469,489,948.2469" style="stroke:#FF0000;stroke-width:1;"/><text fill="#000000" font-family="sans-serif" font-size="13" lengthAdjust="spacing" textLength="122.9033" x="17" y="767.0302">cancelarCreacion()</text><path d="M155.9033,732.3969 L155.9033,792.3969 L483.9033,792.3969 L483.9033,742.3969 L473.9033,732.3969 L155.9033,732.3969" fill="#FEFFDD" style="stroke:#181818;stroke-width:0.5;"/><path d="M473.9033,732.3969 L473.9033,742.3969 L483.9033,742.3969 L473.9033,732.3969" fill="#FEFFDD" style="stroke:#181818;stroke-width:0.5;"/><text fill="#000000" font-family="sans-serif" font-size="13" font-weight="bold" lengthAdjust="spacing" textLength="119.6787" x="171.9033" y="759.4638">Profesor solicita</text><text fill="#000000" font-family="sans-serif" font-size="13" lengthAdjust="spacing" textLength="134.8052" x="295.7144" y="759.4638">cancelar la creación.</text><text fill="#000000" font-family="sans-serif" font-size="13" font-weight="bold" lengthAdjust="spacing" textLength="124.1855" x="171.9033" y="774.5966">Sistema muestra</text><text fill="#000000" font-family="sans-serif" font-size="13" lengthAdjust="spacing" textLength="159.6118" x="300.2212" y="774.5966">el listado de asistencias.</text></g><!--link SESION_ACTIVA_FINAL to *end*--><g class="link" data-entity-1="SESION_ACTIVA_FINAL" data-entity-2=".end." data-source-line="45" data-uid="lnk12" id="link_SESION_ACTIVA_FINAL_.end."><path d="M689.24,974.2969 C669.08,974.2969 654.67,974.2969 654.67,974.2969 C654.67,974.2969 654.67,1082.9169 654.67,1118.7369" fill="none" id="SESION_ACTIVA_FINAL-to-*end*" style="stroke:#0000FF;stroke-width:1;"/><polygon fill="#0000FF" points="654.67,1124.7369,658.67,1115.7369,654.67,1119.7369,650.67,1115.7369,654.67,1124.7369" style="stroke:#0000FF;stroke-width:1;"/></g><!--link ASISTENCIAS_ABIERTO_FINAL to *end*--><g class="link" data-entity-1="ASISTENCIAS_ABIERTO_FINAL" data-entity-2=".end." data-source-line="46" data-uid="lnk13" id="link_ASISTENCIAS_ABIERTO_FINAL_.end."><path d="M589.27,999.2969 C620.7,999.2969 647.33,999.2969 647.33,999.2969 C647.33,999.2969 647.33,1086.5669 647.33,1118.6269" fill="none" id="ASISTENCIAS_ABIERTO_FINAL-to-*end*" style="stroke:#0000FF;stroke-width:1;"/><polygon fill="#0000FF" points="647.33,1124.6269,651.33,1115.6269,647.33,1119.6269,643.33,1115.6269,647.33,1124.6269" style="stroke:#0000FF;stroke-width:1;"/></g><!--SRC=[bLHBZjD04DttAKfX0uY4OHkD8XcJaIn14k70PZIAAdR5QQNJ7RhRI2E4n5cu0aVW9fo4xeuTEn-78QkuFizLxxsovLOGn9fGGqg6__ub8HPeY9aDbplKk0MfSZAqWpStDwseHhavZmekoJxk29IsQzLAp33FkInSEMF6eYM8qYITZoTn4gMBw6qo_ZYVBf99ufxV0nheNSZthhJU9HFN2FzgJSTfCfqi9f_6dwD5FFqmW-RdMwjyWr01H2S0KJnF74BzrYS1iFkN3z2_VrPe8ldG7rsZWB5h_BH1pZSQGkO5zNeg6THy_e99vOONjBAWf9Tfm_p4jylHJAiL6QN1AC4pRl7szNAqHu1I8fZA5Zb1vh46TMFAZQKjmauxUyYgZmIibDwM0ZLNeSS1PJL0XJLW97Fm4x5EMRw5r-opiP8hNfJQ0Idv3gqoWUfMkC8FkLxeFENw72EK1LeqBzQEbrLNqIbJN5gjyZAZiB905_1BLtDe-bAIvZaE3yr_Vlo4oF12edNWhw3GvKx18w3ZQN1KTKVPsXMibKQNz_mEsYFKd6zBCbOVA7SAb5iA50XiMBuq-v7ANBh_JkVJfeCy_k42-srY7T7iEsFd2ZP5_SQcHtSph0VOM_N_NTerVvSxcph0pFAls7RYnGqqvVlvkxyvxjnGPkGS7mUlDujKldhIlLKGViJ3oPmjSoAxS67CmvcXyINIiM4kx7J4kjjgAKggjUjUxBZmBm00]--></g></svg>