<svg xmlns="http://www.w3.org/2000/svg" xmlns:xlink="http://www.w3.org/1999/xlink" contentStyleType="text/css" data-diagram-type="STATE" height="1137px" preserveAspectRatio="none" style="width:852px;height:1137px;background:#FFFFFF;" version="1.1" viewBox="0 0 852 1137" width="852px" zoomAndPan="magnify"><title>Editar Sesión Clase</title><defs/><g><g class="title" data-source-line="1"><text fill="#000000" font-family="sans-serif" font-size="14" font-weight="bold" lengthAdjust="spacing" textLength="151.8193" x="339.896" y="32.9951">Editar Sesión Clase</text></g><g id="SESION_ASISTENCIA_ABIERTA_INICIAL"><rect fill="#F1F1F1" height="76.2969" rx="12.5" ry="12.5" style="stroke:#181818;stroke-width:0.5;" width="249.084" x="418" y="183.2969"/><line style="stroke:#181818;stroke-width:0.5;" x1="418" x2="667.084" y1="229.5938" y2="229.5938"/><text fill="#000000" font-family="sans-serif" font-size="14" lengthAdjust="spacing" textLength="209.084" x="438" y="211.292">SESION_ASISTENCIA_ABIERTA</text></g><path d="M258.5,359.2969 L826.1113,359.2969 A12.5,12.5 0 0 1 838.6113,371.7969 L838.6113,405.5938 L246,405.5938 L246,371.7969 A12.5,12.5 0 0 1 258.5,359.2969" fill="#F1F1F1"/><rect fill="none" height="272.2969" rx="12.5" ry="12.5" style="stroke:#181818;stroke-width:0.5;" width="592.6113" x="246" y="359.2969"/><line style="stroke:#181818;stroke-width:0.5;" x1="246" x2="838.6113" y1="405.5938" y2="405.5938"/><text fill="#000000" font-family="sans-serif" font-size="14" lengthAdjust="spacing" textLength="209.084" x="437.7637" y="387.292">SESION_ASISTENCIA_ABIERTA</text><g id="EDITAR_SESION_COMP.ModificacionDatos"><rect fill="#F1F1F1" height="76.2969" rx="12.5" ry="12.5" style="stroke:#181818;stroke-width:0.5;" width="194.6494" x="258" y="480.0938"/><line style="stroke:#181818;stroke-width:0.5;" x1="258" x2="452.6494" y1="526.3906" y2="526.3906"/><text fill="#000000" font-family="sans-serif" font-size="14" lengthAdjust="spacing" textLength="154.6494" x="278" y="508.0889">Modificación de Datos</text></g><ellipse cx="355.5" cy="426.5938" fill="#222222" rx="10" ry="10" style="stroke:#222222;stroke-width:1;"/><ellipse cx="355.5" cy="610.5938" fill="none" rx="11" ry="11" style="stroke:#222222;stroke-width:1;"/><ellipse cx="355.5" cy="610.5938" fill="#222222" rx="6" ry="6" style="stroke:#222222;stroke-width:1;"/><g class="entity" data-entity="GMN2" data-source-line="23" data-uid="ent0003" id="entity_GMN2"><path d="M471,472.5938 L471,514.5938 L453.32,518.5938 L471,522.5938 L471,563.125 A0,0 0 0 0 471,563.125 L829.6113,563.125 A0,0 0 0 0 829.6113,563.125 L829.6113,482.5938 L819.6113,472.5938 L471,472.5938 A0,0 0 0 0 471,472.5938" fill="#FEFFDD" style="stroke:#181818;stroke-width:0.5;"/><path d="M819.6113,472.5938 L819.6113,482.5938 L829.6113,482.5938 L819.6113,472.5938" fill="#FEFFDD" style="stroke:#181818;stroke-width:0.5;"/><text fill="#000000" font-family="sans-serif" font-size="13" font-weight="bold" lengthAdjust="spacing" textLength="137.2998" x="487" y="499.6606">Profesor introduce</text><text fill="#000000" font-family="sans-serif" font-size="13" lengthAdjust="spacing" textLength="176.1792" x="628.4321" y="499.6606">la información actualizada:</text><text fill="#000000" font-family="sans-serif" font-size="13" lengthAdjust="spacing" textLength="176.3633" x="487" y="514.7935">• Asignatura, grupo y aula.</text><text fill="#000000" font-family="sans-serif" font-size="13" lengthAdjust="spacing" textLength="142.2129" x="487" y="529.9263">• Fecha, hora y tema.</text><text fill="#000000" font-family="sans-serif" font-size="13" font-weight="bold" lengthAdjust="spacing" textLength="124.1855" x="487" y="545.0591">Sistema muestra</text><text fill="#000000" font-family="sans-serif" font-size="13" lengthAdjust="spacing" textLength="178.4834" x="615.3179" y="545.0591">el resumen de los cambios.</text></g><!--link *start*EDITAR_SESION_COMP to ModificacionDatos--><g class="link" data-entity-1=".start.EDITAR_SESION_COMP" data-entity-2="ModificacionDatos" data-source-line="21" data-uid="lnk6" id="link_.start.EDITAR_SESION_COMP_ModificacionDatos"><path d="M355.5,436.7338 C355.5,447.1538 355.5,458.0338 355.5,473.7238" fill="none" id="*start*EDITAR_SESION_COMP-to-ModificacionDatos" style="stroke:#008000;stroke-width:1;"/><polygon fill="#008000" points="355.5,479.7238,359.5,470.7238,355.5,474.7238,351.5,470.7238,355.5,479.7238" style="stroke:#008000;stroke-width:1;"/></g><!--link ModificacionDatos to *end*EDITAR_SESION_COMP--><g class="link" data-entity-1="ModificacionDatos" data-entity-2=".end.EDITAR_SESION_COMP" data-source-line="28" data-uid="lnk8" id="link_ModificacionDatos_.end.EDITAR_SESION_COMP"><path d="M355.5,556.2538 C355.5,571.7738 355.5,582.5638 355.5,593.3038" fill="none" id="ModificacionDatos-to-*end*EDITAR_SESION_COMP" style="stroke:#008000;stroke-width:1;"/><polygon fill="#008000" points="355.5,599.3038,359.5,590.3038,355.5,594.3038,351.5,590.3038,355.5,599.3038" style="stroke:#008000;stroke-width:1;"/></g><g id="SESION_ASISTENCIA_ABIERTA_FINAL"><rect fill="#F1F1F1" height="76.2969" rx="12.5" ry="12.5" style="stroke:#181818;stroke-width:0.5;" width="249.084" x="418" y="933.2969"/><line style="stroke:#181818;stroke-width:0.5;" x1="418" x2="667.084" y1="979.5938" y2="979.5938"/><text fill="#000000" font-family="sans-serif" font-size="14" lengthAdjust="spacing" textLength="209.084" x="438" y="961.292">SESION_ASISTENCIA_ABIERTA</text></g><ellipse cx="542.5" cy="73.2969" fill="#222222" rx="10" ry="10" style="stroke:#222222;stroke-width:1;"/><ellipse cx="542.5" cy="1120.2969" fill="none" rx="11" ry="11" style="stroke:#222222;stroke-width:1;"/><ellipse cx="542.5" cy="1120.2969" fill="#222222" rx="6" ry="6" style="stroke:#222222;stroke-width:1;"/><!--link *start* to SESION_ASISTENCIA_ABIERTA_INICIAL--><g class="link" data-entity-1=".start." data-entity-2="SESION_ASISTENCIA_ABIERTA_INICIAL" data-source-line="11" data-uid="lnk3" id="link_.start._SESION_ASISTENCIA_ABIERTA_INICIAL"><path d="M542.5,83.4669 C542.5,103.6469 542.5,143.6769 542.5,176.9969" fill="none" id="*start*-to-SESION_ASISTENCIA_ABIERTA_INICIAL" style="stroke:#008000;stroke-width:1;"/><polygon fill="#008000" points="542.5,182.9969,546.5,173.9969,542.5,177.9969,538.5,173.9969,542.5,182.9969" style="stroke:#008000;stroke-width:1;"/></g><!--link SESION_ASISTENCIA_ABIERTA_INICIAL to EDITAR_SESION_COMP--><g class="link" data-entity-1="SESION_ASISTENCIA_ABIERTA_INICIAL" data-entity-2="EDITAR_SESION_COMP" data-source-line="13" data-uid="lnk4" id="link_SESION_ASISTENCIA_ABIERTA_INICIAL_EDITAR_SESION_COMP"><path d="M542.5,259.3969 C542.5,285.7169 542.5,316.4669 542.5,353.1369" fill="none" id="SESION_ASISTENCIA_ABIERTA_INICIAL-to-EDITAR_SESION_COMP" style="stroke:#008000;stroke-width:1;"/><polygon fill="#008000" points="542.5,359.1369,546.5,350.1369,542.5,354.1369,538.5,350.1369,542.5,359.1369" style="stroke:#008000;stroke-width:1;"/><path d="M62.5,244.2669 L62.5,304.2669 L388.5,304.2669 L388.5,254.2669 L378.5,244.2669 L62.5,244.2669" fill="#FEFFDD" style="stroke:#181818;stroke-width:0.5;"/><path d="M378.5,244.2669 L378.5,254.2669 L388.5,254.2669 L378.5,244.2669" fill="#FEFFDD" style="stroke:#181818;stroke-width:0.5;"/><text fill="#000000" font-family="sans-serif" font-size="13" font-weight="bold" lengthAdjust="spacing" textLength="119.6787" x="78.5" y="271.3338">Profesor solicita</text><text fill="#000000" font-family="sans-serif" font-size="13" lengthAdjust="spacing" textLength="161.605" x="202.311" y="271.3338">editar la sesión de clase.</text><text fill="#000000" font-family="sans-serif" font-size="13" font-weight="bold" lengthAdjust="spacing" textLength="128.7622" x="78.5" y="286.4666">Sistema presenta</text><text fill="#000000" font-family="sans-serif" font-size="13" lengthAdjust="spacing" textLength="144.2188" x="211.3945" y="286.4666">los datos de la sesión.</text><text fill="#000000" font-family="sans-serif" font-size="13" lengthAdjust="spacing" textLength="126.6675" x="404.916" y="278.9002">editarSesionClase()</text></g><!--link EDITAR_SESION_COMP to SESION_ASISTENCIA_ABIERTA_FINAL--><g class="link" data-entity-1="EDITAR_SESION_COMP" data-entity-2="SESION_ASISTENCIA_ABIERTA_FINAL" data-source-line="31" data-uid="lnk9" id="link_EDITAR_SESION_COMP_SESION_ASISTENCIA_ABIERTA_FINAL"><path d="M501,631.3769 C501,734.2769 501,862.5069 501,927.1769" fill="none" id="EDITAR_SESION_COMP-to-SESION_ASISTENCIA_ABIERTA_FINAL" style="stroke:#008000;stroke-width:1;"/><polygon fill="#008000" points="501,933.1769,505,924.1769,501,928.1769,497,924.1769,501,933.1769" style="stroke:#008000;stroke-width:1;"/><path d="M6,702.2769 L6,777.2769 L335,777.2769 L335,712.2769 L325,702.2769 L6,702.2769" fill="#FEFFDD" style="stroke:#181818;stroke-width:0.5;"/><path d="M325,702.2769 L325,712.2769 L335,712.2769 L325,702.2769" fill="#FEFFDD" style="stroke:#181818;stroke-width:0.5;"/><text fill="#000000" font-family="sans-serif" font-size="13" font-weight="bold" lengthAdjust="spacing" textLength="77.3589" x="22" y="729.3438">GUARDAR:</text><text fill="#000000" font-family="sans-serif" font-size="13" font-weight="bold" lengthAdjust="spacing" textLength="119.6787" x="22" y="744.4766">Profesor solicita</text><text fill="#000000" font-family="sans-serif" font-size="13" lengthAdjust="spacing" textLength="136.4683" x="145.811" y="744.4766">guardar los cambios.</text><text fill="#000000" font-family="sans-serif" font-size="13" font-weight="bold" lengthAdjust="spacing" textLength="121.5576" x="22" y="759.6094">Sistema registra</text><text fill="#000000" font-family="sans-serif" font-size="13" lengthAdjust="spacing" textLength="162.5444" x="147.6899" y="759.6094">los cambios de la sesión.</text><text fill="#000000" font-family="sans-serif" font-size="13" lengthAdjust="spacing" textLength="139.7627" x="351.2344" y="744.4766">guardarSesionClase()</text></g><!--link EDITAR_SESION_COMP to SESION_ASISTENCIA_ABIERTA_FINAL--><g class="link" data-entity-1="EDITAR_SESION_COMP" data-entity-2="SESION_ASISTENCIA_ABIERTA_FINAL" data-source-line="38" data-uid="lnk10" id="link_EDITAR_SESION_COMP_SESION_ASISTENCIA_ABIERTA_FINAL"><path d="M584,631.3769 C584,734.2769 584,862.5069 584,927.1769" fill="none" id="EDITAR_SESION_COMP-to-SESION_ASISTENCIA_ABIERTA_FINAL-1" style="stroke:#FF0000;stroke-width:1;"/><polygon fill="#FF0000" points="584,933.1769,588,924.1769,584,928.1769,580,924.1769,584,933.1769" style="stroke:#FF0000;stroke-width:1;"/><text fill="#000000" font-family="sans-serif" font-size="13" lengthAdjust="spacing" textLength="96.3193" x="129" y="829.4766">cerrarEdicion()</text><path d="M241.3193,787.2769 L241.3193,862.2769 L578.3193,862.2769 L578.3193,797.2769 L568.3193,787.2769 L241.3193,787.2769" fill="#FEFFDD" style="stroke:#181818;stroke-width:0.5;"/><path d="M568.3193,787.2769 L568.3193,797.2769 L578.3193,797.2769 L568.3193,787.2769" fill="#FEFFDD" style="stroke:#181818;stroke-width:0.5;"/><text fill="#000000" font-family="sans-serif" font-size="13" font-weight="bold" lengthAdjust="spacing" textLength="82.4561" x="257.3193" y="814.3438">CANCELAR:</text><text fill="#000000" font-family="sans-serif" font-size="13" font-weight="bold" lengthAdjust="spacing" textLength="119.6787" x="257.3193" y="829.4766">Profesor solicita</text><text fill="#000000" font-family="sans-serif" font-size="13" lengthAdjust="spacing" textLength="109.6938" x="381.1304" y="829.4766">salir sin guardar.</text><text fill="#000000" font-family="sans-serif" font-size="13" font-weight="bold" lengthAdjust="spacing" textLength="127.1689" x="257.3193" y="844.6094">Sistema descarta</text><text fill="#000000" font-family="sans-serif" font-size="13" lengthAdjust="spacing" textLength="165.5786" x="388.6206" y="844.6094">los cambios introducidos.</text></g><!--link SESION_ASISTENCIA_ABIERTA_FINAL to *end*--><g class="link" data-entity-1="SESION_ASISTENCIA_ABIERTA_FINAL" data-entity-2=".end." data-source-line="45" data-uid="lnk12" id="link_SESION_ASISTENCIA_ABIERTA_FINAL_.end."><path d="M542.5,1009.6669 C542.5,1042.7769 542.5,1082.4569 542.5,1103.2169" fill="none" id="SESION_ASISTENCIA_ABIERTA_FINAL-to-*end*" style="stroke:#0000FF;stroke-width:1;"/><polygon fill="#0000FF" points="542.5,1109.2169,546.5,1100.2169,542.5,1104.2169,538.5,1100.2169,542.5,1109.2169" style="stroke:#0000FF;stroke-width:1;"/></g><!--SRC=[ZPJ1Rjf048Rl-nIZzD9MXQPN526vu5IM4e8mFKKH6ho3MM7lejtr8QqgzLdw2ds4lacUfBjc0HD3m0TBEplpQ_vlnhR25WGn5nOrf6J4lxyI1WKQOcObv1erbY0L9qDh-79ztOXgbAjsj12IxFEQG6cxL8sBCN8kPExI6JCMBK4Qfyd3Q1QbIJgDHuCacaLVatWoZMR9A777Eq03LoUphe9CF4ocqMGMyWOFzsCuV2vIETtCRJ9ohPnJOOyVdw3p-2xNHFAfqp_lZh7p09g2HtpsWEh9-S4fMO_j_GScbVDJqCA2aduUA-OftCpxOwqMP9G6emgHkSARp_D-a802mOJvSuBCQtMtXQambag4jNPx84DTeGnmjFvDZUek8yd1zy1E3-XdhRovlbTSB4I6cRCmhFKywdqqT5HVNTLrhr6t5Egi6eCM-T9nM9p8UGr6IAiLhpBQE4GNM2XTXYuminKMuWToxEtANtx_WSY8NAAjD7w2N5Th1S-0LO7TWwnRofOkOQaqkdiFjDjiOWkvhCXO7MPJW4DUbLGZyCGpBET2cKtbZhG_j3as6Jbcx1TZHsQnp-gykRQRxw07UOMQNxnptxv7as4qwNaxR-zXq6sxRB3Hb8iTd4RYwHKyRbWJlzHkHbgZTdz8ptNhDApLeTL1D1h4TnTvDMwDN4Z8hUkMK_V7pL3RjjFjYWhk-UoDddFYNC-BYi8k_0S0]--></g></svg>