<svg xmlns="http://www.w3.org/2000/svg" xmlns:xlink="http://www.w3.org/1999/xlink" contentStyleType="text/css" data-diagram-type="STATE" height="1137px" preserveAspectRatio="none" style="width:911px;height:1137px;background:#FFFFFF;" version="1.1" viewBox="0 0 911 1137" width="911px" zoomAndPan="magnify"><title>Exportar Historial Asistencias</title><defs/><g><g class="title" data-source-line="1"><text fill="#000000" font-family="sans-serif" font-size="14" font-weight="bold" lengthAdjust="spacing" textLength="234.3701" x="328.4958" y="32.9951">Exportar Historial Asistencias</text></g><g id="ASISTENCIAS_ABIERTO_INICIAL"><rect fill="#F1F1F1" height="76.2969" rx="12.5" ry="12.5" style="stroke:#181818;stroke-width:0.5;" width="200.1729" x="518" y="183.2969"/><line style="stroke:#181818;stroke-width:0.5;" x1="518" x2="718.1729" y1="229.5938" y2="229.5938"/><text fill="#000000" font-family="sans-serif" font-size="14" lengthAdjust="spacing" textLength="160.1729" x="538" y="211.292">ASISTENCIAS_ABIERTO</text></g><path d="M350,359.2969 L885.8618,359.2969 A12.5,12.5 0 0 1 898.3618,371.7969 L898.3618,405.5938 L337.5,405.5938 L337.5,371.7969 A12.5,12.5 0 0 1 350,359.2969" fill="#F1F1F1"/><rect fill="none" height="272.2969" rx="12.5" ry="12.5" style="stroke:#181818;stroke-width:0.5;" width="560.8618" x="337.5" y="359.2969"/><line style="stroke:#181818;stroke-width:0.5;" x1="337.5" x2="898.3618" y1="405.5938" y2="405.5938"/><text fill="#000000" font-family="sans-serif" font-size="14" lengthAdjust="spacing" textLength="160.1729" x="537.8445" y="387.292">ASISTENCIAS_ABIERTO</text><g id="EXPORTACION_COMP.SeleccionParametros"><rect fill="#F1F1F1" height="76.2969" rx="12.5" ry="12.5" style="stroke:#181818;stroke-width:0.5;" width="213.8379" x="349.5" y="480.0938"/><line style="stroke:#181818;stroke-width:0.5;" x1="349.5" x2="563.3379" y1="526.3906" y2="526.3906"/><text fill="#000000" font-family="sans-serif" font-size="14" lengthAdjust="spacing" textLength="173.8379" x="369.5" y="508.0889">Selección de Parámetros</text></g><ellipse cx="456.5" cy="426.5938" fill="#222222" rx="10" ry="10" style="stroke:#222222;stroke-width:1;"/><ellipse cx="456.5" cy="610.5938" fill="none" rx="11" ry="11" style="stroke:#222222;stroke-width:1;"/><ellipse cx="456.5" cy="610.5938" fill="#222222" rx="6" ry="6" style="stroke:#222222;stroke-width:1;"/><g class="entity" data-entity="GMN2" data-source-line="23" data-uid="ent0003" id="entity_GMN2"><path d="M581.5,472.5938 L581.5,514.5938 L563.57,518.5938 L581.5,522.5938 L581.5,563.125 A0,0 0 0 0 581.5,563.125 L889.3618,563.125 A0,0 0 0 0 889.3618,563.125 L889.3618,482.5938 L879.3618,472.5938 L581.5,472.5938 A0,0 0 0 0 581.5,472.5938" fill="#FEFFDD" style="stroke:#181818;stroke-width:0.5;"/><path d="M879.3618,472.5938 L879.3618,482.5938 L889.3618,482.5938 L879.3618,472.5938" fill="#FEFFDD" style="stroke:#181818;stroke-width:0.5;"/><text fill="#000000" font-family="sans-serif" font-size="13" font-weight="bold" lengthAdjust="spacing" textLength="137.2998" x="597.5" y="499.6606">Profesor introduce</text><text fill="#000000" font-family="sans-serif" font-size="13" lengthAdjust="spacing" textLength="111.5474" x="738.9321" y="499.6606">sus preferencias:</text><text fill="#000000" font-family="sans-serif" font-size="13" lengthAdjust="spacing" textLength="215.6172" x="597.5" y="514.7935">• Formato de salida (Excel, PDF).</text><text fill="#000000" font-family="sans-serif" font-size="13" lengthAdjust="spacing" textLength="124.5918" x="597.5" y="529.9263">• Rango de fechas.</text><text fill="#000000" font-family="sans-serif" font-size="13" font-weight="bold" lengthAdjust="spacing" textLength="128.7622" x="597.5" y="545.0591">Sistema presenta</text><text fill="#000000" font-family="sans-serif" font-size="13" lengthAdjust="spacing" textLength="133.9673" x="730.3945" y="545.0591">el archivo generado.</text></g><!--link *start*EXPORTACION_COMP to SeleccionParametros--><g class="link" data-entity-1=".start.EXPORTACION_COMP" data-entity-2="SeleccionParametros" data-source-line="21" data-uid="lnk6" id="link_.start.EXPORTACION_COMP_SeleccionParametros"><path d="M456.5,436.7338 C456.5,447.1538 456.5,458.0338 456.5,473.7238" fill="none" id="*start*EXPORTACION_COMP-to-SeleccionParametros" style="stroke:#008000;stroke-width:1;"/><polygon fill="#008000" points="456.5,479.7238,460.5,470.7238,456.5,474.7238,452.5,470.7238,456.5,479.7238" style="stroke:#008000;stroke-width:1;"/></g><!--link SeleccionParametros to *end*EXPORTACION_COMP--><g class="link" data-entity-1="SeleccionParametros" data-entity-2=".end.EXPORTACION_COMP" data-source-line="28" data-uid="lnk8" id="link_SeleccionParametros_.end.EXPORTACION_COMP"><path d="M456.5,556.2538 C456.5,571.7738 456.5,582.5638 456.5,593.3038" fill="none" id="SeleccionParametros-to-*end*EXPORTACION_COMP" style="stroke:#008000;stroke-width:1;"/><polygon fill="#008000" points="456.5,599.3038,460.5,590.3038,456.5,594.3038,452.5,590.3038,456.5,599.3038" style="stroke:#008000;stroke-width:1;"/></g><g id="ASISTENCIAS_ABIERTO_FINAL"><rect fill="#F1F1F1" height="76.2969" rx="12.5" ry="12.5" style="stroke:#181818;stroke-width:0.5;" width="200.1729" x="518" y="933.2969"/><line style="stroke:#181818;stroke-width:0.5;" x1="518" x2="718.1729" y1="979.5938" y2="979.5938"/><text fill="#000000" font-family="sans-serif" font-size="14" lengthAdjust="spacing" textLength="160.1729" x="538" y="961.292">ASISTENCIAS_ABIERTO</text></g><ellipse cx="618" cy="73.2969" fill="#222222" rx="10" ry="10" style="stroke:#222222;stroke-width:1;"/><ellipse cx="618" cy="1120.2969" fill="none" rx="11" ry="11" style="stroke:#222222;stroke-width:1;"/><ellipse cx="618" cy="1120.2969" fill="#222222" rx="6" ry="6" style="stroke:#222222;stroke-width:1;"/><!--link *start* to ASISTENCIAS_ABIERTO_INICIAL--><g class="link" data-entity-1=".start." data-entity-2="ASISTENCIAS_ABIERTO_INICIAL" data-source-line="11" data-uid="lnk3" id="link_.start._ASISTENCIAS_ABIERTO_INICIAL"><path d="M618,83.4669 C618,103.6469 618,143.6769 618,176.9969" fill="none" id="*start*-to-ASISTENCIAS_ABIERTO_INICIAL" style="stroke:#008000;stroke-width:1;"/><polygon fill="#008000" points="618,182.9969,622,173.9969,618,177.9969,614,173.9969,618,182.9969" style="stroke:#008000;stroke-width:1;"/></g><!--link ASISTENCIAS_ABIERTO_INICIAL to EXPORTACION_COMP--><g class="link" data-entity-1="ASISTENCIAS_ABIERTO_INICIAL" data-entity-2="EXPORTACION_COMP" data-source-line="13" data-uid="lnk4" id="link_ASISTENCIAS_ABIERTO_INICIAL_EXPORTACION_COMP"><path d="M618,259.3969 C618,285.7169 618,316.4669 618,353.1369" fill="none" id="ASISTENCIAS_ABIERTO_INICIAL-to-EXPORTACION_COMP" style="stroke:#008000;stroke-width:1;"/><polygon fill="#008000" points="618,359.1369,622,350.1369,618,354.1369,614,350.1369,618,359.1369" style="stroke:#008000;stroke-width:1;"/><path d="M6,244.2669 L6,304.2669 L399,304.2669 L399,254.2669 L389,244.2669 L6,244.2669" fill="#FEFFDD" style="stroke:#181818;stroke-width:0.5;"/><path d="M389,244.2669 L389,254.2669 L399,254.2669 L389,244.2669" fill="#FEFFDD" style="stroke:#181818;stroke-width:0.5;"/><text fill="#000000" font-family="sans-serif" font-size="13" font-weight="bold" lengthAdjust="spacing" textLength="119.6787" x="22" y="271.3338">Profesor solicita</text><text fill="#000000" font-family="sans-serif" font-size="13" lengthAdjust="spacing" textLength="228.3379" x="145.811" y="271.3338">exportar el historial de asistencias.</text><text fill="#000000" font-family="sans-serif" font-size="13" font-weight="bold" lengthAdjust="spacing" textLength="128.7622" x="22" y="286.4666">Sistema presenta</text><text fill="#000000" font-family="sans-serif" font-size="13" lengthAdjust="spacing" textLength="203.7344" x="154.8945" y="286.4666">los parámetros de exportación.</text><text fill="#000000" font-family="sans-serif" font-size="13" lengthAdjust="spacing" textLength="192.4229" x="415.1489" y="278.9002">exportarHistorialAsistencias()</text></g><!--link EXPORTACION_COMP to ASISTENCIAS_ABIERTO_FINAL--><g class="link" data-entity-1="EXPORTACION_COMP" data-entity-2="ASISTENCIAS_ABIERTO_FINAL" data-source-line="31" data-uid="lnk9" id="link_EXPORTACION_COMP_ASISTENCIAS_ABIERTO_FINAL"><path d="M584.67,631.3769 C584.67,734.2769 584.67,862.5069 584.67,927.1769" fill="none" id="EXPORTACION_COMP-to-ASISTENCIAS_ABIERTO_FINAL" style="stroke:#008000;stroke-width:1;"/><polygon fill="#008000" points="584.67,933.1769,588.67,924.1769,584.67,928.1769,580.67,924.1769,584.67,933.1769" style="stroke:#008000;stroke-width:1;"/><path d="M36.67,702.2769 L36.67,777.2769 L364.67,777.2769 L364.67,712.2769 L354.67,702.2769 L36.67,702.2769" fill="#FEFFDD" style="stroke:#181818;stroke-width:0.5;"/><path d="M354.67,702.2769 L354.67,712.2769 L364.67,712.2769 L354.67,702.2769" fill="#FEFFDD" style="stroke:#181818;stroke-width:0.5;"/><text fill="#000000" font-family="sans-serif" font-size="13" font-weight="bold" lengthAdjust="spacing" textLength="83.6304" x="52.67" y="729.3438">EXPORTAR:</text><text fill="#000000" font-family="sans-serif" font-size="13" font-weight="bold" lengthAdjust="spacing" textLength="119.6787" x="52.67" y="744.4766">Profesor solicita</text><text fill="#000000" font-family="sans-serif" font-size="13" lengthAdjust="spacing" textLength="137.0078" x="176.481" y="744.4766">descargar el archivo.</text><text fill="#000000" font-family="sans-serif" font-size="13" font-weight="bold" lengthAdjust="spacing" textLength="124.1855" x="52.67" y="759.6094">Sistema muestra</text><text fill="#000000" font-family="sans-serif" font-size="13" lengthAdjust="spacing" textLength="159.6118" x="180.9879" y="759.6094">el listado de asistencias.</text><text fill="#000000" font-family="sans-serif" font-size="13" lengthAdjust="spacing" textLength="192.4229" x="381.5997" y="744.4766">exportarHistorialAsistencias()</text></g><!--link EXPORTACION_COMP to ASISTENCIAS_ABIERTO_FINAL--><g class="link" data-entity-1="EXPORTACION_COMP" data-entity-2="ASISTENCIAS_ABIERTO_FINAL" data-source-line="38" data-uid="lnk10" id="link_EXPORTACION_COMP_ASISTENCIAS_ABIERTO_FINAL"><path d="M651.33,631.3769 C651.33,734.2769 651.33,862.5069 651.33,927.1769" fill="none" id="EXPORTACION_COMP-to-ASISTENCIAS_ABIERTO_FINAL-1" style="stroke:#FF0000;stroke-width:1;"/><polygon fill="#FF0000" points="651.33,933.1769,655.33,924.1769,651.33,928.1769,647.33,924.1769,651.33,933.1769" style="stroke:#FF0000;stroke-width:1;"/><text fill="#000000" font-family="sans-serif" font-size="13" lengthAdjust="spacing" textLength="143.0381" x="129.33" y="829.4766">cancelarExportacion()</text><path d="M288.3681,787.2769 L288.3681,862.2769 L646.3681,862.2769 L646.3681,797.2769 L636.3681,787.2769 L288.3681,787.2769" fill="#FEFFDD" style="stroke:#181818;stroke-width:0.5;"/><path d="M636.3681,787.2769 L636.3681,797.2769 L646.3681,797.2769 L636.3681,787.2769" fill="#FEFFDD" style="stroke:#181818;stroke-width:0.5;"/><text fill="#000000" font-family="sans-serif" font-size="13" font-weight="bold" lengthAdjust="spacing" textLength="82.4561" x="304.3681" y="814.3438">CANCELAR:</text><text fill="#000000" font-family="sans-serif" font-size="13" font-weight="bold" lengthAdjust="spacing" textLength="119.6787" x="304.3681" y="829.4766">Profesor solicita</text><text fill="#000000" font-family="sans-serif" font-size="13" lengthAdjust="spacing" textLength="156.6538" x="428.1791" y="829.4766">cancelar la exportación.</text><text fill="#000000" font-family="sans-serif" font-size="13" font-weight="bold" lengthAdjust="spacing" textLength="127.1689" x="304.3681" y="844.6094">Sistema descarta</text><text fill="#000000" font-family="sans-serif" font-size="13" lengthAdjust="spacing" textLength="186.5703" x="435.6694" y="844.6094">los parámetros introducidos.</text></g><!--link ASISTENCIAS_ABIERTO_FINAL to *end*--><g class="link" data-entity-1="ASISTENCIAS_ABIERTO_FINAL" data-entity-2=".end." data-source-line="45" data-uid="lnk12" id="link_ASISTENCIAS_ABIERTO_FINAL_.end."><path d="M618,1009.6669 C618,1042.7769 618,1082.4569 618,1103.2169" fill="none" id="ASISTENCIAS_ABIERTO_FINAL-to-*end*" style="stroke:#0000FF;stroke-width:1;"/><polygon fill="#0000FF" points="618,1109.2169,622,1100.2169,618,1104.2169,614,1100.2169,618,1109.2169" style="stroke:#0000FF;stroke-width:1;"/></g><!--SRC=[dLJTRjem5BxtKnonctOghBj55LBAWXQfWmYuc5HLo3Y7O65iP9kfqpHfhxAzmXwXRx8dcPq_0YHqMgwIutC- -_jnBBS28NpUAMsfXe_SMAKv5H0OzugISMg8sN2vevfkGQe43UxW_UrjhQgft9nN1PTel-uG7FHQrHPYcYHSfgwT46EfHGXcqMmUZeTHC5i4zr4udKyMqJXotmz03NGQrZl5QFWvdapdmJ2QZ1V3oQSOQiyheqsxZgAns_F2A7by-mJTnpUfHfHFtS6binDoYLWTv8n57x3mfBAaviZLDP7ACH2uig2abtf3FEExvI3MQeL6QJ1ASCOjlNkt75HeW0BMbSa9Eg8LQg-4cFdIbi9EExDbWI2K0UVVoyyjMktUtMm1olZBRzaZA1Fmfo9jpdpByFF56GfaZ2iP-qZaY5xpeku0_GRnORzEDdmgVWDCrfUfetcwTlAiMhjE5UFIBILxXXbXipTUWHNgN9v-DVFdnoyOARsbLlbJ6YfuGk4gV6OeRY3-CBhk7VLEgKoppXMoTQdp9QsTILIpDV-Y84M9cYOg7weqzXzD6jR5SMAHxuIS-N3ewRRaDxy5_v_1OijftxEv74ptFs5Kftao2z9dGTpkqLXTQIDSsKbo5jz30fiuQqnUPyoeT2PI7PRHLh8aMiJfcEam60_3XtzYMaA3e2StvuHjBadBjIipoXDrnBYTbAE-57ii4l4N]--></g></svg>