<svg xmlns="http://www.w3.org/2000/svg" xmlns:xlink="http://www.w3.org/1999/xlink" contentStyleType="text/css" data-diagram-type="STATE" height="1137px" preserveAspectRatio="none" style="width:906px;height:1137px;background:#FFFFFF;" version="1.1" viewBox="0 0 906 1137" width="906px" zoomAndPan="magnify"><title>Registrar Toma Asistencia</title><defs/><g><g class="title" data-source-line="1"><text fill="#000000" font-family="sans-serif" font-size="14" font-weight="bold" lengthAdjust="spacing" textLength="207.3271" x="339.4258" y="32.9951">Registrar Toma Asistencia</text></g><g id="SESION_ASISTENCIA_ABIERTA_INICIAL"><rect fill="#F1F1F1" height="76.2969" rx="12.5" ry="12.5" style="stroke:#181818;stroke-width:0.5;" width="249.084" x="444.5" y="183.2969"/><line style="stroke:#181818;stroke-width:0.5;" x1="444.5" x2="693.584" y1="229.5938" y2="229.5938"/><text fill="#000000" font-family="sans-serif" font-size="14" lengthAdjust="spacing" textLength="209.084" x="464.5" y="211.292">SESION_ASISTENCIA_ABIERTA</text></g><path d="M257,359.2969 L880.6787,359.2969 A12.5,12.5 0 0 1 893.1787,371.7969 L893.1787,405.5938 L244.5,405.5938 L244.5,371.7969 A12.5,12.5 0 0 1 257,359.2969" fill="#F1F1F1"/><rect fill="none" height="272.2969" rx="12.5" ry="12.5" style="stroke:#181818;stroke-width:0.5;" width="648.6787" x="244.5" y="359.2969"/><line style="stroke:#181818;stroke-width:0.5;" x1="244.5" x2="893.1787" y1="405.5938" y2="405.5938"/><text fill="#000000" font-family="sans-serif" font-size="14" lengthAdjust="spacing" textLength="209.084" x="464.2974" y="387.292">SESION_ASISTENCIA_ABIERTA</text><g id="TOMA_ASISTENCIA_COMP.VisualizacionListado"><rect fill="#F1F1F1" height="76.2969" rx="12.5" ry="12.5" style="stroke:#181818;stroke-width:0.5;" width="207.8496" x="256.5" y="480.0938"/><line style="stroke:#181818;stroke-width:0.5;" x1="256.5" x2="464.3496" y1="526.3906" y2="526.3906"/><text fill="#000000" font-family="sans-serif" font-size="14" lengthAdjust="spacing" textLength="167.8496" x="276.5" y="508.0889">Visualización de Listado</text></g><ellipse cx="360.5" cy="426.5938" fill="#222222" rx="10" ry="10" style="stroke:#222222;stroke-width:1;"/><ellipse cx="360.5" cy="610.5938" fill="none" rx="11" ry="11" style="stroke:#222222;stroke-width:1;"/><ellipse cx="360.5" cy="610.5938" fill="#222222" rx="6" ry="6" style="stroke:#222222;stroke-width:1;"/><g class="entity" data-entity="GMN2" data-source-line="23" data-uid="ent0003" id="entity_GMN2"><path d="M483,472.5938 L483,514.5938 L464.92,518.5938 L483,522.5938 L483,563.125 A0,0 0 0 0 483,563.125 L884.1787,563.125 A0,0 0 0 0 884.1787,563.125 L884.1787,482.5938 L874.1787,472.5938 L483,472.5938 A0,0 0 0 0 483,472.5938" fill="#FEFFDD" style="stroke:#181818;stroke-width:0.5;"/><path d="M874.1787,472.5938 L874.1787,482.5938 L884.1787,482.5938 L874.1787,472.5938" fill="#FEFFDD" style="stroke:#181818;stroke-width:0.5;"/><text fill="#000000" font-family="sans-serif" font-size="13" font-weight="bold" lengthAdjust="spacing" textLength="124.1855" x="499" y="499.6606">Sistema muestra</text><text fill="#000000" font-family="sans-serif" font-size="13" lengthAdjust="spacing" textLength="231.8608" x="627.3179" y="499.6606">el listado de alumnos matriculados.</text><text fill="#000000" font-family="sans-serif" font-size="13" font-weight="bold" lengthAdjust="spacing" textLength="137.2998" x="499" y="514.7935">Profesor introduce</text><text fill="#000000" font-family="sans-serif" font-size="13" lengthAdjust="spacing" textLength="172.8149" x="640.4321" y="514.7935">el estado de cada alumno:</text><text fill="#000000" font-family="sans-serif" font-size="13" lengthAdjust="spacing" textLength="189.249" x="499" y="529.9263">• Presente / Ausente / Tarde.</text><text fill="#000000" font-family="sans-serif" font-size="13" lengthAdjust="spacing" textLength="161.0908" x="499" y="545.0591">• Justificación (si aplica).</text></g><!--link *start*TOMA_ASISTENCIA_COMP to VisualizacionListado--><g class="link" data-entity-1=".start.TOMA_ASISTENCIA_COMP" data-entity-2="VisualizacionListado" data-source-line="21" data-uid="lnk6" id="link_.start.TOMA_ASISTENCIA_COMP_VisualizacionListado"><path d="M360.5,436.7338 C360.5,447.1538 360.5,458.0338 360.5,473.7238" fill="none" id="*start*TOMA_ASISTENCIA_COMP-to-VisualizacionListado" style="stroke:#008000;stroke-width:1;"/><polygon fill="#008000" points="360.5,479.7238,364.5,470.7238,360.5,474.7238,356.5,470.7238,360.5,479.7238" style="stroke:#008000;stroke-width:1;"/></g><!--link VisualizacionListado to *end*TOMA_ASISTENCIA_COMP--><g class="link" data-entity-1="VisualizacionListado" data-entity-2=".end.TOMA_ASISTENCIA_COMP" data-source-line="28" data-uid="lnk8" id="link_VisualizacionListado_.end.TOMA_ASISTENCIA_COMP"><path d="M360.5,556.2538 C360.5,571.7738 360.5,582.5638 360.5,593.3038" fill="none" id="VisualizacionListado-to-*end*TOMA_ASISTENCIA_COMP" style="stroke:#008000;stroke-width:1;"/><polygon fill="#008000" points="360.5,599.3038,364.5,590.3038,360.5,594.3038,356.5,590.3038,360.5,599.3038" style="stroke:#008000;stroke-width:1;"/></g><g id="SESION_ASISTENCIA_ABIERTA_FINAL"><rect fill="#F1F1F1" height="76.2969" rx="12.5" ry="12.5" style="stroke:#181818;stroke-width:0.5;" width="249.084" x="444.5" y="933.2969"/><line style="stroke:#181818;stroke-width:0.5;" x1="444.5" x2="693.584" y1="979.5938" y2="979.5938"/><text fill="#000000" font-family="sans-serif" font-size="14" lengthAdjust="spacing" textLength="209.084" x="464.5" y="961.292">SESION_ASISTENCIA_ABIERTA</text></g><ellipse cx="569" cy="73.2969" fill="#222222" rx="10" ry="10" style="stroke:#222222;stroke-width:1;"/><ellipse cx="569" cy="1120.2969" fill="none" rx="11" ry="11" style="stroke:#222222;stroke-width:1;"/><ellipse cx="569" cy="1120.2969" fill="#222222" rx="6" ry="6" style="stroke:#222222;stroke-width:1;"/><!--link *start* to SESION_ASISTENCIA_ABIERTA_INICIAL--><g class="link" data-entity-1=".start." data-entity-2="SESION_ASISTENCIA_ABIERTA_INICIAL" data-source-line="11" data-uid="lnk3" id="link_.start._SESION_ASISTENCIA_ABIERTA_INICIAL"><path d="M569,83.4669 C569,103.6469 569,143.6769 569,176.9969" fill="none" id="*start*-to-SESION_ASISTENCIA_ABIERTA_INICIAL" style="stroke:#008000;stroke-width:1;"/><polygon fill="#008000" points="569,182.9969,573,173.9969,569,177.9969,565,173.9969,569,182.9969" style="stroke:#008000;stroke-width:1;"/></g><!--link SESION_ASISTENCIA_ABIERTA_INICIAL to TOMA_ASISTENCIA_COMP--><g class="link" data-entity-1="SESION_ASISTENCIA_ABIERTA_INICIAL" data-entity-2="TOMA_ASISTENCIA_COMP" data-source-line="13" data-uid="lnk4" id="link_SESION_ASISTENCIA_ABIERTA_INICIAL_TOMA_ASISTENCIA_COMP"><path d="M569,259.3969 C569,285.7169 569,316.4669 569,353.1369" fill="none" id="SESION_ASISTENCIA_ABIERTA_INICIAL-to-TOMA_ASISTENCIA_COMP" style="stroke:#008000;stroke-width:1;"/><polygon fill="#008000" points="569,359.1369,573,350.1369,569,354.1369,565,350.1369,569,359.1369" style="stroke:#008000;stroke-width:1;"/><path d="M6,244.2669 L6,304.2669 L373,304.2669 L373,254.2669 L363,244.2669 L6,244.2669" fill="#FEFFDD" style="stroke:#181818;stroke-width:0.5;"/><path d="M363,244.2669 L363,254.2669 L373,254.2669 L363,244.2669" fill="#FEFFDD" style="stroke:#181818;stroke-width:0.5;"/><text fill="#000000" font-family="sans-serif" font-size="13" font-weight="bold" lengthAdjust="spacing" textLength="119.6787" x="22" y="271.3338">Profesor solicita</text><text fill="#000000" font-family="sans-serif" font-size="13" lengthAdjust="spacing" textLength="203.0869" x="145.811" y="271.3338">registrar la toma de asistencia.</text><text fill="#000000" font-family="sans-serif" font-size="13" font-weight="bold" lengthAdjust="spacing" textLength="128.7622" x="22" y="286.4666">Sistema presenta</text><text fill="#000000" font-family="sans-serif" font-size="13" lengthAdjust="spacing" textLength="143.1016" x="154.8945" y="286.4666">el listado de alumnos.</text><text fill="#000000" font-family="sans-serif" font-size="13" lengthAdjust="spacing" textLength="168.5112" x="389.8979" y="278.9002">registrarTomaAsistencia()</text></g><!--link TOMA_ASISTENCIA_COMP to SESION_ASISTENCIA_ABIERTA_FINAL--><g class="link" data-entity-1="TOMA_ASISTENCIA_COMP" data-entity-2="SESION_ASISTENCIA_ABIERTA_FINAL" data-source-line="31" data-uid="lnk9" id="link_TOMA_ASISTENCIA_COMP_SESION_ASISTENCIA_ABIERTA_FINAL"><path d="M527.5,631.3769 C527.5,734.2769 527.5,862.5069 527.5,927.1769" fill="none" id="TOMA_ASISTENCIA_COMP-to-SESION_ASISTENCIA_ABIERTA_FINAL" style="stroke:#008000;stroke-width:1;"/><polygon fill="#008000" points="527.5,933.1769,531.5,924.1769,527.5,928.1769,523.5,924.1769,527.5,933.1769" style="stroke:#008000;stroke-width:1;"/><path d="M40.5,702.2769 L40.5,777.2769 L373.5,777.2769 L373.5,712.2769 L363.5,702.2769 L40.5,702.2769" fill="#FEFFDD" style="stroke:#181818;stroke-width:0.5;"/><path d="M363.5,702.2769 L363.5,712.2769 L373.5,712.2769 L363.5,702.2769" fill="#FEFFDD" style="stroke:#181818;stroke-width:0.5;"/><text fill="#000000" font-family="sans-serif" font-size="13" font-weight="bold" lengthAdjust="spacing" textLength="77.3589" x="56.5" y="729.3438">GUARDAR:</text><text fill="#000000" font-family="sans-serif" font-size="13" font-weight="bold" lengthAdjust="spacing" textLength="119.6787" x="56.5" y="744.4766">Profesor solicita</text><text fill="#000000" font-family="sans-serif" font-size="13" lengthAdjust="spacing" textLength="140.5244" x="180.311" y="744.4766">guardar la asistencia.</text><text fill="#000000" font-family="sans-serif" font-size="13" font-weight="bold" lengthAdjust="spacing" textLength="121.5576" x="56.5" y="759.6094">Sistema registra</text><text fill="#000000" font-family="sans-serif" font-size="13" lengthAdjust="spacing" textLength="166.6006" x="182.1899" y="759.6094">la asistencia de la sesión.</text><text fill="#000000" font-family="sans-serif" font-size="13" lengthAdjust="spacing" textLength="127.6196" x="389.7905" y="744.4766">guardarAsistencia()</text></g><!--link TOMA_ASISTENCIA_COMP to SESION_ASISTENCIA_ABIERTA_FINAL--><g class="link" data-entity-1="TOMA_ASISTENCIA_COMP" data-entity-2="SESION_ASISTENCIA_ABIERTA_FINAL" data-source-line="38" data-uid="lnk10" id="link_TOMA_ASISTENCIA_COMP_SESION_ASISTENCIA_ABIERTA_FINAL"><path d="M610.5,631.3769 C610.5,734.2769 610.5,862.5069 610.5,927.1769" fill="none" id="TOMA_ASISTENCIA_COMP-to-SESION_ASISTENCIA_ABIERTA_FINAL-1" style="stroke:#FF0000;stroke-width:1;"/><polygon fill="#FF0000" points="610.5,933.1769,614.5,924.1769,610.5,928.1769,606.5,924.1769,610.5,933.1769" style="stroke:#FF0000;stroke-width:1;"/><text fill="#000000" font-family="sans-serif" font-size="13" lengthAdjust="spacing" textLength="131.6758" x="120.5" y="829.4766">cancelarAsistencia()</text><path d="M268.1758,787.2769 L268.1758,862.2769 L605.1758,862.2769 L605.1758,797.2769 L595.1758,787.2769 L268.1758,787.2769" fill="#FEFFDD" style="stroke:#181818;stroke-width:0.5;"/><path d="M595.1758,787.2769 L595.1758,797.2769 L605.1758,797.2769 L595.1758,787.2769" fill="#FEFFDD" style="stroke:#181818;stroke-width:0.5;"/><text fill="#000000" font-family="sans-serif" font-size="13" font-weight="bold" lengthAdjust="spacing" textLength="82.4561" x="284.1758" y="814.3438">CANCELAR:</text><text fill="#000000" font-family="sans-serif" font-size="13" font-weight="bold" lengthAdjust="spacing" textLength="119.6787" x="284.1758" y="829.4766">Profesor solicita</text><text fill="#000000" font-family="sans-serif" font-size="13" lengthAdjust="spacing" textLength="129.8032" x="407.9868" y="829.4766">cancelar el registro.</text><text fill="#000000" font-family="sans-serif" font-size="13" font-weight="bold" lengthAdjust="spacing" textLength="127.1689" x="284.1758" y="844.6094">Sistema descarta</text><text fill="#000000" font-family="sans-serif" font-size="13" lengthAdjust="spacing" textLength="165.5786" x="415.4771" y="844.6094">los cambios introducidos.</text></g><!--link SESION_ASISTENCIA_ABIERTA_FINAL to *end*--><g class="link" data-entity-1="SESION_ASISTENCIA_ABIERTA_FINAL" data-entity-2=".end." data-source-line="45" data-uid="lnk12" id="link_SESION_ASISTENCIA_ABIERTA_FINAL_.end."><path d="M569,1009.6669 C569,1042.7769 569,1082.4569 569,1103.2169" fill="none" id="SESION_ASISTENCIA_ABIERTA_FINAL-to-*end*" style="stroke:#0000FF;stroke-width:1;"/><polygon fill="#0000FF" points="569,1109.2169,573,1100.2169,569,1104.2169,565,1100.2169,569,1109.2169" style="stroke:#0000FF;stroke-width:1;"/></g><!--SRC=[ZLJRRXen47ttLup8Ir89ahwY26bBQBKL0GIqBr641kz0BBmsihqFRLMftz9Vw2VqJ_ebjHSlB0atNi0pPyxwd3cB4quIZ6afh3DeOAfpXCJw4oakaDcLK6iqc8FI6LbQm_kxkrhLe5gzhKgXo7rR4sZZNdIjCS8i4shfuOnPXuvWqfkamy4icQIJQM_GJPDPyY7jZQV9B1sa_jW7jD0uYcf4ckdmCQctkyF74TG_5x4Slyp7TE2lSew5FRrxXkRJrT8GgUTcvxmwniuRK2SygBCDfbfWsDzkVTStJ6clIzB2WLPXBoiMtBYVTqP6ByXg0rPBmON3-zjvPqS44i65C6JaLLU4hMfw4Yg-kpO-52eEa_HFy4vckfoIHQwqRJ5I6OHhi5Ex-b4oRm1VXIrGYk_8XLRzo1YihpN-_b7X8R7RAATVkt-8fmIMfXYnVF6kB8x3NcdD2mhM79SAEJeZU25zsRRg55kpXN96PmMdYeMs91mpZ4pjxUo_NxzXjF6Ou1QIelerHPDHQm_tkR1EB0IFxbnR0RZskyMR3MwxXt0uw77TF6yc-ydOmMNjSCsJ8T-yDMrO5lwsQ2uBvgSloVWX6RU3GwV36cb3L4z4j8fqER873QxxWYKR3Ai7zPXgGzcbcZagJlAGw1YyVTNTPD3jzI-INJ67-4Hn-erg_sVDqSG9wRF9CPyB_rqbK6Jxx-OvHLxzN1OKe_4V]--></g></svg>