<svg xmlns="http://www.w3.org/2000/svg" xmlns:xlink="http://www.w3.org/1999/xlink" contentStyleType="text/css" data-diagram-type="STATE" height="1122px" preserveAspectRatio="none" style="width:928px;height:1122px;background:#FFFFFF;" version="1.1" viewBox="0 0 928 1122" width="928px" zoomAndPan="magnify"><title>Consultar Usuario</title><defs/><g><g class="title" data-source-line="1"><text fill="#000000" font-family="sans-serif" font-size="14" font-weight="bold" lengthAdjust="spacing" textLength="141.3125" x="383.3401" y="32.9951">Consultar Usuario</text></g><g id="USUARIOS_ABIERTO_INICIAL"><rect fill="#F1F1F1" height="76.2969" rx="12.5" ry="12.5" style="stroke:#181818;stroke-width:0.5;" width="181.1758" x="491.5" y="183.2969"/><line style="stroke:#181818;stroke-width:0.5;" x1="491.5" x2="672.6758" y1="229.5938" y2="229.5938"/><text fill="#000000" font-family="sans-serif" font-size="14" lengthAdjust="spacing" textLength="141.1758" x="511.5" y="211.292">USUARIOS_ABIERTO</text></g><path d="M262,359.2969 L902.4927,359.2969 A12.5,12.5 0 0 1 914.9927,371.7969 L914.9927,405.5938 L249.5,405.5938 L249.5,371.7969 A12.5,12.5 0 0 1 262,359.2969" fill="#F1F1F1"/><rect fill="none" height="257.2969" rx="12.5" ry="12.5" style="stroke:#181818;stroke-width:0.5;" width="665.4927" x="249.5" y="359.2969"/><line style="stroke:#181818;stroke-width:0.5;" x1="249.5" x2="914.9927" y1="405.5938" y2="405.5938"/><text fill="#000000" font-family="sans-serif" font-size="14" lengthAdjust="spacing" textLength="132.2891" x="516.1018" y="387.292">USUARIO_ABIERTO</text><g id="USUARIO_ABIERTO.VisualizacionDatos"><rect fill="#F1F1F1" height="76.2969" rx="12.5" ry="12.5" style="stroke:#181818;stroke-width:0.5;" width="210.5498" x="261.5" y="472.5938"/><line style="stroke:#181818;stroke-width:0.5;" x1="261.5" x2="472.0498" y1="518.8906" y2="518.8906"/><text fill="#000000" font-family="sans-serif" font-size="14" lengthAdjust="spacing" textLength="170.5498" x="281.5" y="500.5889">Visualización de Usuario</text></g><ellipse cx="367" cy="426.5938" fill="#222222" rx="10" ry="10" style="stroke:#222222;stroke-width:1;"/><ellipse cx="367" cy="595.5938" fill="none" rx="11" ry="11" style="stroke:#222222;stroke-width:1;"/><ellipse cx="367" cy="595.5938" fill="#222222" rx="6" ry="6" style="stroke:#222222;stroke-width:1;"/><g class="entity" data-entity="GMN2" data-source-line="20" data-uid="ent0003" id="entity_GMN2"><path d="M490.5,473.0938 L490.5,506.5938 L472.64,510.5938 L490.5,514.5938 L490.5,548.4922 A0,0 0 0 0 490.5,548.4922 L905.9927,548.4922 A0,0 0 0 0 905.9927,548.4922 L905.9927,483.0938 L895.9927,473.0938 L490.5,473.0938 A0,0 0 0 0 490.5,473.0938" fill="#FEFFDD" style="stroke:#181818;stroke-width:0.5;"/><path d="M895.9927,473.0938 L895.9927,483.0938 L905.9927,483.0938 L895.9927,473.0938" fill="#FEFFDD" style="stroke:#181818;stroke-width:0.5;"/><text fill="#000000" font-family="sans-serif" font-size="13" font-weight="bold" lengthAdjust="spacing" textLength="124.1855" x="506.5" y="500.1606">Sistema muestra</text><text fill="#000000" font-family="sans-serif" font-size="13" lengthAdjust="spacing" textLength="184.958" x="634.8179" y="500.1606">las credenciales del usuario.</text><text fill="#000000" font-family="sans-serif" font-size="13" font-weight="bold" lengthAdjust="spacing" textLength="184.666" x="506.5" y="515.2935">Sistema permite solicitar</text><text fill="#000000" font-family="sans-serif" font-size="13" lengthAdjust="spacing" textLength="185.6943" x="695.2983" y="515.2935">gestionar cambios mediante</text><text fill="#000000" font-family="sans-serif" font-size="13" lengthAdjust="spacing" textLength="101.9497" x="506.5" y="530.4263">editarUsuario().</text></g><!--link *start*USUARIO_ABIERTO to VisualizacionDatos--><g class="link" data-entity-1=".start.USUARIO_ABIERTO" data-entity-2="VisualizacionDatos" data-source-line="18" data-uid="lnk6" id="link_.start.USUARIO_ABIERTO_VisualizacionDatos"><path d="M367,436.8938 C367,445.8338 367,453.3438 367,466.3738" fill="none" id="*start*USUARIO_ABIERTO-to-VisualizacionDatos" style="stroke:#008000;stroke-width:1;"/><polygon fill="#008000" points="367,472.3738,371,463.3738,367,467.3738,363,463.3738,367,472.3738" style="stroke:#008000;stroke-width:1;"/></g><!--link VisualizacionDatos to *end*USUARIO_ABIERTO--><g class="link" data-entity-1="VisualizacionDatos" data-entity-2=".end.USUARIO_ABIERTO" data-source-line="24" data-uid="lnk8" id="link_VisualizacionDatos_.end.USUARIO_ABIERTO"><path d="M367,548.6138 C367,561.7038 367,569.3538 367,578.5538" fill="none" id="VisualizacionDatos-to-*end*USUARIO_ABIERTO" style="stroke:#008000;stroke-width:1;"/><polygon fill="#008000" points="367,584.5538,371,575.5538,367,579.5538,363,575.5538,367,584.5538" style="stroke:#008000;stroke-width:1;"/></g><g id="USUARIOS_ABIERTO_FINAL"><rect fill="#F1F1F1" height="76.2969" rx="12.5" ry="12.5" style="stroke:#181818;stroke-width:0.5;" width="181.1758" x="491.5" y="918.2969"/><line style="stroke:#181818;stroke-width:0.5;" x1="491.5" x2="672.6758" y1="964.5938" y2="964.5938"/><text fill="#000000" font-family="sans-serif" font-size="14" lengthAdjust="spacing" textLength="141.1758" x="511.5" y="946.292">USUARIOS_ABIERTO</text></g><ellipse cx="582" cy="73.2969" fill="#222222" rx="10" ry="10" style="stroke:#222222;stroke-width:1;"/><ellipse cx="582" cy="1105.2969" fill="none" rx="11" ry="11" style="stroke:#222222;stroke-width:1;"/><ellipse cx="582" cy="1105.2969" fill="#222222" rx="6" ry="6" style="stroke:#222222;stroke-width:1;"/><!--link *start* to USUARIOS_ABIERTO_INICIAL--><g class="link" data-entity-1=".start." data-entity-2="USUARIOS_ABIERTO_INICIAL" data-source-line="9" data-uid="lnk3" id="link_.start._USUARIOS_ABIERTO_INICIAL"><path d="M582,83.4669 C582,103.6469 582,143.6769 582,176.9969" fill="none" id="*start*-to-USUARIOS_ABIERTO_INICIAL" style="stroke:#008000;stroke-width:1;"/><polygon fill="#008000" points="582,182.9969,586,173.9969,582,177.9969,578,173.9969,582,182.9969" style="stroke:#008000;stroke-width:1;"/></g><!--link USUARIOS_ABIERTO_INICIAL to USUARIO_ABIERTO--><g class="link" data-entity-1="USUARIOS_ABIERTO_INICIAL" data-entity-2="USUARIO_ABIERTO" data-source-line="10" data-uid="lnk4" id="link_USUARIOS_ABIERTO_INICIAL_USUARIO_ABIERTO"><path d="M582,259.4769 C582,285.8869 582,316.6969 582,353.0569" fill="none" id="USUARIOS_ABIERTO_INICIAL-to-USUARIO_ABIERTO" style="stroke:#008000;stroke-width:1;"/><polygon fill="#008000" points="582,359.0569,586,350.0569,582,354.0569,578,350.0569,582,359.0569" style="stroke:#008000;stroke-width:1;"/><path d="M6,229.2669 L6,304.2669 L435,304.2669 L435,239.2669 L425,229.2669 L6,229.2669" fill="#FEFFDD" style="stroke:#181818;stroke-width:0.5;"/><path d="M425,229.2669 L425,239.2669 L435,239.2669 L425,229.2669" fill="#FEFFDD" style="stroke:#181818;stroke-width:0.5;"/><text fill="#000000" font-family="sans-serif" font-size="13" font-weight="bold" lengthAdjust="spacing" textLength="162.1191" x="22" y="256.3338">Administrador solicita</text><text fill="#000000" font-family="sans-serif" font-size="13" lengthAdjust="spacing" textLength="222.168" x="188.2515" y="256.3338">consultar el detalle de un usuario.</text><text fill="#000000" font-family="sans-serif" font-size="13" font-weight="bold" lengthAdjust="spacing" textLength="128.7622" x="22" y="271.4666">Sistema presenta</text><text fill="#000000" font-family="sans-serif" font-size="13" lengthAdjust="spacing" textLength="112.0742" x="154.8945" y="271.4666">la ficha completa</text><text fill="#000000" font-family="sans-serif" font-size="13" lengthAdjust="spacing" textLength="170.625" x="22" y="286.5994">(Datos, Roles y Permisos).</text><text fill="#000000" font-family="sans-serif" font-size="13" lengthAdjust="spacing" textLength="119.9199" x="451.4194" y="271.4666">consultarUsuario()</text></g><!--link USUARIO_ABIERTO to USUARIOS_ABIERTO_FINAL--><g class="link" data-entity-1="USUARIO_ABIERTO" data-entity-2="USUARIOS_ABIERTO_FINAL" data-source-line="26" data-uid="lnk9" id="link_USUARIO_ABIERTO_USUARIOS_ABIERTO_FINAL"><path d="M551.83,616.4369 C551.83,718.0169 551.83,847.1169 551.83,912.1369" fill="none" id="USUARIO_ABIERTO-to-USUARIOS_ABIERTO_FINAL" style="stroke:#008000;stroke-width:1;"/><polygon fill="#008000" points="551.83,918.1369,555.83,909.1369,551.83,913.1369,547.83,909.1369,551.83,918.1369" style="stroke:#008000;stroke-width:1;"/><path d="M88.83,687.2869 L88.83,762.2869 L413.83,762.2869 L413.83,697.2869 L403.83,687.2869 L88.83,687.2869" fill="#FEFFDD" style="stroke:#181818;stroke-width:0.5;"/><path d="M403.83,687.2869 L403.83,697.2869 L413.83,697.2869 L403.83,687.2869" fill="#FEFFDD" style="stroke:#181818;stroke-width:0.5;"/><text fill="#000000" font-family="sans-serif" font-size="13" font-weight="bold" lengthAdjust="spacing" textLength="77.3589" x="104.83" y="714.3538">GUARDAR:</text><text fill="#000000" font-family="sans-serif" font-size="13" font-weight="bold" lengthAdjust="spacing" textLength="162.1191" x="104.83" y="729.4866">Administrador solicita</text><text fill="#000000" font-family="sans-serif" font-size="13" lengthAdjust="spacing" textLength="118.3647" x="271.0815" y="729.4866">registrar cambios.</text><text fill="#000000" font-family="sans-serif" font-size="13" font-weight="bold" lengthAdjust="spacing" textLength="121.5576" x="104.83" y="744.6194">Sistema registra</text><text fill="#000000" font-family="sans-serif" font-size="13" lengthAdjust="spacing" textLength="157.2251" x="230.5199" y="744.6194">los cambios del usuario.</text><text fill="#000000" font-family="sans-serif" font-size="13" lengthAdjust="spacing" textLength="110.9126" x="430.4462" y="729.4866">guardarUsuario()</text></g><!--link USUARIO_ABIERTO to USUARIOS_ABIERTO_FINAL--><g class="link" data-entity-1="USUARIO_ABIERTO" data-entity-2="USUARIOS_ABIERTO_FINAL" data-source-line="32" data-uid="lnk10" id="link_USUARIO_ABIERTO_USUARIOS_ABIERTO_FINAL"><path d="M612.17,616.4369 C612.17,718.0169 612.17,847.1169 612.17,912.1369" fill="none" id="USUARIO_ABIERTO-to-USUARIOS_ABIERTO_FINAL-1" style="stroke:#FF0000;stroke-width:1;"/><polygon fill="#FF0000" points="612.17,918.1369,616.17,909.1369,612.17,913.1369,608.17,909.1369,612.17,918.1369" style="stroke:#FF0000;stroke-width:1;"/><text fill="#000000" font-family="sans-serif" font-size="13" lengthAdjust="spacing" textLength="98.6934" x="123.17" y="814.4866">cerrarUsuario()</text><path d="M237.8634,772.2869 L237.8634,847.2869 L606.8634,847.2869 L606.8634,782.2869 L596.8634,772.2869 L237.8634,772.2869" fill="#FEFFDD" style="stroke:#181818;stroke-width:0.5;"/><path d="M596.8634,772.2869 L596.8634,782.2869 L606.8634,782.2869 L596.8634,772.2869" fill="#FEFFDD" style="stroke:#181818;stroke-width:0.5;"/><text fill="#000000" font-family="sans-serif" font-size="13" font-weight="bold" lengthAdjust="spacing" textLength="63.7114" x="253.8634" y="799.3538">CERRAR:</text><text fill="#000000" font-family="sans-serif" font-size="13" font-weight="bold" lengthAdjust="spacing" textLength="162.1191" x="253.8634" y="814.4866">Administrador solicita</text><text fill="#000000" font-family="sans-serif" font-size="13" lengthAdjust="spacing" textLength="103.2065" x="420.1148" y="814.4866">salir de la ficha.</text><text fill="#000000" font-family="sans-serif" font-size="13" font-weight="bold" lengthAdjust="spacing" textLength="128.7622" x="253.8634" y="829.6194">Sistema presenta</text><text fill="#000000" font-family="sans-serif" font-size="13" lengthAdjust="spacing" textLength="196.0981" x="386.7579" y="829.6194">el listado general de usuarios.</text></g><!--link USUARIOS_ABIERTO_FINAL to *end*--><g class="link" data-entity-1="USUARIOS_ABIERTO_FINAL" data-entity-2=".end." data-source-line="38" data-uid="lnk12" id="link_USUARIOS_ABIERTO_FINAL_.end."><path d="M582,994.6669 C582,1027.7769 582,1067.4569 582,1088.2169" fill="none" id="USUARIOS_ABIERTO_FINAL-to-*end*" style="stroke:#0000FF;stroke-width:1;"/><polygon fill="#0000FF" points="582,1094.2169,586,1085.2169,582,1089.2169,578,1085.2169,582,1094.2169" style="stroke:#0000FF;stroke-width:1;"/></g><!--SRC=[ZPFFRjim3CRlVWeYkxJ3qdNNe0ZWfTrWO6WBP-cbA0h6OXmXicH8yg4RzbHxXBtOw7-9uzXRVBD4VkJt8-MbLmGBersXF5fOkGAjD87RIPsZnGoq4UGeXq_Nrz0vjgXtpN7dL4bD_YqdCDPlkogFA8JKAOS7pgCdM2rNOHmzB5_3pz5T_FtXDRgF5b7u3T31f7yvEKvgZu6_JlX8zA74b-YU2y18YUVtBp1zVfTQ8lqodOzs68osFf2zRtK6IGkvONnn6MZ3RIhQU32wPBSBIaitwtaeCgcbynQ5iU2CaedqUFDnFJ_802aGv57n00L1eQ6eXQzQbIKhK8QGMvwWRl8LmaOcMsIXB5USNqLVtA8txWF4Hf63DtWacqbdtELLG5f0sUZ837vM-VNTa-GEbFo1YJIwKgnOTux__DPbims2IPNR1t-gKeEoCjqogSrG03HVntLMK0cmCUqWiIH89n9BXuBX7U7g8olzSyqMlQraKbRaaim-mMmjsLv6Gg9cEAq6_tT7tC5NtWu0wZfd4i6le4_u434TMijwgsUGSabnrdPzPONRC9wLdixOE4jfTR5tVR9WRKJDcasrU8umxqaC6EJP_CTUGjQUk6jMujZUuYwEptVdU1wstCdsOVpx-R0XnUUimzkWoQAg7b_TbZirsJV2NjUge6RQVm40]--></g><script xmlns=""/></svg>