<svg xmlns="http://www.w3.org/2000/svg" xmlns:xlink="http://www.w3.org/1999/xlink" contentStyleType="text/css" data-diagram-type="STATE" height="1137px" preserveAspectRatio="none" style="width:817px;height:1137px;background:#FFFFFF;" version="1.1" viewBox="0 0 817 1137" width="817px" zoomAndPan="magnify"><title>Crear Usuario</title><defs/><g><g class="title" data-source-line="1"><text fill="#000000" font-family="sans-serif" font-size="14" font-weight="bold" lengthAdjust="spacing" textLength="108.3359" x="344.4561" y="32.9951">Crear Usuario</text></g><g id="USUARIOS_ABIERTO_INICIAL"><rect fill="#F1F1F1" height="76.2969" rx="12.5" ry="12.5" style="stroke:#181818;stroke-width:0.5;" width="181.1758" x="443.5" y="183.2969"/><line style="stroke:#181818;stroke-width:0.5;" x1="443.5" x2="624.6758" y1="229.5938" y2="229.5938"/><text fill="#000000" font-family="sans-serif" font-size="14" lengthAdjust="spacing" textLength="141.1758" x="463.5" y="211.292">USUARIOS_ABIERTO</text></g><g id="USUARIOS_ABIERTO_FINAL"><rect fill="#F1F1F1" height="76.2969" rx="12.5" ry="12.5" style="stroke:#181818;stroke-width:0.5;" width="181.1758" x="443.5" y="933.2969"/><line style="stroke:#181818;stroke-width:0.5;" x1="443.5" x2="624.6758" y1="979.5938" y2="979.5938"/><text fill="#000000" font-family="sans-serif" font-size="14" lengthAdjust="spacing" textLength="141.1758" x="463.5" y="961.292">USUARIOS_ABIERTO</text></g><path d="M276,359.2969 L791.748,359.2969 A12.5,12.5 0 0 1 804.248,371.7969 L804.248,405.5938 L263.5,405.5938 L263.5,371.7969 A12.5,12.5 0 0 1 276,359.2969" fill="#F1F1F1"/><rect fill="none" height="272.2969" rx="12.5" ry="12.5" style="stroke:#181818;stroke-width:0.5;" width="540.748" x="263.5" y="359.2969"/><line style="stroke:#181818;stroke-width:0.5;" x1="263.5" x2="804.248" y1="405.5938" y2="405.5938"/><text fill="#000000" font-family="sans-serif" font-size="14" lengthAdjust="spacing" textLength="132.2891" x="467.7295" y="387.292">USUARIO_ABIERTO</text><g id="USUARIO_ABIERTO_COMP.FormularioRegistro"><rect fill="#F1F1F1" height="76.2969" rx="12.5" ry="12.5" style="stroke:#181818;stroke-width:0.5;" width="170.252" x="275.5" y="480.0938"/><line style="stroke:#181818;stroke-width:0.5;" x1="275.5" x2="445.752" y1="526.3906" y2="526.3906"/><text fill="#000000" font-family="sans-serif" font-size="14" lengthAdjust="spacing" textLength="130.252" x="295.5" y="508.0889">Edición de Usuario</text></g><ellipse cx="360.5" cy="426.5938" fill="#222222" rx="10" ry="10" style="stroke:#222222;stroke-width:1;"/><ellipse cx="360.5" cy="610.5938" fill="none" rx="11" ry="11" style="stroke:#222222;stroke-width:1;"/><ellipse cx="360.5" cy="610.5938" fill="#222222" rx="6" ry="6" style="stroke:#222222;stroke-width:1;"/><g class="entity" data-entity="GMN2" data-source-line="19" data-uid="ent0003" id="entity_GMN2"><path d="M463.5,472.5938 L463.5,514.5938 L445.61,518.5938 L463.5,522.5938 L463.5,563.125 A0,0 0 0 0 463.5,563.125 L795.248,563.125 A0,0 0 0 0 795.248,563.125 L795.248,482.5938 L785.248,472.5938 L463.5,472.5938 A0,0 0 0 0 463.5,472.5938" fill="#FEFFDD" style="stroke:#181818;stroke-width:0.5;"/><path d="M785.248,472.5938 L785.248,482.5938 L795.248,482.5938 L785.248,472.5938" fill="#FEFFDD" style="stroke:#181818;stroke-width:0.5;"/><text fill="#000000" font-family="sans-serif" font-size="13" font-weight="bold" lengthAdjust="spacing" textLength="184.939" x="479.5" y="499.6606">Administrador introduce:</text><text fill="#000000" font-family="sans-serif" font-size="13" lengthAdjust="spacing" textLength="177.5884" x="479.5" y="514.7935">• Credenciales (User/Pass).</text><text fill="#000000" font-family="sans-serif" font-size="13" lengthAdjust="spacing" textLength="179.6895" x="479.5" y="529.9263">• Datos Personales y Roles.</text><text fill="#000000" font-family="sans-serif" font-size="13" font-weight="bold" lengthAdjust="spacing" textLength="184.666" x="479.5" y="545.0591">Sistema permite solicitar</text><text fill="#000000" font-family="sans-serif" font-size="13" lengthAdjust="spacing" textLength="101.9497" x="668.2983" y="545.0591">editarUsuario().</text></g><!--link *start*USUARIO_ABIERTO_COMP to FormularioRegistro--><g class="link" data-entity-1=".start.USUARIO_ABIERTO_COMP" data-entity-2="FormularioRegistro" data-source-line="17" data-uid="lnk6" id="link_.start.USUARIO_ABIERTO_COMP_FormularioRegistro"><path d="M360.5,436.7338 C360.5,447.1538 360.5,458.0338 360.5,473.7238" fill="none" id="*start*USUARIO_ABIERTO_COMP-to-FormularioRegistro" style="stroke:#008000;stroke-width:1;"/><polygon fill="#008000" points="360.5,479.7238,364.5,470.7238,360.5,474.7238,356.5,470.7238,360.5,479.7238" style="stroke:#008000;stroke-width:1;"/></g><!--link FormularioRegistro to *end*USUARIO_ABIERTO_COMP--><g class="link" data-entity-1="FormularioRegistro" data-entity-2=".end.USUARIO_ABIERTO_COMP" data-source-line="24" data-uid="lnk8" id="link_FormularioRegistro_.end.USUARIO_ABIERTO_COMP"><path d="M360.5,556.2538 C360.5,571.7738 360.5,582.5638 360.5,593.3038" fill="none" id="FormularioRegistro-to-*end*USUARIO_ABIERTO_COMP" style="stroke:#008000;stroke-width:1;"/><polygon fill="#008000" points="360.5,599.3038,364.5,590.3038,360.5,594.3038,356.5,590.3038,360.5,599.3038" style="stroke:#008000;stroke-width:1;"/></g><ellipse cx="534" cy="73.2969" fill="#222222" rx="10" ry="10" style="stroke:#222222;stroke-width:1;"/><ellipse cx="534" cy="1120.2969" fill="none" rx="11" ry="11" style="stroke:#222222;stroke-width:1;"/><ellipse cx="534" cy="1120.2969" fill="#222222" rx="6" ry="6" style="stroke:#222222;stroke-width:1;"/><!--link *start* to USUARIOS_ABIERTO_INICIAL--><g class="link" data-entity-1=".start." data-entity-2="USUARIOS_ABIERTO_INICIAL" data-source-line="9" data-uid="lnk3" id="link_.start._USUARIOS_ABIERTO_INICIAL"><path d="M534,83.4669 C534,103.6469 534,143.6769 534,176.9969" fill="none" id="*start*-to-USUARIOS_ABIERTO_INICIAL" style="stroke:#008000;stroke-width:1;"/><polygon fill="#008000" points="534,182.9969,538,173.9969,534,177.9969,530,173.9969,534,182.9969" style="stroke:#008000;stroke-width:1;"/></g><!--link USUARIOS_ABIERTO_INICIAL to USUARIO_ABIERTO_COMP--><g class="link" data-entity-1="USUARIOS_ABIERTO_INICIAL" data-entity-2="USUARIO_ABIERTO_COMP" data-source-line="10" data-uid="lnk4" id="link_USUARIOS_ABIERTO_INICIAL_USUARIO_ABIERTO_COMP"><path d="M534,259.3969 C534,285.7169 534,316.4669 534,353.1369" fill="none" id="USUARIOS_ABIERTO_INICIAL-to-USUARIO_ABIERTO_COMP" style="stroke:#008000;stroke-width:1;"/><polygon fill="#008000" points="534,359.1369,538,350.1369,534,354.1369,530,350.1369,534,359.1369" style="stroke:#008000;stroke-width:1;"/><path d="M6,244.2669 L6,304.2669 L414,304.2669 L414,254.2669 L404,244.2669 L6,244.2669" fill="#FEFFDD" style="stroke:#181818;stroke-width:0.5;"/><path d="M404,244.2669 L404,254.2669 L414,254.2669 L404,244.2669" fill="#FEFFDD" style="stroke:#181818;stroke-width:0.5;"/><text fill="#000000" font-family="sans-serif" font-size="13" font-weight="bold" lengthAdjust="spacing" textLength="162.1191" x="22" y="271.3338">Administrador solicita</text><text fill="#000000" font-family="sans-serif" font-size="13" lengthAdjust="spacing" textLength="155.0605" x="188.2515" y="271.3338">crear un nuevo usuario.</text><text fill="#000000" font-family="sans-serif" font-size="13" font-weight="bold" lengthAdjust="spacing" textLength="128.7622" x="22" y="286.4666">Sistema presenta</text><text fill="#000000" font-family="sans-serif" font-size="13" lengthAdjust="spacing" textLength="234.6729" x="154.8945" y="286.4666">el formulario de registro de usuario.</text><text fill="#000000" font-family="sans-serif" font-size="13" lengthAdjust="spacing" textLength="93.3486" x="430.5674" y="278.9002">crearUsuario()</text></g><!--link USUARIO_ABIERTO_COMP to USUARIOS_ABIERTO_FINAL--><g class="link" data-entity-1="USUARIO_ABIERTO_COMP" data-entity-2="USUARIOS_ABIERTO_FINAL" data-source-line="26" data-uid="lnk9" id="link_USUARIO_ABIERTO_COMP_USUARIOS_ABIERTO_FINAL"><path d="M503.83,631.3769 C503.83,734.2769 503.83,862.5069 503.83,927.1769" fill="none" id="USUARIO_ABIERTO_COMP-to-USUARIOS_ABIERTO_FINAL" style="stroke:#008000;stroke-width:1;"/><polygon fill="#008000" points="503.83,933.1769,507.83,924.1769,503.83,928.1769,499.83,924.1769,503.83,933.1769" style="stroke:#008000;stroke-width:1;"/><path d="M54.83,702.2769 L54.83,777.2769 L365.83,777.2769 L365.83,712.2769 L355.83,702.2769 L54.83,702.2769" fill="#FEFFDD" style="stroke:#181818;stroke-width:0.5;"/><path d="M355.83,702.2769 L355.83,712.2769 L365.83,712.2769 L355.83,702.2769" fill="#FEFFDD" style="stroke:#181818;stroke-width:0.5;"/><text fill="#000000" font-family="sans-serif" font-size="13" font-weight="bold" lengthAdjust="spacing" textLength="77.3589" x="70.83" y="729.3438">GUARDAR:</text><text fill="#000000" font-family="sans-serif" font-size="13" font-weight="bold" lengthAdjust="spacing" textLength="162.1191" x="70.83" y="744.4766">Administrador solicita</text><text fill="#000000" font-family="sans-serif" font-size="13" lengthAdjust="spacing" textLength="104.3809" x="237.0815" y="744.4766">registrar el alta.</text><text fill="#000000" font-family="sans-serif" font-size="13" font-weight="bold" lengthAdjust="spacing" textLength="121.5576" x="70.83" y="759.6094">Sistema registra</text><text fill="#000000" font-family="sans-serif" font-size="13" lengthAdjust="spacing" textLength="112.2583" x="196.5199" y="759.6094">el nuevo usuario.</text><text fill="#000000" font-family="sans-serif" font-size="13" lengthAdjust="spacing" textLength="110.9126" x="382.4623" y="744.4766">guardarUsuario()</text></g><!--link USUARIO_ABIERTO_COMP to USUARIOS_ABIERTO_FINAL--><g class="link" data-entity-1="USUARIO_ABIERTO_COMP" data-entity-2="USUARIOS_ABIERTO_FINAL" data-source-line="32" data-uid="lnk10" id="link_USUARIO_ABIERTO_COMP_USUARIOS_ABIERTO_FINAL"><path d="M564.17,631.3769 C564.17,734.2769 564.17,862.5069 564.17,927.1769" fill="none" id="USUARIO_ABIERTO_COMP-to-USUARIOS_ABIERTO_FINAL-1" style="stroke:#FF0000;stroke-width:1;"/><polygon fill="#FF0000" points="564.17,933.1769,568.17,924.1769,564.17,928.1769,560.17,924.1769,564.17,933.1769" style="stroke:#FF0000;stroke-width:1;"/><text fill="#000000" font-family="sans-serif" font-size="13" lengthAdjust="spacing" textLength="98.6934" x="116.17" y="829.4766">cerrarUsuario()</text><path d="M230.8634,787.2769 L230.8634,862.2769 L558.8634,862.2769 L558.8634,797.2769 L548.8634,787.2769 L230.8634,787.2769" fill="#FEFFDD" style="stroke:#181818;stroke-width:0.5;"/><path d="M548.8634,787.2769 L548.8634,797.2769 L558.8634,797.2769 L548.8634,787.2769" fill="#FEFFDD" style="stroke:#181818;stroke-width:0.5;"/><text fill="#000000" font-family="sans-serif" font-size="13" font-weight="bold" lengthAdjust="spacing" textLength="63.7114" x="246.8634" y="814.3438">CERRAR:</text><text fill="#000000" font-family="sans-serif" font-size="13" font-weight="bold" lengthAdjust="spacing" textLength="162.1191" x="246.8634" y="829.4766">Administrador solicita</text><text fill="#000000" font-family="sans-serif" font-size="13" lengthAdjust="spacing" textLength="121.5322" x="413.1148" y="829.4766">cerrar sin guardar.</text><text fill="#000000" font-family="sans-serif" font-size="13" font-weight="bold" lengthAdjust="spacing" textLength="127.1689" x="246.8634" y="844.6094">Sistema descarta</text><text fill="#000000" font-family="sans-serif" font-size="13" lengthAdjust="spacing" textLength="147.2529" x="378.1646" y="844.6094">los datos introducidos.</text></g><!--link USUARIOS_ABIERTO_FINAL to *end*--><g class="link" data-entity-1="USUARIOS_ABIERTO_FINAL" data-entity-2=".end." data-source-line="38" data-uid="lnk12" id="link_USUARIOS_ABIERTO_FINAL_.end."><path d="M534,1009.6669 C534,1042.7769 534,1082.4569 534,1103.2169" fill="none" id="USUARIOS_ABIERTO_FINAL-to-*end*" style="stroke:#0000FF;stroke-width:1;"/><polygon fill="#0000FF" points="534,1109.2169,538,1100.2169,534,1104.2169,530,1100.2169,534,1109.2169" style="stroke:#0000FF;stroke-width:1;"/></g><!--SRC=[ZPHVRjf04CRVVOeHVKagGT9N526vX4IMqe1CUOgYQF4Epefb5yskAqLLfPwbL-WHUfEUfBl-Xx5D2YzOw_bcv_lD1rPOYJ0bP0Ghap4I6WAp5MhFYEr0QOu6z_3f-hfvJ4njo-F6gHGAxTiUGPDzrOqN2yQvKAah3unb5c6rN8LnD5- -X9-ZMVnr_X8zHjCeV01W1WRjjuDJghleqMlEKjMYwVpB0g2bEeYUFZx3yEb3IeZgUJWvEMfmqaEF-lZoCIIUTudxuZ9GsiqfSMD1Aqzn6_ZnRjQJaE-44iOIuvh0Q2aIOTdDrNfIj81CWShmcuQiQ3Qgb4kdmXs3FRdzgLA34ZQQTfdCrymH25FVFN-kEw3Yu2TwZz_t_9wYuAvk6LVjFDaPTyF- -QryxzBg85Ur2NVr1H0IwQiZikahWFBJOIIKUysp1CVUSLttz-Sl7tAEAX5Cee6BbK6wMZ1ZBaT7LRVCQWCB9ADLNla6iNRVe-QTDLsadN2ZLfkX0ZFtZ_Lw6qIzl0TNauQZ4_m8Ug4VoePzmIn-3MD8tRtyh7ZTkmwtONn0zNxaohIusBaWCMbP9srLHPMsLZPh3gVikGtznro2H1rlPLAEpKrdSNo-jw8l6A4gVXrpxfymOLJMInSIdaUbIfpWsdGjjXquaskPORdfVm00]--></g><script xmlns=""/></svg>