<svg xmlns="http://www.w3.org/2000/svg" xmlns:xlink="http://www.w3.org/1999/xlink" contentStyleType="text/css" data-diagram-type="STATE" height="1122px" preserveAspectRatio="none" style="width:933px;height:1122px;background:#FFFFFF;" version="1.1" viewBox="0 0 933 1122" width="933px" zoomAndPan="magnify"><title>Editar Usuario</title><defs/><g><g class="title" data-source-line="1"><text fill="#000000" font-family="sans-serif" font-size="14" font-weight="bold" lengthAdjust="spacing" textLength="112.7383" x="400.3127" y="32.9951">Editar Usuario</text></g><g id="USUARIOS_ABIERTO_LISTADO"><rect fill="#F1F1F1" height="76.2969" rx="12.5" ry="12.5" style="stroke:#181818;stroke-width:0.5;" width="181.1758" x="513.5" y="183.2969"/><line style="stroke:#181818;stroke-width:0.5;" x1="513.5" x2="694.6758" y1="229.5938" y2="229.5938"/><text fill="#000000" font-family="sans-serif" font-size="14" lengthAdjust="spacing" textLength="141.1758" x="533.5" y="211.292">USUARIOS_ABIERTO</text></g><path d="M300,359.2969 L907.8638,359.2969 A12.5,12.5 0 0 1 920.3638,371.7969 L920.3638,405.5938 L287.5,405.5938 L287.5,371.7969 A12.5,12.5 0 0 1 300,359.2969" fill="#F1F1F1"/><rect fill="none" height="257.2969" rx="12.5" ry="12.5" style="stroke:#181818;stroke-width:0.5;" width="632.8638" x="287.5" y="359.2969"/><line style="stroke:#181818;stroke-width:0.5;" x1="287.5" x2="920.3638" y1="405.5938" y2="405.5938"/><text fill="#000000" font-family="sans-serif" font-size="14" lengthAdjust="spacing" textLength="132.2891" x="537.7874" y="387.292">USUARIO_ABIERTO</text><g id="USUARIO_ABIERTO.ModificacionDatos"><rect fill="#F1F1F1" height="76.2969" rx="12.5" ry="12.5" style="stroke:#181818;stroke-width:0.5;" width="170.252" x="299.5" y="472.5938"/><line style="stroke:#181818;stroke-width:0.5;" x1="299.5" x2="469.752" y1="518.8906" y2="518.8906"/><text fill="#000000" font-family="sans-serif" font-size="14" lengthAdjust="spacing" textLength="130.252" x="319.5" y="500.5889">Edición de Usuario</text></g><ellipse cx="384.5" cy="426.5938" fill="#222222" rx="10" ry="10" style="stroke:#222222;stroke-width:1;"/><ellipse cx="384.5" cy="595.5938" fill="none" rx="11" ry="11" style="stroke:#222222;stroke-width:1;"/><ellipse cx="384.5" cy="595.5938" fill="#222222" rx="6" ry="6" style="stroke:#222222;stroke-width:1;"/><g class="entity" data-entity="GMN2" data-source-line="19" data-uid="ent0003" id="entity_GMN2"><path d="M488,480.5938 L488,506.5938 L469.74,510.5938 L488,514.5938 L488,540.8594 A0,0 0 0 0 488,540.8594 L911.3638,540.8594 A0,0 0 0 0 911.3638,540.8594 L911.3638,490.5938 L901.3638,480.5938 L488,480.5938 A0,0 0 0 0 488,480.5938" fill="#FEFFDD" style="stroke:#181818;stroke-width:0.5;"/><path d="M901.3638,480.5938 L901.3638,490.5938 L911.3638,490.5938 L901.3638,480.5938" fill="#FEFFDD" style="stroke:#181818;stroke-width:0.5;"/><text fill="#000000" font-family="sans-serif" font-size="13" font-weight="bold" lengthAdjust="spacing" textLength="179.7402" x="504" y="507.6606">Administrador introduce</text><text fill="#000000" font-family="sans-serif" font-size="13" lengthAdjust="spacing" textLength="198.4912" x="687.8726" y="507.6606">los cambios en la información.</text><text fill="#000000" font-family="sans-serif" font-size="13" font-weight="bold" lengthAdjust="spacing" textLength="184.666" x="504" y="522.7935">Sistema permite solicitar</text><text fill="#000000" font-family="sans-serif" font-size="13" lengthAdjust="spacing" textLength="101.9497" x="692.7983" y="522.7935">editarUsuario().</text></g><!--link *start*USUARIO_ABIERTO to ModificacionDatos--><g class="link" data-entity-1=".start.USUARIO_ABIERTO" data-entity-2="ModificacionDatos" data-source-line="17" data-uid="lnk6" id="link_.start.USUARIO_ABIERTO_ModificacionDatos"><path d="M384.5,436.8938 C384.5,445.8338 384.5,453.3438 384.5,466.3738" fill="none" id="*start*USUARIO_ABIERTO-to-ModificacionDatos" style="stroke:#008000;stroke-width:1;"/><polygon fill="#008000" points="384.5,472.3738,388.5,463.3738,384.5,467.3738,380.5,463.3738,384.5,472.3738" style="stroke:#008000;stroke-width:1;"/></g><!--link ModificacionDatos to *end*USUARIO_ABIERTO--><g class="link" data-entity-1="ModificacionDatos" data-entity-2=".end.USUARIO_ABIERTO" data-source-line="22" data-uid="lnk8" id="link_ModificacionDatos_.end.USUARIO_ABIERTO"><path d="M384.5,548.6138 C384.5,561.7038 384.5,569.3538 384.5,578.5538" fill="none" id="ModificacionDatos-to-*end*USUARIO_ABIERTO" style="stroke:#008000;stroke-width:1;"/><polygon fill="#008000" points="384.5,584.5538,388.5,575.5538,384.5,579.5538,380.5,575.5538,384.5,584.5538" style="stroke:#008000;stroke-width:1;"/></g><g id="USUARIOS_ABIERTO_FINAL"><rect fill="#F1F1F1" height="76.2969" rx="12.5" ry="12.5" style="stroke:#181818;stroke-width:0.5;" width="181.1758" x="513.5" y="918.2969"/><line style="stroke:#181818;stroke-width:0.5;" x1="513.5" x2="694.6758" y1="964.5938" y2="964.5938"/><text fill="#000000" font-family="sans-serif" font-size="14" lengthAdjust="spacing" textLength="141.1758" x="533.5" y="946.292">USUARIOS_ABIERTO</text></g><ellipse cx="604" cy="73.2969" fill="#222222" rx="10" ry="10" style="stroke:#222222;stroke-width:1;"/><ellipse cx="604" cy="1105.2969" fill="none" rx="11" ry="11" style="stroke:#222222;stroke-width:1;"/><ellipse cx="604" cy="1105.2969" fill="#222222" rx="6" ry="6" style="stroke:#222222;stroke-width:1;"/><!--link *start* to USUARIOS_ABIERTO_LISTADO--><g class="link" data-entity-1=".start." data-entity-2="USUARIOS_ABIERTO_LISTADO" data-source-line="9" data-uid="lnk3" id="link_.start._USUARIOS_ABIERTO_LISTADO"><path d="M604,83.4669 C604,103.6469 604,143.6769 604,176.9969" fill="none" id="*start*-to-USUARIOS_ABIERTO_LISTADO" style="stroke:#008000;stroke-width:1;"/><polygon fill="#008000" points="604,182.9969,608,173.9969,604,177.9969,600,173.9969,604,182.9969" style="stroke:#008000;stroke-width:1;"/></g><!--link USUARIOS_ABIERTO_LISTADO to USUARIO_ABIERTO--><g class="link" data-entity-1="USUARIOS_ABIERTO_LISTADO" data-entity-2="USUARIO_ABIERTO" data-source-line="10" data-uid="lnk4" id="link_USUARIOS_ABIERTO_LISTADO_USUARIO_ABIERTO"><path d="M604,259.4769 C604,285.8869 604,316.6969 604,353.0569" fill="none" id="USUARIOS_ABIERTO_LISTADO-to-USUARIO_ABIERTO" style="stroke:#008000;stroke-width:1;"/><polygon fill="#008000" points="604,359.0569,608,350.0569,604,354.0569,600,350.0569,604,359.0569" style="stroke:#008000;stroke-width:1;"/><path d="M6,244.2669 L6,304.2669 L351,304.2669 L351,254.2669 L341,244.2669 L6,244.2669" fill="#FEFFDD" style="stroke:#181818;stroke-width:0.5;"/><path d="M341,244.2669 L341,254.2669 L351,254.2669 L341,244.2669" fill="#FEFFDD" style="stroke:#181818;stroke-width:0.5;"/><text fill="#000000" font-family="sans-serif" font-size="13" font-weight="bold" lengthAdjust="spacing" textLength="162.1191" x="22" y="271.3338">Administrador solicita</text><text fill="#000000" font-family="sans-serif" font-size="13" lengthAdjust="spacing" textLength="138.2393" x="188.2515" y="271.3338">gestionar un usuario.</text><text fill="#000000" font-family="sans-serif" font-size="13" font-weight="bold" lengthAdjust="spacing" textLength="128.7622" x="22" y="286.4666">Sistema presenta</text><text fill="#000000" font-family="sans-serif" font-size="13" lengthAdjust="spacing" textLength="127.6387" x="154.8945" y="286.4666">la ficha del usuario.</text><text fill="#000000" font-family="sans-serif" font-size="13" lengthAdjust="spacing" textLength="225.9131" x="367.4907" y="278.9002">crearUsuario() / consultarUsuario()</text></g><!--link USUARIO_ABIERTO to USUARIOS_ABIERTO_FINAL--><g class="link" data-entity-1="USUARIO_ABIERTO" data-entity-2="USUARIOS_ABIERTO_FINAL" data-source-line="24" data-uid="lnk9" id="link_USUARIO_ABIERTO_USUARIOS_ABIERTO_FINAL"><path d="M573.83,616.4369 C573.83,718.0169 573.83,847.1169 573.83,912.1369" fill="none" id="USUARIO_ABIERTO-to-USUARIOS_ABIERTO_FINAL" style="stroke:#008000;stroke-width:1;"/><polygon fill="#008000" points="573.83,918.1369,577.83,909.1369,573.83,913.1369,569.83,909.1369,573.83,918.1369" style="stroke:#008000;stroke-width:1;"/><path d="M112.83,687.2869 L112.83,762.2869 L435.83,762.2869 L435.83,697.2869 L425.83,687.2869 L112.83,687.2869" fill="#FEFFDD" style="stroke:#181818;stroke-width:0.5;"/><path d="M425.83,687.2869 L425.83,697.2869 L435.83,697.2869 L425.83,687.2869" fill="#FEFFDD" style="stroke:#181818;stroke-width:0.5;"/><text fill="#000000" font-family="sans-serif" font-size="13" font-weight="bold" lengthAdjust="spacing" textLength="77.3589" x="128.83" y="714.3538">GUARDAR:</text><text fill="#000000" font-family="sans-serif" font-size="13" font-weight="bold" lengthAdjust="spacing" textLength="162.1191" x="128.83" y="729.4866">Administrador solicita</text><text fill="#000000" font-family="sans-serif" font-size="13" lengthAdjust="spacing" textLength="101.9878" x="295.0815" y="729.4866">salvar cambios.</text><text fill="#000000" font-family="sans-serif" font-size="13" font-weight="bold" lengthAdjust="spacing" textLength="121.5576" x="128.83" y="744.6194">Sistema registra</text><text fill="#000000" font-family="sans-serif" font-size="13" lengthAdjust="spacing" textLength="157.2251" x="254.5199" y="744.6194">los cambios del usuario.</text><text fill="#000000" font-family="sans-serif" font-size="13" lengthAdjust="spacing" textLength="110.9126" x="452.745" y="729.4866">guardarUsuario()</text></g><!--link USUARIO_ABIERTO to USUARIOS_ABIERTO_FINAL--><g class="link" data-entity-1="USUARIO_ABIERTO" data-entity-2="USUARIOS_ABIERTO_FINAL" data-source-line="30" data-uid="lnk10" id="link_USUARIO_ABIERTO_USUARIOS_ABIERTO_FINAL"><path d="M634.17,616.4369 C634.17,718.0169 634.17,847.1169 634.17,912.1369" fill="none" id="USUARIO_ABIERTO-to-USUARIOS_ABIERTO_FINAL-1" style="stroke:#FF0000;stroke-width:1;"/><polygon fill="#FF0000" points="634.17,918.1369,638.17,909.1369,634.17,913.1369,630.17,909.1369,634.17,918.1369" style="stroke:#FF0000;stroke-width:1;"/><text fill="#000000" font-family="sans-serif" font-size="13" lengthAdjust="spacing" textLength="98.6934" x="177.17" y="814.4866">cerrarUsuario()</text><path d="M291.8634,772.2869 L291.8634,847.2869 L628.8634,847.2869 L628.8634,782.2869 L618.8634,772.2869 L291.8634,772.2869" fill="#FEFFDD" style="stroke:#181818;stroke-width:0.5;"/><path d="M618.8634,772.2869 L618.8634,782.2869 L628.8634,782.2869 L618.8634,772.2869" fill="#FEFFDD" style="stroke:#181818;stroke-width:0.5;"/><text fill="#000000" font-family="sans-serif" font-size="13" font-weight="bold" lengthAdjust="spacing" textLength="63.7114" x="307.8634" y="799.3538">CERRAR:</text><text fill="#000000" font-family="sans-serif" font-size="13" font-weight="bold" lengthAdjust="spacing" textLength="162.1191" x="307.8634" y="814.4866">Administrador solicita</text><text fill="#000000" font-family="sans-serif" font-size="13" lengthAdjust="spacing" textLength="103.2065" x="474.1148" y="814.4866">salir de la ficha.</text><text fill="#000000" font-family="sans-serif" font-size="13" font-weight="bold" lengthAdjust="spacing" textLength="127.1689" x="307.8634" y="829.6194">Sistema descarta</text><text fill="#000000" font-family="sans-serif" font-size="13" lengthAdjust="spacing" textLength="165.5786" x="439.1646" y="829.6194">los cambios introducidos.</text></g><!--link USUARIOS_ABIERTO_FINAL to *end*--><g class="link" data-entity-1="USUARIOS_ABIERTO_FINAL" data-entity-2=".end." data-source-line="36" data-uid="lnk12" id="link_USUARIOS_ABIERTO_FINAL_.end."><path d="M604,994.6669 C604,1027.7769 604,1067.4569 604,1088.2169" fill="none" id="USUARIOS_ABIERTO_FINAL-to-*end*" style="stroke:#0000FF;stroke-width:1;"/><polygon fill="#0000FF" points="604,1094.2169,608,1085.2169,604,1089.2169,600,1085.2169,604,1094.2169" style="stroke:#0000FF;stroke-width:1;"/></g><!--SRC=[bPJTQjj048NlzHI3UzCMdAIt9XYKsYs6j2vsV1L2ME-EvS7IhfbT5KhfK_KH-c8T_TcA9DDKDu9TdPdvpXmxK4WHveQ2OjZuN34vYFo1x56noi0wWnwFyE7cfdtCoXxguzPfIXR3ZoE2ux1thOjloXYoYNmU-Q02mcQzYLUBvVevlblCLm_Bv_l5-Y6UBK4UvM7KlH-zr3N7K3yjoGN5kTEdnTVulYThTNfy_mJZnpS98zgdyVJYhD55Y07rQU89Q4R5jTLlty4rQ6TzdeRMOMITZ9xYBe2pXQs7g9ZtTZkDJKQMV61b78DtAMbPtUtrTWe9-a3EoXvp2tbLwghHhKM3cO8ZopfjhKWLx4Zl5HXCpmgq1eh-5op_MPQixhuuGr91QUaxKy7vqb99awO_lwsKRI8rAaLTPtloYfifsGluRk2-MNZF2RA1dSarLc0oYLRPbkIDjk0aktESgNAkgtQPap786Kdpnb8k2s7vmpZjfMLE8U_Zj-c4DleLTUqxVp4UobQLpWaaqj6yAX6VfS8iNasAUL-H4g_IxnAHsfrUFXYJKjUpSJWY0tICvXzi6fbxQFNINx9zdAzM_uL6N8IkoNMFJlxBjEBGfslYGwRmf8lNHH3ARPfZlUI_]--></g><script xmlns=""/></svg>