<svg xmlns="http://www.w3.org/2000/svg" xmlns:xlink="http://www.w3.org/1999/xlink" contentStyleType="text/css" data-diagram-type="STATE" height="1122px" preserveAspectRatio="none" style="width:948px;height:1122px;background:#FFFFFF;" version="1.1" viewBox="0 0 948 1122" width="948px" zoomAndPan="magnify"><title>Consultar Solicitud de Dispensa</title><defs/><g><g class="title" data-source-line="1"><text fill="#000000" font-family="sans-serif" font-size="14" font-weight="bold" lengthAdjust="spacing" textLength="251.2344" x="338.5051" y="32.9951">Consultar Solicitud de Dispensa</text></g><g id="DISPENSAS_ABIERTO_INICIAL"><rect fill="#F1F1F1" height="76.2969" rx="12.5" ry="12.5" style="stroke:#181818;stroke-width:0.5;" width="187.3623" x="523.5" y="183.2969"/><line style="stroke:#181818;stroke-width:0.5;" x1="523.5" x2="710.8623" y1="229.5938" y2="229.5938"/><text fill="#000000" font-family="sans-serif" font-size="14" lengthAdjust="spacing" textLength="147.3623" x="543.5" y="211.292">DISPENSAS_ABIERTO</text></g><path d="M311.5,359.2969 L922.7446,359.2969 A12.5,12.5 0 0 1 935.2446,371.7969 L935.2446,405.5938 L299,405.5938 L299,371.7969 A12.5,12.5 0 0 1 311.5,359.2969" fill="#F1F1F1"/><rect fill="none" height="257.2969" rx="12.5" ry="12.5" style="stroke:#181818;stroke-width:0.5;" width="636.2446" x="299" y="359.2969"/><line style="stroke:#181818;stroke-width:0.5;" x1="299" x2="935.2446" y1="405.5938" y2="405.5938"/><text fill="#000000" font-family="sans-serif" font-size="14" lengthAdjust="spacing" textLength="219.3516" x="507.4465" y="387.292">SOLICITUD_DISPENSA_ABIERTA</text><g id="SOLICITUD_DISPENSA_ABIERTA.VisualizacionYEdicion"><rect fill="#F1F1F1" height="76.2969" rx="12.5" ry="12.5" style="stroke:#181818;stroke-width:0.5;" width="198.7783" x="311" y="472.5938"/><line style="stroke:#181818;stroke-width:0.5;" x1="311" x2="509.7783" y1="518.8906" y2="518.8906"/><text fill="#000000" font-family="sans-serif" font-size="14" lengthAdjust="spacing" textLength="158.7783" x="331" y="500.5889">Visualización y Edición</text></g><ellipse cx="410.5" cy="426.5938" fill="#222222" rx="10" ry="10" style="stroke:#222222;stroke-width:1;"/><ellipse cx="410.5" cy="595.5938" fill="none" rx="11" ry="11" style="stroke:#222222;stroke-width:1;"/><ellipse cx="410.5" cy="595.5938" fill="#222222" rx="6" ry="6" style="stroke:#222222;stroke-width:1;"/><g class="entity" data-entity="GMN2" data-source-line="23" data-uid="ent0003" id="entity_GMN2"><path d="M528.5,480.5938 L528.5,506.5938 L510.37,510.5938 L528.5,514.5938 L528.5,540.8594 A0,0 0 0 0 528.5,540.8594 L926.2446,540.8594 A0,0 0 0 0 926.2446,540.8594 L926.2446,490.5938 L916.2446,480.5938 L528.5,480.5938 A0,0 0 0 0 528.5,480.5938" fill="#FEFFDD" style="stroke:#181818;stroke-width:0.5;"/><path d="M916.2446,480.5938 L916.2446,490.5938 L926.2446,490.5938 L916.2446,480.5938" fill="#FEFFDD" style="stroke:#181818;stroke-width:0.5;"/><text fill="#000000" font-family="sans-serif" font-size="13" font-weight="bold" lengthAdjust="spacing" textLength="124.1855" x="544.5" y="507.6606">Sistema muestra</text><text fill="#000000" font-family="sans-serif" font-size="13" lengthAdjust="spacing" textLength="157.168" x="672.8179" y="507.6606">los datos de la solicitud.</text><text fill="#000000" font-family="sans-serif" font-size="13" font-weight="bold" lengthAdjust="spacing" textLength="184.666" x="544.5" y="522.7935">Sistema permite solicitar</text><text fill="#000000" font-family="sans-serif" font-size="13" lengthAdjust="spacing" textLength="167.9463" x="733.2983" y="522.7935">editarSolicitudDispensa().</text></g><!--link *start*SOLICITUD_DISPENSA_ABIERTA to VisualizacionYEdicion--><g class="link" data-entity-1=".start.SOLICITUD_DISPENSA_ABIERTA" data-entity-2="VisualizacionYEdicion" data-source-line="21" data-uid="lnk6" id="link_.start.SOLICITUD_DISPENSA_ABIERTA_VisualizacionYEdicion"><path d="M410.5,436.8938 C410.5,445.8338 410.5,453.3438 410.5,466.3738" fill="none" id="*start*SOLICITUD_DISPENSA_ABIERTA-to-VisualizacionYEdicion" style="stroke:#008000;stroke-width:1;"/><polygon fill="#008000" points="410.5,472.3738,414.5,463.3738,410.5,467.3738,406.5,463.3738,410.5,472.3738" style="stroke:#008000;stroke-width:1;"/></g><!--link VisualizacionYEdicion to *end*SOLICITUD_DISPENSA_ABIERTA--><g class="link" data-entity-1="VisualizacionYEdicion" data-entity-2=".end.SOLICITUD_DISPENSA_ABIERTA" data-source-line="26" data-uid="lnk8" id="link_VisualizacionYEdicion_.end.SOLICITUD_DISPENSA_ABIERTA"><path d="M410.5,548.6138 C410.5,561.7038 410.5,569.3538 410.5,578.5538" fill="none" id="VisualizacionYEdicion-to-*end*SOLICITUD_DISPENSA_ABIERTA" style="stroke:#008000;stroke-width:1;"/><polygon fill="#008000" points="410.5,584.5538,414.5,575.5538,410.5,579.5538,406.5,575.5538,410.5,584.5538" style="stroke:#008000;stroke-width:1;"/></g><g id="DISPENSAS_ABIERTO_FINAL"><rect fill="#F1F1F1" height="76.2969" rx="12.5" ry="12.5" style="stroke:#181818;stroke-width:0.5;" width="187.3623" x="523.5" y="918.2969"/><line style="stroke:#181818;stroke-width:0.5;" x1="523.5" x2="710.8623" y1="964.5938" y2="964.5938"/><text fill="#000000" font-family="sans-serif" font-size="14" lengthAdjust="spacing" textLength="147.3623" x="543.5" y="946.292">DISPENSAS_ABIERTO</text></g><ellipse cx="617" cy="73.2969" fill="#222222" rx="10" ry="10" style="stroke:#222222;stroke-width:1;"/><ellipse cx="617" cy="1105.2969" fill="none" rx="11" ry="11" style="stroke:#222222;stroke-width:1;"/><ellipse cx="617" cy="1105.2969" fill="#222222" rx="6" ry="6" style="stroke:#222222;stroke-width:1;"/><!--link *start* to DISPENSAS_ABIERTO_INICIAL--><g class="link" data-entity-1=".start." data-entity-2="DISPENSAS_ABIERTO_INICIAL" data-source-line="11" data-uid="lnk3" id="link_.start._DISPENSAS_ABIERTO_INICIAL"><path d="M617,83.4669 C617,103.6469 617,143.6769 617,176.9969" fill="none" id="*start*-to-DISPENSAS_ABIERTO_INICIAL" style="stroke:#008000;stroke-width:1;"/><polygon fill="#008000" points="617,182.9969,621,173.9969,617,177.9969,613,173.9969,617,182.9969" style="stroke:#008000;stroke-width:1;"/></g><!--link DISPENSAS_ABIERTO_INICIAL to SOLICITUD_DISPENSA_ABIERTA--><g class="link" data-entity-1="DISPENSAS_ABIERTO_INICIAL" data-entity-2="SOLICITUD_DISPENSA_ABIERTA" data-source-line="13" data-uid="lnk4" id="link_DISPENSAS_ABIERTO_INICIAL_SOLICITUD_DISPENSA_ABIERTA"><path d="M617,259.4769 C617,285.8869 617,316.6969 617,353.0569" fill="none" id="DISPENSAS_ABIERTO_INICIAL-to-SOLICITUD_DISPENSA_ABIERTA" style="stroke:#008000;stroke-width:1;"/><polygon fill="#008000" points="617,359.0569,621,350.0569,617,354.0569,613,350.0569,617,359.0569" style="stroke:#008000;stroke-width:1;"/><path d="M6,244.2669 L6,304.2669 L404,304.2669 L404,254.2669 L394,244.2669 L6,244.2669" fill="#FEFFDD" style="stroke:#181818;stroke-width:0.5;"/><path d="M394,244.2669 L394,254.2669 L404,254.2669 L394,244.2669" fill="#FEFFDD" style="stroke:#181818;stroke-width:0.5;"/><text fill="#000000" font-family="sans-serif" font-size="13" font-weight="bold" lengthAdjust="spacing" textLength="188.2588" x="22" y="271.3338">Director de Grado solicita</text><text fill="#000000" font-family="sans-serif" font-size="13" lengthAdjust="spacing" textLength="164.9312" x="214.3911" y="271.3338">seleccionar una solicitud.</text><text fill="#000000" font-family="sans-serif" font-size="13" font-weight="bold" lengthAdjust="spacing" textLength="128.7622" x="22" y="286.4666">Sistema presenta</text><text fill="#000000" font-family="sans-serif" font-size="13" lengthAdjust="spacing" textLength="158.9326" x="154.8945" y="286.4666">el detalle de la solicitud.</text><text fill="#000000" font-family="sans-serif" font-size="13" lengthAdjust="spacing" textLength="185.9165" x="420.3223" y="278.9002">consultarSolicitudDispensa()</text></g><!--link SOLICITUD_DISPENSA_ABIERTA to DISPENSAS_ABIERTO_FINAL--><g class="link" data-entity-1="SOLICITUD_DISPENSA_ABIERTA" data-entity-2="DISPENSAS_ABIERTO_FINAL" data-source-line="29" data-uid="lnk9" id="link_SOLICITUD_DISPENSA_ABIERTA_DISPENSAS_ABIERTO_FINAL"><path d="M585.83,616.4369 C585.83,718.0169 585.83,847.1169 585.83,912.1369" fill="none" id="SOLICITUD_DISPENSA_ABIERTA-to-DISPENSAS_ABIERTO_FINAL" style="stroke:#008000;stroke-width:1;"/><polygon fill="#008000" points="585.83,918.1369,589.83,909.1369,585.83,913.1369,581.83,909.1369,585.83,918.1369" style="stroke:#008000;stroke-width:1;"/><path d="M30.83,687.2869 L30.83,762.2869 L381.83,762.2869 L381.83,697.2869 L371.83,687.2869 L30.83,687.2869" fill="#FEFFDD" style="stroke:#181818;stroke-width:0.5;"/><path d="M371.83,687.2869 L371.83,697.2869 L381.83,697.2869 L371.83,687.2869" fill="#FEFFDD" style="stroke:#181818;stroke-width:0.5;"/><text fill="#000000" font-family="sans-serif" font-size="13" font-weight="bold" lengthAdjust="spacing" textLength="77.3589" x="46.83" y="714.3538">GUARDAR:</text><text fill="#000000" font-family="sans-serif" font-size="13" font-weight="bold" lengthAdjust="spacing" textLength="188.2588" x="46.83" y="729.4866">Director de Grado solicita</text><text fill="#000000" font-family="sans-serif" font-size="13" lengthAdjust="spacing" textLength="118.3647" x="239.2211" y="729.4866">registrar cambios.</text><text fill="#000000" font-family="sans-serif" font-size="13" font-weight="bold" lengthAdjust="spacing" textLength="121.5576" x="46.83" y="744.6194">Sistema registra</text><text fill="#000000" font-family="sans-serif" font-size="13" lengthAdjust="spacing" textLength="175.4937" x="172.5199" y="744.6194">los cambios de la solicitud.</text><text fill="#000000" font-family="sans-serif" font-size="13" lengthAdjust="spacing" textLength="176.9092" x="398.5859" y="729.4866">guardarSolicitudDispensa()</text></g><!--link SOLICITUD_DISPENSA_ABIERTA to DISPENSAS_ABIERTO_FINAL--><g class="link" data-entity-1="SOLICITUD_DISPENSA_ABIERTA" data-entity-2="DISPENSAS_ABIERTO_FINAL" data-source-line="36" data-uid="lnk10" id="link_SOLICITUD_DISPENSA_ABIERTA_DISPENSAS_ABIERTO_FINAL"><path d="M648.17,616.4369 C648.17,718.0169 648.17,847.1169 648.17,912.1369" fill="none" id="SOLICITUD_DISPENSA_ABIERTA-to-DISPENSAS_ABIERTO_FINAL-1" style="stroke:#FF0000;stroke-width:1;"/><polygon fill="#FF0000" points="648.17,918.1369,652.17,909.1369,648.17,913.1369,644.17,909.1369,648.17,918.1369" style="stroke:#FF0000;stroke-width:1;"/><text fill="#000000" font-family="sans-serif" font-size="13" lengthAdjust="spacing" textLength="164.6899" x="125.17" y="814.4866">cerrarSolicitudDispensa()</text><path d="M305.8599,772.2869 L305.8599,847.2869 L642.8599,847.2869 L642.8599,782.2869 L632.8599,772.2869 L305.8599,772.2869" fill="#FEFFDD" style="stroke:#181818;stroke-width:0.5;"/><path d="M632.8599,772.2869 L632.8599,782.2869 L642.8599,782.2869 L632.8599,772.2869" fill="#FEFFDD" style="stroke:#181818;stroke-width:0.5;"/><text fill="#000000" font-family="sans-serif" font-size="13" font-weight="bold" lengthAdjust="spacing" textLength="63.7114" x="321.8599" y="799.3538">CERRAR:</text><text fill="#000000" font-family="sans-serif" font-size="13" font-weight="bold" lengthAdjust="spacing" textLength="188.2588" x="321.8599" y="814.4866">Director de Grado solicita</text><text fill="#000000" font-family="sans-serif" font-size="13" lengthAdjust="spacing" textLength="104.1016" x="514.2511" y="814.4866">salir del detalle.</text><text fill="#000000" font-family="sans-serif" font-size="13" font-weight="bold" lengthAdjust="spacing" textLength="127.1689" x="321.8599" y="829.6194">Sistema descarta</text><text fill="#000000" font-family="sans-serif" font-size="13" lengthAdjust="spacing" textLength="165.5786" x="453.1612" y="829.6194">los cambios introducidos.</text></g><!--link DISPENSAS_ABIERTO_FINAL to *end*--><g class="link" data-entity-1="DISPENSAS_ABIERTO_FINAL" data-entity-2=".end." data-source-line="43" data-uid="lnk12" id="link_DISPENSAS_ABIERTO_FINAL_.end."><path d="M617,994.6669 C617,1027.7769 617,1067.4569 617,1088.2169" fill="none" id="DISPENSAS_ABIERTO_FINAL-to-*end*" style="stroke:#0000FF;stroke-width:1;"/><polygon fill="#0000FF" points="617,1094.2169,621,1085.2169,617,1089.2169,613,1085.2169,617,1094.2169" style="stroke:#0000FF;stroke-width:1;"/></g><!--SRC=[bPJFRjim3CRlUWeYlMm3qdNNe0ZW9LbXe4YBk1qm54MWMAmhH9OCIZvqmvvgZx0Nc-G_IHh7xfg34viVAVu-qd7IAOIPqRPKZXCaHibKkbA0G9XBMw2sdDcjr0KddeCs0YqMyENYuk0fSRtjFbLIetif40ovPtCGkEL2I9rvEMFMSUTFYfFRnJA9adNqDLwixcxMyJAUnT4rr1zkOTJHZ9havERQQ-_kv-jMqYYYVNA_PjJRmhTukMkWjmNsyEaHnWzd6I7gn_6q7uMnVih30WCu4qZRIUq6rGxfmqUcZUTG-EJ0wE3-beN6BpVJkIHCdQ4mr2lYme2jq_dbvyqKB2fCKscqNu1IypPOYlEsG2Ajmvn3GNxwkab3vUivhlm2-RhgLHvg0Q4TzlQCVbM7rBBlqfPSoPyyTFDZ8MJuhgm_YFpze-45gg3_EQhIZwTmib2bh4mYcJrxbvu6T4VaUOdMKGskZ0N1NRWUSv_8B91owSziBQVQF25FJx6kiVClt9nsvH3NuxFVZ0sul5UFJovflUmJo4fEufthTNKVhURHQXB0_dFb23CP_2H8URwHndPMhLNi76-4Gxisp4yetg9FaMW0lbcRr_IpnMhrFdZhXnbYk_Ud0-__P5DEhWiljICZobIAODcUl0_9OszKYSsE_0C0]--></g></svg>